M48
;Layer_Color=9474304
;FILE_FORMAT=2:4
INCH,TZ
;TYPE=PLATED
T1F00S00C0.0120
T2F00S00C0.0130
T4F00S00C0.0315
T5F00S00C0.0354
T6F00S00C0.0394
;TYPE=NON_PLATED
T7F00S00C0.0236
T8F00S00C0.0354
T9F00S00C0.0402
T10F00S00C0.1220
%
T01
X18260Y2860
X18320Y3770
X17710Y3900
X17610Y4950
X17860Y5480
X18380Y5500
X18753Y5753
X19190Y5750
X19230Y4610
X19710Y4920
X18620Y4430
X18290Y4600
X17870Y6270
X17900Y6720
X17972Y7679
X17970Y8280
X18453Y7266
X18753Y7267
X19500Y7500
Y8500
Y9500
Y10500
X18250
Y9500
X17340Y9840
X17380Y7240
X19520Y2840
X17160
X17050Y2060
X16780Y1410
X16500Y1100
X16000
X15500
X15000
X14500
X14000
X13500
X13170Y1290
X13100Y1700
Y2200
X13571Y2001
X13901
X14171Y1491
X14000Y300
X14500
X15000
X15500
X16000
X16500
X17000
X17100Y1100
X16040Y2290
X15301Y2501
X15231Y2891
X15231Y3171
X15270Y3610
Y4030
X16000
X16420Y3540
X17130Y4570
X16890Y5760
X16381Y6151
X16631Y6560
X15811Y6721
X15320Y7210
X14390Y7220
X14338Y6689
X14790Y6640
X14451Y5821
X14481Y4921
X15811Y4941
X16040Y7540
X16340
X16460Y7970
X15590Y8230
X15560Y8540
X15990Y9000
X15780Y9530
X15525Y9790
X15540Y10150
X14670Y9740
X14685Y9341
Y9006
X14290Y8590
X13770Y8260
X12970Y8090
X13330Y8920
X13410Y9810
X13430Y10110
X13900Y9960
X14320Y9890
X12450Y9870
X12580Y10290
X11820Y10110
Y9790
X11040Y9670
X11190Y9230
X11490Y9100
X11420Y8700
X10760Y8730
X10670Y9060
X10170Y8490
X9700Y8710
X9440Y8560
X9200Y8740
X8840Y8750
X8420Y8640
X8000Y8700
X7880Y8980
X7850Y9280
X7460Y8710
X7090Y8750
X6780Y8840
X6990Y7990
X7320Y7560
X7440Y7280
X7490Y6360
X7598Y5846
X8540Y5790
X8520Y6470
X8610Y7050
X8700Y7680
X8220Y7790
X6590Y7630
X6010Y7870
X5800Y8090
X5260Y8120
X5360Y8410
X5180Y8650
X5590Y8610
X5930Y9230
X5980Y10490
X5560Y10460
X6993Y10497
X7427
Y10063
X6993
X8310Y10300
X8560Y9800
X9210Y9310
X9610Y7350
X9380Y6340
X11040Y6260
X11240Y6490
X11490Y6320
X11620Y5990
X11800Y5740
X11040
X10970Y7710
X11250Y7590
X11600Y7350
X11890Y7240
X12170Y7120
X12450Y7010
X13090Y6710
X13721Y7211
X14280Y3420
X12300Y2200
Y1700
X12340Y1200
X12580Y750
X12985Y428
X13500Y300
X11670Y330
X10310Y450
X10390Y890
X10060Y1710
X9190Y1700
X9060Y2340
X8660Y2750
X8230Y2840
X8468Y3387
X8468Y3702
X8468Y4017
X9120Y4420
X9440Y4190
X9480Y3800
X9740Y3970
X9777Y3356
X9470Y3360
X9780Y2560
X10460Y2360
X10590Y2090
X10840Y2580
X10950Y3130
X11730Y2730
X11520Y2130
X11290Y1930
X9180Y730
X8790Y310
X8170Y1670
X7150Y1650
X7120Y2540
X7140Y2930
X7620Y3110
X7340Y3600
X7410Y4070
X7740Y4420
X6809Y4537
X6510Y4540
X6000Y4660
Y3820
X5400Y3830
X5650Y3370
X5950Y3160
X6060Y2850
X6166Y2350
X5802Y2072
X6010Y1780
X5490Y2420
X4469Y2459
X4650Y1590
X3350Y1610
X3650Y2800
X3813Y3268
X3780Y3823
X2631Y3860
X2611Y4320
X2622Y5310
X3820Y5210
X4370Y4740
X4690Y4680
X4680Y3490
X3150Y2990
X2283Y2953
X1830Y2770
X1750Y430
X2810Y410
X7047Y827
X6644Y3770
X3990Y6470
X3270
X3110Y7470
X3400Y7880
X3660Y8120
X3810Y8380
X3840Y8700
X3860Y9220
X3190Y8960
X2850Y9030
X2940Y9850
X2640Y10180
X2220Y10160
X3930Y10350
X4530Y8790
X4574Y8020
X3940Y7640
X3410Y8440
X2424Y8010
X1940Y7640
X10660Y10590
X17240Y8400
X1030Y8170
X410Y7550
X1480Y7240
X400Y3500
X410Y1500
X500Y500
X1100Y10700
X730Y11800
Y13730
X1400Y13970
X1199Y16059
X550Y17120
X580Y18120
X540Y19420
X2910Y18670
X3750Y18710
X4750Y18610
X4810Y19470
X6260Y19430
X6960Y19560
X7190Y18970
X6200Y18570
X5720Y18030
X5660Y16820
X5540Y16060
X5530Y15720
X5550Y15350
X5540Y14980
Y14610
X5430Y14210
X4840Y13930
X4420Y14040
X4900Y13350
X4850Y12100
X5340Y12230
X5620Y12350
X5900Y12470
X6870Y12380
X6770Y12840
X7160Y13100
X6530Y13600
X5980
X6320Y14270
X6670Y14260
X6800Y14600
X6700Y15210
X6245Y15060
X7500Y14990
X7610Y14650
X8110Y14590
X7780Y15240
X8690Y15780
X9650Y15740
X10630Y15730
X11120Y16210
X11090Y16820
X10340Y16790
X9950
X9560Y16720
X9340Y17080
X9250Y17820
X9630Y17670
X9640Y18360
X8890Y18353
X8100Y17730
X7550Y17800
X7720Y16910
X6520Y16600
X4800Y16420
X4420Y16790
X4130Y16040
X4530Y15600
X4540Y15200
X3540Y15150
X3490Y14760
X3440Y14290
X3320Y13760
X3620Y15610
X3490Y16950
X2130Y17290
X1780Y16090
X4410Y17960
X4330Y11890
X3900Y11360
X6400Y11210
X6310Y11650
X7328Y11790
X7677Y11811
X7960Y11930
X7470Y12130
X8480Y11520
X8780Y11580
X9080
X9379Y11555
X9360Y10800
X9860Y10890
X10560Y10900
X11100Y10670
X11430Y11300
X12370Y11210
X12620Y11590
X12640Y11970
X12730Y12370
X13100Y12170
X12430Y13300
X12010Y13380
X11720Y14150
X11390Y13900
X10690Y14140
X10370Y13870
X10205Y14331
X10157Y14646
X10520Y14560
X9880Y14140
X9330Y14160
X9310Y14770
X9710Y13420
X10220Y13060
X10390Y12420
X10580Y11950
X9920
X8940Y12408
X9100Y13050
X8260Y11300
X8430Y10840
X14190Y10680
X14140Y11150
X14340Y13750
X13890Y14610
X13730Y14940
X13310Y15580
X14230Y15590
X14430Y15870
X14231Y16441
X13930Y17120
X13920Y17430
X13860Y17740
X13910Y18040
X14180Y18530
X14120Y19620
X12690Y19530
X12580Y19220
X11970Y19380
X10950Y19410
X10370Y18940
X10670Y18480
X10350Y17610
X11130Y17720
X11920Y18250
X12480Y18120
X12290Y17070
X12222Y16020
X12560Y16030
X15180Y16220
X15580Y13560
X16140Y13700
X16620Y13970
X16600Y13310
X16590Y12570
X17340Y13060
X17500Y14000
X18400Y13970
X18590Y13420
X18450Y12560
X18240Y11350
X17300Y11440
X19500Y11500
X19646Y13375
X19640Y14550
X19114Y14970
T02
X12182Y3882
X12654
X13127
X13599
Y4354
X13127
Y4827
X13599
Y5299
X13127
X12654
Y4827
Y4354
X12182
Y4827
Y5299
T04
X2756Y11417
Y12205
Y12992
Y13780
Y15748
Y16535
Y17323
Y18110
X7087
Y17323
Y16535
Y15748
X11417
Y16535
Y17323
Y18110
T05
X2091Y5957
Y6957
X3091
X4091
Y5957
X5091
Y6957
X6091
X7091
Y5957
X8091
X9091
X10091
Y6957
X9091
X8091
X6091Y5957
X3091
X1091
Y6957
X4800Y11600
X5800
X7300Y12600
X8300
X8300Y13600
X7300
T06
X19094Y4118
Y5118
X4055Y9843
X2756Y1378
X11516Y11850
T07
X19272Y6509
T08
X974Y14260
Y16937
T09
X937Y3573
Y5073
T10
X1378Y1378
Y18543
X15071Y14685
M30
