G04 Layer_Color=8421504*
%FSLAX24Y24*%
%MOIN*%
G70*
G01*
G75*
%ADD14R,0.0236X0.0197*%
%ADD15R,0.0315X0.0728*%
%ADD16R,0.0197X0.0236*%
%ADD17R,0.0315X0.0295*%
G04:AMPARAMS|DCode=18|XSize=31.5mil|YSize=29.5mil|CornerRadius=0mil|HoleSize=0mil|Usage=FLASHONLY|Rotation=310.000|XOffset=0mil|YOffset=0mil|HoleType=Round|Shape=Rectangle|*
%AMROTATEDRECTD18*
4,1,4,-0.0214,0.0026,0.0012,0.0216,0.0214,-0.0026,-0.0012,-0.0216,-0.0214,0.0026,0.0*
%
%ADD18ROTATEDRECTD18*%

%ADD19R,0.0197X0.0256*%
%ADD20R,0.0295X0.0315*%
G04:AMPARAMS|DCode=21|XSize=19.7mil|YSize=25.6mil|CornerRadius=0mil|HoleSize=0mil|Usage=FLASHONLY|Rotation=310.000|XOffset=0mil|YOffset=0mil|HoleType=Round|Shape=Rectangle|*
%AMROTATEDRECTD21*
4,1,4,-0.0161,-0.0007,0.0035,0.0158,0.0161,0.0007,-0.0035,-0.0158,-0.0161,-0.0007,0.0*
%
%ADD21ROTATEDRECTD21*%

%ADD22R,0.0256X0.0197*%
%ADD23R,0.1083X0.0551*%
%ADD24O,0.0079X0.0256*%
%ADD25O,0.0256X0.0079*%
%ADD26R,0.1850X0.1850*%
%ADD31R,0.0335X0.0374*%
%ADD32R,0.0295X0.0551*%
%ADD122C,0.0020*%
%ADD123C,0.0081*%
%ADD124R,0.0117X0.0157*%
%ADD125R,0.0104X0.0590*%
%ADD126R,0.0196X0.0098*%
%ADD127R,0.0098X0.0590*%
%ADD128R,0.0275X0.0098*%
%ADD129R,0.0354X0.0098*%
D14*
X14937Y3630D02*
D03*
X14543D02*
D03*
X14937Y4010D02*
D03*
X14543D02*
D03*
X14897Y1471D02*
D03*
X14504D02*
D03*
X14504Y2871D02*
D03*
X14897D02*
D03*
X13087Y2941D02*
D03*
X12694D02*
D03*
X14504Y3211D02*
D03*
X14897D02*
D03*
X13267Y6981D02*
D03*
X12874D02*
D03*
X16417Y699D02*
D03*
X16024D02*
D03*
D15*
X19409Y693D02*
D03*
X18071D02*
D03*
D16*
X13631Y6494D02*
D03*
Y6887D02*
D03*
X11281Y5514D02*
D03*
Y5907D02*
D03*
X13571Y2314D02*
D03*
Y2707D02*
D03*
X13921Y2707D02*
D03*
Y2314D02*
D03*
X12521Y7334D02*
D03*
Y7727D02*
D03*
D17*
X14041Y6956D02*
D03*
Y6425D02*
D03*
D18*
X15799Y5429D02*
D03*
X16206Y5771D02*
D03*
D19*
X12691Y2194D02*
D03*
Y2568D02*
D03*
X16791Y1073D02*
D03*
Y699D02*
D03*
D20*
X15108Y5411D02*
D03*
X14577D02*
D03*
D21*
X15519Y5750D02*
D03*
X15806Y5990D02*
D03*
D22*
X17549Y699D02*
D03*
X17175D02*
D03*
D23*
X9931Y10748D02*
D03*
Y9173D02*
D03*
X12589Y10748D02*
D03*
Y9173D02*
D03*
D24*
X13757Y5781D02*
D03*
X13599D02*
D03*
X13442D02*
D03*
X13284D02*
D03*
X13127D02*
D03*
X12969D02*
D03*
X12812D02*
D03*
X12654D02*
D03*
X12497D02*
D03*
X12339D02*
D03*
X12182D02*
D03*
X12024D02*
D03*
Y3400D02*
D03*
X12182D02*
D03*
X12339D02*
D03*
X12497D02*
D03*
X12654D02*
D03*
X12812D02*
D03*
X12969D02*
D03*
X13127D02*
D03*
X13284D02*
D03*
X13442D02*
D03*
X13599D02*
D03*
X13757D02*
D03*
D25*
X11700Y5457D02*
D03*
Y5299D02*
D03*
Y5142D02*
D03*
Y4984D02*
D03*
Y4827D02*
D03*
Y4669D02*
D03*
Y4512D02*
D03*
Y4354D02*
D03*
Y4197D02*
D03*
Y4039D02*
D03*
Y3882D02*
D03*
Y3724D02*
D03*
X14081D02*
D03*
Y3882D02*
D03*
Y4039D02*
D03*
Y4197D02*
D03*
Y4354D02*
D03*
Y4512D02*
D03*
Y4669D02*
D03*
Y4827D02*
D03*
Y4984D02*
D03*
Y5142D02*
D03*
Y5299D02*
D03*
Y5457D02*
D03*
D26*
X12891Y4591D02*
D03*
D31*
X14474Y2456D02*
D03*
X14927D02*
D03*
Y1885D02*
D03*
X14474D02*
D03*
D32*
X12845Y7581D02*
D03*
X13416D02*
D03*
D122*
X19046Y6428D02*
G03*
X19316Y6273I226J81D01*
G01*
X18982Y6428D02*
G03*
X19347Y6218I290J81D01*
G01*
X19488Y6299D02*
G03*
X19488Y6720I-215J211D01*
G01*
X19456Y6354D02*
G03*
X19456Y6665I-183J155D01*
G01*
X19347Y6801D02*
G03*
X18982Y6590I-75J-292D01*
G01*
X19315Y6746D02*
G03*
X19046Y6590I-43J-236D01*
G01*
X18982Y6428D02*
X19046D01*
X18982Y6590D02*
X19046D01*
X19315Y6273D02*
X19347Y6218D01*
X19456Y6354D02*
X19529Y6227D01*
X19456Y6665D02*
X19530Y6793D01*
X19315Y6746D02*
X19347Y6801D01*
X19466Y6356D02*
X19539Y6228D01*
X19469Y6659D02*
X19544Y6787D01*
D123*
X19027Y6395D02*
G03*
X19296Y6240I245J114D01*
G01*
X19494Y6354D02*
G03*
X19494Y6665I-222J155D01*
G01*
X19296Y6779D02*
G03*
X19027Y6624I-24J-270D01*
G01*
D124*
X18741Y6332D02*
D03*
Y6686D02*
D03*
X18465D02*
D03*
Y6332D02*
D03*
D125*
X19555Y6509D02*
D03*
D126*
X19509Y6027D02*
D03*
Y6992D02*
D03*
D127*
X18200Y6509D02*
D03*
D128*
X18288Y6027D02*
D03*
Y6992D02*
D03*
D129*
X18957Y6027D02*
D03*
Y6992D02*
D03*
M02*
