G04 Layer_Physical_Order=1*
G04 Layer_Color=255*
%FSLAX24Y24*%
%MOIN*%
G70*
G01*
G75*
%ADD10C,0.0380*%
%ADD11C,0.0118*%
%ADD12C,0.0060*%
%ADD13C,0.0591*%
%ADD14R,0.0236X0.0197*%
%ADD15R,0.0315X0.0728*%
%ADD16R,0.0197X0.0236*%
%ADD17R,0.0315X0.0295*%
G04:AMPARAMS|DCode=18|XSize=31.5mil|YSize=29.5mil|CornerRadius=0mil|HoleSize=0mil|Usage=FLASHONLY|Rotation=310.000|XOffset=0mil|YOffset=0mil|HoleType=Round|Shape=Rectangle|*
%AMROTATEDRECTD18*
4,1,4,-0.0214,0.0026,0.0012,0.0216,0.0214,-0.0026,-0.0012,-0.0216,-0.0214,0.0026,0.0*
%
%ADD18ROTATEDRECTD18*%

%ADD19R,0.0197X0.0256*%
%ADD20R,0.0295X0.0315*%
G04:AMPARAMS|DCode=21|XSize=19.7mil|YSize=25.6mil|CornerRadius=0mil|HoleSize=0mil|Usage=FLASHONLY|Rotation=310.000|XOffset=0mil|YOffset=0mil|HoleType=Round|Shape=Rectangle|*
%AMROTATEDRECTD21*
4,1,4,-0.0161,-0.0007,0.0035,0.0158,0.0161,0.0007,-0.0035,-0.0158,-0.0161,-0.0007,0.0*
%
%ADD21ROTATEDRECTD21*%

%ADD22R,0.0256X0.0197*%
%ADD23R,0.1083X0.0551*%
%ADD24O,0.0079X0.0256*%
%ADD25O,0.0256X0.0079*%
%ADD26R,0.1850X0.1850*%
%ADD27R,0.0157X0.0236*%
%ADD28C,0.0079*%
%ADD29R,0.0394X0.0394*%
%ADD30R,0.0394X0.0394*%
%ADD31R,0.0335X0.0374*%
%ADD32R,0.0295X0.0551*%
%ADD33C,0.0058*%
%ADD34C,0.0350*%
%ADD35C,0.0150*%
%ADD36C,0.0100*%
%ADD37C,0.0090*%
%ADD38C,0.0138*%
%ADD39C,0.0116*%
%ADD40C,0.0075*%
%ADD41C,0.0300*%
%ADD42C,0.0080*%
%ADD43C,0.0200*%
%ADD44C,0.0400*%
%ADD45C,0.0110*%
%ADD46C,0.0250*%
G04:AMPARAMS|DCode=47|XSize=72.8mil|YSize=13.8mil|CornerRadius=0mil|HoleSize=0mil|Usage=FLASHONLY|Rotation=180.002|XOffset=0mil|YOffset=0mil|HoleType=Round|Shape=Rectangle|*
%AMROTATEDRECTD47*
4,1,4,0.0364,0.0069,0.0364,-0.0069,-0.0364,-0.0069,-0.0364,0.0069,0.0364,0.0069,0.0*
%
%ADD47ROTATEDRECTD47*%

G04:AMPARAMS|DCode=48|XSize=17.7mil|YSize=13.8mil|CornerRadius=0mil|HoleSize=0mil|Usage=FLASHONLY|Rotation=180.002|XOffset=0mil|YOffset=0mil|HoleType=Round|Shape=Rectangle|*
%AMROTATEDRECTD48*
4,1,4,0.0089,0.0069,0.0089,-0.0069,-0.0089,-0.0069,-0.0089,0.0069,0.0089,0.0069,0.0*
%
%ADD48ROTATEDRECTD48*%

%ADD49R,0.0138X0.1102*%
%ADD50R,0.0138X0.1102*%
%ADD51C,0.1220*%
%ADD52C,0.0118*%
%ADD53R,0.0591X0.0591*%
%ADD54O,0.0630X0.0354*%
%ADD55C,0.0402*%
%ADD56C,0.0354*%
%ADD57C,0.0500*%
%ADD58R,0.0500X0.0500*%
%ADD59C,0.0240*%
%ADD60C,0.0260*%
G36*
X8728Y15020D02*
X8740Y14999D01*
Y14660D01*
X8710Y14631D01*
X8663Y14646D01*
X8638Y14663D01*
X8609Y14692D01*
X8588Y14715D01*
X8565Y14754D01*
X8554Y14791D01*
X8556Y14878D01*
X8566Y14906D01*
X8599Y14960D01*
X8632Y14992D01*
X8668Y15015D01*
X8708Y15027D01*
X8728Y15020D01*
D02*
G37*
G36*
X16150Y4065D02*
X16034Y3948D01*
X15155D01*
Y3960D01*
X14937D01*
Y4060D01*
X15155D01*
Y4108D01*
X15158Y4111D01*
X16131D01*
X16150Y4065D01*
D02*
G37*
G36*
X8897Y15014D02*
X8922Y14997D01*
X8951Y14968D01*
X8972Y14945D01*
X8995Y14906D01*
X9006Y14869D01*
X9004Y14782D01*
X8994Y14754D01*
X8961Y14700D01*
X8928Y14668D01*
X8892Y14645D01*
X8852Y14633D01*
X8832Y14640D01*
X8820Y14661D01*
Y15000D01*
X8850Y15029D01*
X8897Y15014D01*
D02*
G37*
G36*
X15894Y3641D02*
X15781Y3529D01*
X15158D01*
X15155Y3532D01*
Y3580D01*
X14937D01*
Y3680D01*
X15155D01*
Y3687D01*
X15875D01*
X15894Y3641D01*
D02*
G37*
G36*
X9702Y4124D02*
X10239Y3588D01*
X10215Y3541D01*
X10196Y3543D01*
X10157Y3545D01*
X10119Y3543D01*
X10080Y3538D01*
X10043Y3528D01*
X10006Y3515D01*
X9971Y3499D01*
X9954Y3488D01*
X9952Y3491D01*
X9933Y3512D01*
X9911Y3531D01*
X9887Y3547D01*
X9862Y3560D01*
X9834Y3569D01*
X9806Y3575D01*
X9777Y3577D01*
X9748Y3575D01*
X9720Y3569D01*
X9693Y3560D01*
X9667Y3547D01*
X9643Y3531D01*
X9621Y3512D01*
X9602Y3491D01*
X9586Y3467D01*
X9574Y3441D01*
X9564Y3413D01*
X9559Y3385D01*
X9557Y3356D01*
X9559Y3328D01*
X9564Y3299D01*
X9574Y3272D01*
X9586Y3246D01*
X9602Y3222D01*
X9621Y3200D01*
X9643Y3181D01*
X9667Y3165D01*
X9693Y3153D01*
X9720Y3143D01*
X9748Y3138D01*
X9762Y3137D01*
X9764Y3111D01*
X9769Y3072D01*
X9779Y3035D01*
X9792Y2998D01*
X9806Y2968D01*
X9800Y2951D01*
X9777Y2918D01*
X9392D01*
X9332Y2978D01*
X9342Y2998D01*
X9355Y3035D01*
X9365Y3072D01*
X9370Y3111D01*
X9372Y3150D01*
X9370Y3188D01*
X9365Y3227D01*
X9355Y3264D01*
X9342Y3301D01*
X9329Y3329D01*
X9572Y3572D01*
X9585Y3587D01*
X9596Y3605D01*
X9601Y3616D01*
X9614Y3625D01*
X9636Y3644D01*
X9655Y3666D01*
X9671Y3690D01*
X9684Y3716D01*
X9693Y3743D01*
X9699Y3771D01*
X9700Y3800D01*
X9699Y3829D01*
X9693Y3857D01*
X9684Y3884D01*
X9671Y3910D01*
X9655Y3934D01*
X9636Y3956D01*
X9614Y3975D01*
X9609Y3979D01*
X9598Y4023D01*
X9598Y4026D01*
X9602Y4041D01*
X9615Y4056D01*
X9631Y4080D01*
X9644Y4106D01*
X9645Y4110D01*
X9695Y4125D01*
X9702Y4124D01*
D02*
G37*
G36*
X16364Y14974D02*
X16382Y14958D01*
X16402Y14946D01*
X16423Y14937D01*
X16446Y14931D01*
X16470Y14930D01*
X18898D01*
X18901Y14913D01*
X18910Y14886D01*
X18923Y14860D01*
X18939Y14836D01*
X18958Y14814D01*
X18980Y14795D01*
X19004Y14779D01*
X19030Y14766D01*
X19057Y14757D01*
X19085Y14751D01*
X19114Y14750D01*
X19143Y14751D01*
X19171Y14757D01*
X19198Y14766D01*
X19224Y14779D01*
X19248Y14795D01*
X19270Y14814D01*
X19289Y14836D01*
X19305Y14860D01*
X19318Y14886D01*
X19327Y14913D01*
X19333Y14941D01*
X19334Y14970D01*
X19333Y14999D01*
X19327Y15027D01*
X19318Y15054D01*
X19305Y15080D01*
X19295Y15096D01*
X19303Y15124D01*
X19319Y15146D01*
X19791D01*
Y5172D01*
X19741Y5138D01*
X19739Y5139D01*
X19710Y5140D01*
X19681Y5139D01*
X19653Y5133D01*
X19626Y5124D01*
X19600Y5111D01*
X19576Y5095D01*
X19563Y5084D01*
X19532Y5082D01*
X19490Y5111D01*
X19490Y5118D01*
X19488Y5157D01*
X19483Y5195D01*
X19473Y5233D01*
X19460Y5270D01*
X19444Y5305D01*
X19424Y5338D01*
X19400Y5369D01*
X19374Y5398D01*
X19346Y5424D01*
X19314Y5447D01*
X19281Y5467D01*
X19246Y5484D01*
X19209Y5497D01*
X19172Y5506D01*
X19133Y5512D01*
X19094Y5514D01*
X19056Y5512D01*
X19017Y5506D01*
X18980Y5497D01*
X18943Y5484D01*
X18908Y5467D01*
X18875Y5447D01*
X18843Y5424D01*
X18815Y5398D01*
X18789Y5369D01*
X18765Y5338D01*
X18745Y5305D01*
X18729Y5270D01*
X18716Y5233D01*
X18706Y5195D01*
X18701Y5157D01*
X18699Y5118D01*
X18701Y5079D01*
X18706Y5041D01*
X18716Y5003D01*
X18729Y4967D01*
X18745Y4932D01*
X18765Y4898D01*
X18789Y4867D01*
X18815Y4838D01*
X18843Y4812D01*
X18875Y4789D01*
X18908Y4769D01*
X18943Y4752D01*
X18980Y4739D01*
X19017Y4730D01*
X19056Y4724D01*
X19094Y4722D01*
X19133Y4724D01*
X19172Y4730D01*
X19209Y4739D01*
X19246Y4752D01*
X19281Y4769D01*
X19314Y4789D01*
X19315Y4790D01*
X19533D01*
X19535Y4786D01*
X19554Y4764D01*
X19576Y4745D01*
X19600Y4729D01*
X19626Y4716D01*
X19653Y4707D01*
X19681Y4701D01*
X19710Y4700D01*
X19739Y4701D01*
X19741Y4702D01*
X19791Y4668D01*
Y2634D01*
X17280D01*
Y898D01*
X17198D01*
X17175Y899D01*
X17033D01*
X17022Y906D01*
X16990Y945D01*
Y1023D01*
X16791D01*
X16592D01*
Y945D01*
X16561Y906D01*
X16550Y899D01*
X16417D01*
X16394Y898D01*
X16299D01*
X16280Y896D01*
X16261Y890D01*
X16243Y881D01*
X16228Y868D01*
X16183Y892D01*
X16180Y895D01*
X16157Y911D01*
X16132Y924D01*
X16106Y935D01*
X16079Y943D01*
X16052Y948D01*
X16024Y949D01*
X13576D01*
X13526Y949D01*
X13477Y951D01*
X13435Y956D01*
X13390Y965D01*
X13346Y977D01*
X13303Y993D01*
X13261Y1012D01*
X13221Y1035D01*
X13183Y1060D01*
X13147Y1089D01*
X13114Y1120D01*
X13083Y1153D01*
X13054Y1189D01*
X13029Y1227D01*
X13007Y1267D01*
X12988Y1309D01*
X12972Y1352D01*
X12959Y1396D01*
X12950Y1441D01*
X12945Y1483D01*
X12943Y1532D01*
D01*
X12943Y1581D01*
Y2150D01*
X12942Y2178D01*
X12937Y2206D01*
X12929Y2233D01*
X12919Y2259D01*
X12905Y2283D01*
X12900Y2291D01*
X12918Y2334D01*
X12925Y2341D01*
X13372D01*
Y2196D01*
X13374Y2176D01*
X13379Y2157D01*
X13389Y2140D01*
X13401Y2125D01*
X13416Y2112D01*
X13434Y2103D01*
X13453Y2097D01*
X13472Y2095D01*
X13521D01*
Y2314D01*
X13621D01*
Y2095D01*
X13669D01*
X13689Y2097D01*
X13707Y2103D01*
X13725Y2112D01*
X13740Y2125D01*
X13766Y2112D01*
X13784Y2103D01*
X13803Y2097D01*
X13822Y2095D01*
X13871D01*
Y2314D01*
X13971D01*
Y2095D01*
X14019D01*
X14039Y2097D01*
X14057Y2103D01*
X14075Y2112D01*
X14090Y2125D01*
X14102Y2125D01*
X14148Y2078D01*
X14164Y2065D01*
X14181Y2054D01*
X14200Y2047D01*
X14206Y2045D01*
Y1935D01*
X14474D01*
Y1835D01*
X14206D01*
Y1698D01*
X14208Y1679D01*
X14214Y1660D01*
X14223Y1642D01*
X14236Y1627D01*
X14251Y1615D01*
X14268Y1605D01*
X14287Y1589D01*
X14285Y1569D01*
Y1521D01*
X14504D01*
Y1471D01*
X14554D01*
Y1272D01*
X14622D01*
X14641Y1274D01*
X14660Y1279D01*
X14678Y1289D01*
X14693Y1301D01*
X14708D01*
X14723Y1289D01*
X14741Y1279D01*
X14760Y1274D01*
X14779Y1272D01*
X15016D01*
X15035Y1274D01*
X15054Y1279D01*
X15071Y1289D01*
X15087Y1301D01*
X15099Y1316D01*
X15108Y1334D01*
X15114Y1353D01*
X15116Y1372D01*
Y1569D01*
X15114Y1589D01*
X15112Y1596D01*
X15114Y1600D01*
X15133Y1605D01*
X15150Y1615D01*
X15165Y1627D01*
X15178Y1642D01*
X15187Y1660D01*
X15193Y1679D01*
X15195Y1698D01*
Y2072D01*
X15193Y2092D01*
X15187Y2111D01*
X15178Y2128D01*
X15169Y2139D01*
X15165Y2148D01*
Y2193D01*
X15169Y2202D01*
X15178Y2213D01*
X15187Y2231D01*
X15193Y2249D01*
X15195Y2269D01*
Y2406D01*
X14927D01*
Y2506D01*
X15195D01*
Y2643D01*
X15193Y2663D01*
X15187Y2681D01*
X15178Y2699D01*
X15165Y2714D01*
X15150Y2727D01*
X15133Y2736D01*
X15115Y2752D01*
X15116Y2772D01*
Y2821D01*
X14897D01*
Y2921D01*
X15116D01*
Y2969D01*
X15114Y2989D01*
X15108Y3007D01*
X15099Y3025D01*
X15087Y3041D01*
X15099Y3056D01*
X15108Y3074D01*
X15114Y3093D01*
X15116Y3112D01*
Y3161D01*
X14897D01*
Y3261D01*
X15116D01*
Y3268D01*
X15835D01*
X15856Y3270D01*
X15876Y3274D01*
X15895Y3282D01*
X15912Y3293D01*
X15928Y3306D01*
X16641Y4020D01*
X17886D01*
X18102Y3803D01*
X18101Y3799D01*
X18100Y3770D01*
X18101Y3741D01*
X18107Y3713D01*
X18116Y3686D01*
X18129Y3660D01*
X18145Y3636D01*
X18164Y3614D01*
X18186Y3595D01*
X18210Y3579D01*
X18236Y3566D01*
X18263Y3557D01*
X18291Y3551D01*
X18320Y3550D01*
X18349Y3551D01*
X18377Y3557D01*
X18404Y3566D01*
X18430Y3579D01*
X18454Y3595D01*
X18476Y3614D01*
X18495Y3636D01*
X18511Y3660D01*
X18524Y3686D01*
X18533Y3713D01*
X18539Y3741D01*
X18540Y3770D01*
X18539Y3799D01*
X18533Y3827D01*
X18524Y3854D01*
X18511Y3880D01*
X18495Y3904D01*
X18476Y3926D01*
X18454Y3945D01*
X18430Y3961D01*
X18404Y3974D01*
X18377Y3983D01*
X18349Y3989D01*
X18320Y3990D01*
X18291Y3989D01*
X18287Y3988D01*
X18074Y4200D01*
X18257Y4382D01*
X18261Y4381D01*
X18290Y4380D01*
X18319Y4381D01*
X18347Y4387D01*
X18374Y4396D01*
X18400Y4409D01*
X18424Y4425D01*
X18446Y4444D01*
X18465Y4466D01*
X18481Y4490D01*
X18494Y4516D01*
X18503Y4543D01*
X18509Y4571D01*
X18510Y4600D01*
X18509Y4629D01*
X18503Y4657D01*
X18494Y4684D01*
X18481Y4710D01*
X18465Y4734D01*
X18446Y4756D01*
X18445Y4815D01*
X18448Y4819D01*
X18456Y4828D01*
X18479Y4859D01*
X18499Y4892D01*
X18515Y4927D01*
X18528Y4964D01*
X18538Y5002D01*
X18543Y5040D01*
X18545Y5079D01*
X18543Y5118D01*
X18538Y5156D01*
X18528Y5194D01*
X18515Y5230D01*
X18501Y5261D01*
X18504Y5269D01*
X18509Y5289D01*
X18510Y5309D01*
Y5323D01*
X18514Y5325D01*
X18536Y5344D01*
X18555Y5366D01*
X18571Y5390D01*
X18584Y5416D01*
X18593Y5443D01*
X18599Y5471D01*
X18600Y5500D01*
X18599Y5529D01*
X18593Y5557D01*
X18584Y5584D01*
X18571Y5610D01*
X18555Y5634D01*
X18536Y5656D01*
X18542Y5714D01*
X18543Y5715D01*
X18635Y5808D01*
X18649Y5823D01*
X18659Y5841D01*
X18667Y5860D01*
X18672Y5880D01*
X18673Y5889D01*
X19696Y5889D01*
X19696Y6263D01*
X19489Y6263D01*
Y6495D01*
X19490Y6502D01*
X19489Y6509D01*
X19490Y6517D01*
X19489Y6524D01*
Y6764D01*
X19696Y6764D01*
X19696Y7129D01*
X18986Y7129D01*
X18982Y7132D01*
X18955Y7179D01*
X18957Y7183D01*
X18966Y7210D01*
X18972Y7238D01*
X18974Y7267D01*
X18972Y7296D01*
X18966Y7324D01*
X18957Y7351D01*
X18944Y7377D01*
X18928Y7401D01*
X18909Y7423D01*
X18887Y7442D01*
X18863Y7458D01*
X18844Y7468D01*
X18838Y7474D01*
X18836Y7476D01*
X18826Y7527D01*
X18833Y7536D01*
X18853Y7569D01*
X18870Y7604D01*
X18883Y7641D01*
X18892Y7679D01*
X18898Y7717D01*
X18900Y7756D01*
X18898Y7795D01*
X18892Y7833D01*
X18883Y7871D01*
X18870Y7907D01*
X18853Y7942D01*
X18833Y7976D01*
X18810Y8007D01*
X18784Y8036D01*
X18755Y8062D01*
X18724Y8085D01*
X18690Y8105D01*
X18655Y8122D01*
X18619Y8135D01*
X18581Y8144D01*
X18543Y8150D01*
X18504Y8152D01*
X18465Y8150D01*
X18427Y8144D01*
X18389Y8135D01*
X18352Y8122D01*
X18317Y8105D01*
X18284Y8085D01*
X18253Y8062D01*
X18224Y8036D01*
X18198Y8007D01*
X18175Y7976D01*
X18155Y7942D01*
X18138Y7907D01*
X18125Y7871D01*
X18116Y7833D01*
X18110Y7795D01*
X18108Y7756D01*
X18110Y7717D01*
X18116Y7679D01*
X18125Y7641D01*
X18138Y7604D01*
X18155Y7569D01*
X18175Y7536D01*
X18198Y7505D01*
X18224Y7476D01*
X18253Y7450D01*
X18255Y7449D01*
X18275Y7406D01*
X18265Y7380D01*
X18262Y7376D01*
X18249Y7350D01*
X18240Y7323D01*
X18234Y7294D01*
X18233Y7266D01*
X18234Y7237D01*
X18240Y7211D01*
X18240Y7208D01*
X18206Y7161D01*
X18131D01*
X18111Y7159D01*
X18092Y7153D01*
X18075Y7144D01*
X18060Y7132D01*
X18047Y7116D01*
X18038Y7099D01*
X18032Y7080D01*
X18030Y7061D01*
Y5958D01*
X18032Y5939D01*
X18038Y5920D01*
X18047Y5902D01*
X18060Y5887D01*
X18075Y5875D01*
X18092Y5865D01*
X18111Y5860D01*
X18131Y5858D01*
X18247D01*
X18267Y5826D01*
X18271Y5813D01*
X18271Y5808D01*
X18264Y5796D01*
X18256Y5777D01*
X18251Y5757D01*
X18250Y5737D01*
Y5677D01*
X18246Y5675D01*
X18224Y5656D01*
X18205Y5634D01*
X18189Y5610D01*
X18176Y5584D01*
X18167Y5557D01*
X18161Y5529D01*
X18160Y5500D01*
X18111Y5473D01*
X18111Y5473D01*
X18072Y5467D01*
X18035Y5457D01*
X17998Y5444D01*
X17963Y5428D01*
X17930Y5408D01*
X17899Y5385D01*
X17870Y5359D01*
X17844Y5330D01*
X17821Y5299D01*
X17801Y5265D01*
X17784Y5230D01*
X17771Y5194D01*
X17761Y5156D01*
X17756Y5118D01*
X17754Y5079D01*
X17756Y5040D01*
X17761Y5002D01*
X17771Y4964D01*
X17784Y4927D01*
X17801Y4892D01*
X17821Y4859D01*
X17844Y4828D01*
X17870Y4799D01*
X17899Y4773D01*
X17930Y4750D01*
X17963Y4730D01*
X17998Y4713D01*
X18035Y4700D01*
X18039Y4699D01*
X18073Y4661D01*
X18074Y4640D01*
X18071Y4629D01*
X18070Y4600D01*
X18071Y4571D01*
X18072Y4567D01*
X17904Y4398D01*
X16745D01*
X16726Y4444D01*
X17742Y5460D01*
X17756Y5476D01*
X17766Y5493D01*
X17774Y5512D01*
X17779Y5532D01*
X17780Y5553D01*
Y6668D01*
X17779Y6688D01*
X17774Y6708D01*
X17766Y6727D01*
X17756Y6745D01*
X17742Y6760D01*
X17048Y7454D01*
X17052Y7480D01*
X17068Y7489D01*
X17105Y7495D01*
X17122Y7476D01*
X17151Y7450D01*
X17182Y7427D01*
X17215Y7407D01*
X17250Y7390D01*
X17287Y7377D01*
X17324Y7368D01*
X17363Y7362D01*
X17402Y7360D01*
X17440Y7362D01*
X17479Y7368D01*
X17516Y7377D01*
X17553Y7390D01*
X17588Y7407D01*
X17621Y7427D01*
X17653Y7450D01*
X17681Y7476D01*
X17707Y7505D01*
X17731Y7536D01*
X17751Y7569D01*
X17767Y7604D01*
X17780Y7641D01*
X17790Y7679D01*
X17795Y7717D01*
X17797Y7756D01*
X17795Y7795D01*
X17790Y7833D01*
X17780Y7871D01*
X17767Y7907D01*
X17751Y7942D01*
X17731Y7976D01*
X17707Y8007D01*
X17681Y8036D01*
X17653Y8062D01*
X17621Y8085D01*
X17588Y8105D01*
X17553Y8122D01*
X17516Y8135D01*
X17479Y8144D01*
X17440Y8150D01*
X17402Y8152D01*
X17363Y8150D01*
X17324Y8144D01*
X17287Y8135D01*
X17250Y8122D01*
X17215Y8105D01*
X17182Y8085D01*
X17151Y8062D01*
X17122Y8036D01*
X17096Y8007D01*
X17086Y7994D01*
X17036Y8011D01*
Y10706D01*
X17034Y10727D01*
X17030Y10747D01*
X17022Y10766D01*
X17011Y10783D01*
X16998Y10799D01*
X13585Y14211D01*
Y14611D01*
X13697Y14722D01*
X13701Y14721D01*
X13730Y14720D01*
X13759Y14721D01*
X13787Y14727D01*
X13814Y14736D01*
X13840Y14749D01*
X13864Y14765D01*
X13886Y14784D01*
X13905Y14806D01*
X13921Y14830D01*
X13928Y14844D01*
X13976Y14829D01*
X13973Y14809D01*
X13968Y14747D01*
X13966Y14685D01*
X13968Y14623D01*
X13973Y14561D01*
X13982Y14500D01*
X13994Y14439D01*
X14010Y14379D01*
X14028Y14320D01*
X14051Y14262D01*
X14076Y14206D01*
X14104Y14151D01*
X14136Y14097D01*
X14170Y14046D01*
X14207Y13996D01*
X14247Y13949D01*
X14290Y13904D01*
X14335Y13862D01*
X14382Y13822D01*
X14432Y13784D01*
X14483Y13750D01*
X14537Y13718D01*
X14592Y13690D01*
X14648Y13665D01*
X14706Y13643D01*
X14765Y13624D01*
X14825Y13608D01*
X14886Y13596D01*
X14947Y13588D01*
X15009Y13582D01*
X15071Y13581D01*
X15133Y13582D01*
X15195Y13588D01*
X15256Y13596D01*
X15317Y13608D01*
X15377Y13624D01*
X15436Y13643D01*
X15493Y13665D01*
X15550Y13690D01*
X15605Y13718D01*
X15658Y13750D01*
X15710Y13784D01*
X15759Y13822D01*
X15807Y13862D01*
X15852Y13904D01*
X15894Y13949D01*
X15934Y13996D01*
X15972Y14046D01*
X16006Y14097D01*
X16037Y14151D01*
X16066Y14206D01*
X16091Y14262D01*
X16113Y14320D01*
X16132Y14379D01*
X16148Y14439D01*
X16160Y14500D01*
X16168Y14561D01*
X16173Y14623D01*
X16175Y14685D01*
X16173Y14747D01*
X16168Y14809D01*
X16160Y14870D01*
X16148Y14931D01*
X16132Y14991D01*
X16113Y15050D01*
X16091Y15108D01*
X16066Y15164D01*
X16037Y15219D01*
X16023Y15243D01*
X16063Y15274D01*
X16364Y14974D01*
D02*
G37*
G36*
X11967Y9605D02*
X11992Y9582D01*
X11992Y9562D01*
X11983Y9525D01*
X11976Y9520D01*
X11964Y9505D01*
X11954Y9487D01*
X11949Y9468D01*
X11947Y9449D01*
Y8898D01*
X11949Y8878D01*
X11954Y8859D01*
X11964Y8842D01*
X11976Y8827D01*
X11991Y8814D01*
X12009Y8805D01*
X12028Y8799D01*
X12047Y8797D01*
X13130D01*
X13150Y8799D01*
X13168Y8805D01*
X13186Y8814D01*
X13201Y8827D01*
X13213Y8842D01*
X13223Y8859D01*
X13228Y8878D01*
X13230Y8898D01*
Y9043D01*
X13317D01*
X13410Y8950D01*
Y8804D01*
X13297Y8692D01*
X12184D01*
X12163Y8690D01*
X12143Y8685D01*
X12125Y8677D01*
X12107Y8667D01*
X12092Y8653D01*
X11609Y8170D01*
X10968D01*
X10391Y8747D01*
X10412Y8797D01*
X10472D01*
X10492Y8799D01*
X10511Y8805D01*
X10528Y8814D01*
X10543Y8827D01*
X10556Y8842D01*
X10565Y8859D01*
X10613Y8847D01*
X10641Y8841D01*
X10670Y8840D01*
X10699Y8841D01*
X10727Y8847D01*
X10754Y8856D01*
X10780Y8869D01*
X10804Y8885D01*
X10826Y8904D01*
X10845Y8926D01*
X10848Y8931D01*
X10899Y8941D01*
X10911Y8938D01*
X10979Y8871D01*
X10997Y8855D01*
X11017Y8843D01*
X11039Y8834D01*
X11062Y8829D01*
X11085Y8827D01*
X11330D01*
X11354Y8829D01*
X11377Y8834D01*
X11398Y8843D01*
X11419Y8855D01*
X11437Y8871D01*
X11450Y8884D01*
X11461Y8881D01*
X11490Y8880D01*
X11519Y8881D01*
X11547Y8887D01*
X11574Y8896D01*
X11600Y8909D01*
X11624Y8925D01*
X11646Y8944D01*
X11665Y8966D01*
X11681Y8990D01*
X11694Y9016D01*
X11703Y9043D01*
X11709Y9071D01*
X11710Y9100D01*
X11710Y9112D01*
X11719Y9126D01*
X11729Y9147D01*
X11736Y9169D01*
X11741Y9191D01*
X11742Y9214D01*
Y9535D01*
X11791Y9571D01*
X11792Y9571D01*
X11820Y9570D01*
X11849Y9571D01*
X11877Y9577D01*
X11904Y9586D01*
X11930Y9599D01*
X11954Y9615D01*
X11967Y9605D01*
D02*
G37*
G36*
X15807Y8878D02*
X15815Y8866D01*
X15834Y8844D01*
X15856Y8825D01*
X15880Y8809D01*
X15906Y8796D01*
X15933Y8787D01*
X15956Y8783D01*
Y8439D01*
X15843Y8326D01*
X15835Y8324D01*
X15783Y8337D01*
X15781Y8340D01*
X15765Y8364D01*
X15746Y8386D01*
X15724Y8405D01*
X15700Y8421D01*
X15674Y8434D01*
X15647Y8443D01*
X15619Y8449D01*
X15590Y8450D01*
X15561Y8449D01*
X15533Y8443D01*
X15506Y8434D01*
X15480Y8421D01*
X15456Y8405D01*
X15434Y8386D01*
X15415Y8364D01*
X15399Y8340D01*
X15386Y8314D01*
X15377Y8287D01*
X15371Y8259D01*
X15370Y8230D01*
X15371Y8201D01*
X15377Y8173D01*
X15386Y8146D01*
X15399Y8120D01*
X15415Y8096D01*
X15434Y8074D01*
X15456Y8055D01*
X15466Y8049D01*
Y7317D01*
X15467Y7297D01*
X15472Y7277D01*
X15480Y7258D01*
X15490Y7240D01*
X15504Y7225D01*
X15859Y6870D01*
X15874Y6856D01*
X15892Y6846D01*
X15911Y6838D01*
X15931Y6833D01*
X15951Y6832D01*
X16469D01*
X16922Y6379D01*
Y6029D01*
X16890Y5980D01*
X16861Y5979D01*
X16833Y5973D01*
X16806Y5964D01*
X16780Y5951D01*
X16756Y5935D01*
X16734Y5916D01*
X16715Y5894D01*
X16699Y5870D01*
X16686Y5844D01*
X16677Y5817D01*
X16671Y5789D01*
X16670Y5760D01*
X16671Y5731D01*
X16677Y5703D01*
X16686Y5676D01*
X16699Y5650D01*
X16715Y5626D01*
X16734Y5604D01*
X16756Y5585D01*
X16758Y5583D01*
X16770Y5524D01*
X16089Y4843D01*
X14309D01*
X14308Y4849D01*
X14303Y4870D01*
X14295Y4890D01*
X14285Y4906D01*
X14295Y4921D01*
X14303Y4941D01*
X14308Y4962D01*
X14310Y4984D01*
X14327Y5003D01*
X15518D01*
X15540Y5004D01*
X15563Y5010D01*
X15584Y5018D01*
X15603Y5030D01*
X15620Y5045D01*
X15717Y5142D01*
X15724Y5136D01*
X15741Y5125D01*
X15759Y5117D01*
X15778Y5114D01*
X15798Y5114D01*
X15817Y5118D01*
X15835Y5126D01*
X15852Y5137D01*
X16078Y5327D01*
X16092Y5341D01*
X16102Y5357D01*
X16110Y5376D01*
X16113Y5395D01*
X16113Y5415D01*
X16110Y5432D01*
X16114Y5438D01*
X16143Y5462D01*
X16150Y5466D01*
X16166Y5459D01*
X16185Y5455D01*
X16205Y5456D01*
X16224Y5460D01*
X16243Y5467D01*
X16259Y5479D01*
X16334Y5541D01*
X16168Y5739D01*
X16206Y5771D01*
X16174Y5809D01*
X16364Y5969D01*
X16295Y6051D01*
X16281Y6065D01*
X16264Y6076D01*
X16246Y6083D01*
X16227Y6087D01*
X16207Y6087D01*
X16188Y6082D01*
X16170Y6075D01*
X16153Y6064D01*
X16113Y6030D01*
X16101Y6029D01*
X16055Y6046D01*
X16055Y6046D01*
X16044Y6062D01*
X15918Y6213D01*
X15903Y6226D01*
X15887Y6237D01*
X15869Y6245D01*
X15849Y6248D01*
X15830Y6248D01*
X15810Y6244D01*
X15792Y6236D01*
X15776Y6225D01*
X15580Y6061D01*
X15566Y6047D01*
X15555Y6030D01*
X15548Y6012D01*
X15547Y6008D01*
X15543Y6008D01*
X15524Y6004D01*
X15506Y5996D01*
X15489Y5985D01*
X15293Y5820D01*
X15280Y5806D01*
X15269Y5790D01*
X15262Y5771D01*
X15258Y5752D01*
X15258Y5732D01*
X15262Y5713D01*
X15262Y5713D01*
X15218Y5669D01*
X14961D01*
X14941Y5667D01*
X14922Y5661D01*
X14905Y5652D01*
X14890Y5639D01*
X14877Y5624D01*
X14869Y5609D01*
X14861Y5606D01*
X14824D01*
X14816Y5609D01*
X14808Y5624D01*
X14796Y5639D01*
X14780Y5652D01*
X14763Y5661D01*
X14744Y5667D01*
X14724Y5669D01*
X14429D01*
X14410Y5667D01*
X14391Y5661D01*
X14373Y5652D01*
X14358Y5639D01*
X14346Y5624D01*
X14336Y5606D01*
X14331Y5588D01*
X14329Y5568D01*
Y5560D01*
X14298Y5546D01*
X14279Y5544D01*
X14269Y5556D01*
X14252Y5570D01*
X14234Y5581D01*
X14217Y5588D01*
Y6179D01*
X14218Y6179D01*
X14236Y6184D01*
X14254Y6194D01*
X14269Y6206D01*
X14282Y6221D01*
X14291Y6239D01*
X14297Y6258D01*
X14299Y6277D01*
Y6411D01*
X14357Y6470D01*
X14367Y6470D01*
X14395Y6476D01*
X14423Y6485D01*
X14448Y6498D01*
X14472Y6514D01*
X14494Y6533D01*
X14513Y6555D01*
X14529Y6579D01*
X14542Y6605D01*
X14551Y6632D01*
X14557Y6659D01*
X14844Y6947D01*
X14859Y6964D01*
X14872Y6983D01*
X14882Y7004D01*
X14889Y7025D01*
X14894Y7048D01*
X14895Y7071D01*
Y8037D01*
X15745Y8887D01*
X15770Y8888D01*
X15807Y8878D01*
D02*
G37*
G36*
X11404Y6735D02*
X11385Y6688D01*
X11335D01*
X11324Y6694D01*
X11297Y6703D01*
X11269Y6709D01*
X11240Y6710D01*
X11211Y6709D01*
X11183Y6703D01*
X11156Y6694D01*
X11130Y6681D01*
X11106Y6665D01*
X11084Y6646D01*
X11065Y6624D01*
X11049Y6600D01*
X11036Y6574D01*
X11027Y6547D01*
X11021Y6519D01*
X11020Y6490D01*
X11021Y6461D01*
X11027Y6433D01*
X11036Y6406D01*
X11049Y6380D01*
X11065Y6356D01*
X11084Y6334D01*
X11106Y6315D01*
X11130Y6299D01*
X11156Y6286D01*
X11183Y6277D01*
X11211Y6271D01*
X11240Y6270D01*
X11269Y6271D01*
X11275Y6273D01*
X11277Y6263D01*
X11286Y6236D01*
X11299Y6210D01*
X11315Y6186D01*
X11324Y6176D01*
X11310Y6136D01*
X11302Y6126D01*
X11182D01*
X11163Y6124D01*
X11144Y6118D01*
X11126Y6109D01*
X11111Y6097D01*
X11099Y6081D01*
X11089Y6064D01*
X11084Y6045D01*
X11082Y6026D01*
Y5957D01*
X11281D01*
Y5857D01*
X11082D01*
Y5789D01*
X11084Y5770D01*
X11089Y5751D01*
X11099Y5733D01*
X11108Y5711D01*
X11099Y5688D01*
X11089Y5670D01*
X11084Y5651D01*
X11082Y5632D01*
Y5504D01*
X11035Y5485D01*
X10958Y5563D01*
Y7115D01*
X11004Y7134D01*
X11404Y6735D01*
D02*
G37*
G36*
X11721Y5998D02*
X11718Y5962D01*
X11709Y5940D01*
X11690Y5931D01*
X11666Y5915D01*
X11644Y5896D01*
X11639Y5890D01*
X11560D01*
X11536Y5889D01*
X11529Y5887D01*
X11492Y5908D01*
X11479Y5923D01*
Y6026D01*
X11478Y6045D01*
X11476Y6050D01*
X11480Y6066D01*
X11491Y6083D01*
X11509Y6101D01*
X11519Y6101D01*
X11547Y6107D01*
X11574Y6116D01*
X11594Y6126D01*
X11721Y5998D01*
D02*
G37*
G36*
X13093Y6799D02*
X13111Y6789D01*
X13130Y6784D01*
X13149Y6782D01*
X13210D01*
Y6537D01*
X13163Y6518D01*
X12946Y6735D01*
X12965Y6782D01*
X12992D01*
X13011Y6784D01*
X13030Y6789D01*
X13048Y6799D01*
X13071Y6808D01*
X13093Y6799D01*
D02*
G37*
G36*
X10403Y19706D02*
X9969Y19272D01*
X9957Y19276D01*
X9920Y19286D01*
X9881Y19291D01*
X9843Y19293D01*
X9804Y19291D01*
X9765Y19286D01*
X9728Y19276D01*
X9691Y19263D01*
X9656Y19247D01*
X9623Y19227D01*
X9591Y19204D01*
X9563Y19177D01*
X9537Y19149D01*
X9513Y19118D01*
X9493Y19084D01*
X9477Y19049D01*
X9464Y19013D01*
X9454Y18975D01*
X9449Y18936D01*
X9448Y18923D01*
X9447Y18922D01*
X9397Y18907D01*
X9392Y18913D01*
X9392Y18913D01*
X9265Y19039D01*
X9246Y19057D01*
X9224Y19071D01*
X9200Y19083D01*
X9176Y19091D01*
X9150Y19096D01*
X9124Y19098D01*
X9002D01*
X8990Y19118D01*
X8967Y19149D01*
X8941Y19177D01*
X8912Y19204D01*
X8881Y19227D01*
X8848Y19247D01*
X8813Y19263D01*
X8776Y19276D01*
X8739Y19286D01*
X8700Y19291D01*
X8661Y19293D01*
X8623Y19291D01*
X8584Y19286D01*
X8547Y19276D01*
X8510Y19263D01*
X8475Y19247D01*
X8442Y19227D01*
X8410Y19204D01*
X8382Y19177D01*
X8356Y19149D01*
X8332Y19118D01*
X8312Y19084D01*
X8296Y19049D01*
X8283Y19013D01*
X8273Y18975D01*
X8268Y18936D01*
X8266Y18898D01*
X8268Y18859D01*
X8273Y18820D01*
X8283Y18783D01*
X8296Y18746D01*
X8312Y18711D01*
X8332Y18678D01*
X8356Y18647D01*
X8382Y18618D01*
X8410Y18592D01*
X8442Y18569D01*
X8475Y18549D01*
X8510Y18532D01*
X8547Y18519D01*
X8584Y18509D01*
X8623Y18504D01*
X8661Y18502D01*
X8700Y18504D01*
X8739Y18509D01*
X8776Y18519D01*
X8813Y18532D01*
X8848Y18549D01*
X8881Y18569D01*
X8912Y18592D01*
X8941Y18618D01*
X8967Y18647D01*
X8968Y18647D01*
X9031Y18656D01*
X9035Y18654D01*
X9050Y18640D01*
Y17911D01*
X9046Y17904D01*
X9037Y17877D01*
X9031Y17849D01*
X9030Y17820D01*
X9031Y17791D01*
X9037Y17763D01*
X9046Y17736D01*
X9059Y17710D01*
X9075Y17686D01*
X9094Y17664D01*
X9116Y17645D01*
X9140Y17629D01*
X9166Y17616D01*
X9193Y17607D01*
X9221Y17601D01*
X9250Y17600D01*
X9279Y17601D01*
X9307Y17607D01*
X9334Y17616D01*
X9360Y17629D01*
X9384Y17645D01*
X9406Y17664D01*
X9425Y17686D01*
X9441Y17710D01*
X9454Y17736D01*
X9463Y17763D01*
X9469Y17791D01*
X9470Y17820D01*
X9469Y17849D01*
X9463Y17877D01*
X9454Y17904D01*
X9450Y17911D01*
Y18687D01*
X9500Y18700D01*
X9513Y18678D01*
X9537Y18647D01*
X9563Y18618D01*
X9591Y18592D01*
X9623Y18569D01*
X9656Y18549D01*
X9691Y18532D01*
X9728Y18519D01*
X9735Y18517D01*
Y17544D01*
X9600Y17409D01*
X9600Y17409D01*
X9506Y17315D01*
X8256D01*
X8089Y17482D01*
X8067Y17502D01*
X8043Y17518D01*
X8016Y17531D01*
X7988Y17541D01*
X7959Y17546D01*
X7930Y17548D01*
X7930Y17548D01*
X7355D01*
X7334Y17571D01*
X7309Y17594D01*
X7281Y17614D01*
X7252Y17632D01*
X7221Y17647D01*
X7188Y17658D01*
X7155Y17667D01*
X7121Y17672D01*
X7087Y17673D01*
X7052Y17672D01*
X7018Y17667D01*
X6985Y17658D01*
X6953Y17647D01*
X6921Y17632D01*
X6892Y17614D01*
X6864Y17594D01*
X6839Y17571D01*
X6816Y17545D01*
X6795Y17518D01*
X6778Y17488D01*
X6763Y17457D01*
X6751Y17425D01*
X6743Y17391D01*
X6738Y17357D01*
X6736Y17323D01*
X6738Y17288D01*
X6743Y17254D01*
X6751Y17221D01*
X6763Y17189D01*
X6778Y17158D01*
X6795Y17128D01*
X6816Y17101D01*
X6839Y17075D01*
X6864Y17052D01*
X6892Y17031D01*
X6921Y17014D01*
X6953Y16999D01*
X6985Y16988D01*
X7018Y16979D01*
X7052Y16974D01*
X7087Y16972D01*
X7121Y16974D01*
X7155Y16979D01*
X7188Y16988D01*
X7221Y16999D01*
X7252Y17014D01*
X7281Y17031D01*
X7309Y17052D01*
X7334Y17075D01*
X7355Y17097D01*
X7837D01*
X8003Y16931D01*
X8026Y16911D01*
X8050Y16895D01*
X8077Y16882D01*
X8104Y16872D01*
X8133Y16866D01*
X8163Y16865D01*
X8163Y16865D01*
X9296D01*
X9311Y16861D01*
X9329Y16860D01*
X9337Y16854D01*
X9348Y16840D01*
X9359Y16811D01*
X9356Y16804D01*
X9347Y16777D01*
X9341Y16749D01*
X9340Y16720D01*
X9341Y16691D01*
X9347Y16663D01*
X9356Y16636D01*
X9369Y16610D01*
X9385Y16586D01*
X9404Y16564D01*
X9426Y16545D01*
X9450Y16529D01*
X9476Y16516D01*
X9503Y16507D01*
X9531Y16501D01*
X9560Y16500D01*
X9589Y16501D01*
X9617Y16507D01*
X9644Y16516D01*
X9670Y16529D01*
X9694Y16545D01*
X9716Y16564D01*
X9735Y16586D01*
X9751Y16610D01*
X9764Y16636D01*
X9773Y16663D01*
X9779Y16691D01*
X9780Y16720D01*
X9779Y16749D01*
X9778Y16753D01*
X9931Y16907D01*
X10097D01*
X10109Y16897D01*
X10130Y16857D01*
X10127Y16847D01*
X10121Y16819D01*
X10120Y16790D01*
X10121Y16761D01*
X10127Y16733D01*
X10136Y16706D01*
X10149Y16680D01*
X10165Y16656D01*
X10184Y16634D01*
X10206Y16615D01*
X10230Y16599D01*
X10256Y16586D01*
X10283Y16577D01*
X10311Y16571D01*
X10340Y16570D01*
X10369Y16571D01*
X10397Y16577D01*
X10424Y16586D01*
X10450Y16599D01*
X10474Y16615D01*
X10496Y16634D01*
X10515Y16656D01*
X10531Y16680D01*
X10536Y16690D01*
X10913D01*
X10915Y16686D01*
X10934Y16664D01*
X10956Y16645D01*
X10980Y16629D01*
X11006Y16616D01*
X11033Y16607D01*
X11061Y16601D01*
X11071Y16589D01*
X11069Y16570D01*
X11067Y16535D01*
X11069Y16501D01*
X11074Y16467D01*
X11082Y16434D01*
X11094Y16401D01*
X11108Y16370D01*
X11126Y16341D01*
X11146Y16313D01*
X11170Y16288D01*
X11195Y16265D01*
X11223Y16244D01*
X11252Y16226D01*
X11283Y16212D01*
X11316Y16200D01*
X11349Y16192D01*
X11383Y16187D01*
X11417Y16185D01*
X11452Y16187D01*
X11486Y16192D01*
X11519Y16200D01*
X11551Y16212D01*
X11583Y16226D01*
X11612Y16244D01*
X11640Y16265D01*
X11665Y16288D01*
X11688Y16313D01*
X11709Y16341D01*
X11717Y16355D01*
X11767Y16342D01*
Y16110D01*
X11738Y16091D01*
X11717Y16085D01*
X11706Y16091D01*
X11687Y16097D01*
X11667Y16099D01*
X11167D01*
X11148Y16097D01*
X11129Y16091D01*
X11112Y16082D01*
X11096Y16069D01*
X11084Y16054D01*
X11074Y16036D01*
X11069Y16018D01*
X11067Y15998D01*
Y15679D01*
X11062Y15669D01*
X11025Y15634D01*
X8171D01*
X7408Y16397D01*
X7410Y16401D01*
X7422Y16434D01*
X7430Y16467D01*
X7435Y16501D01*
X7437Y16535D01*
X7435Y16570D01*
X7430Y16604D01*
X7422Y16637D01*
X7410Y16670D01*
X7396Y16701D01*
X7378Y16730D01*
X7357Y16758D01*
X7334Y16783D01*
X7309Y16806D01*
X7281Y16827D01*
X7252Y16844D01*
X7221Y16859D01*
X7188Y16871D01*
X7155Y16879D01*
X7121Y16884D01*
X7087Y16886D01*
X7052Y16884D01*
X7018Y16879D01*
X6985Y16871D01*
X6953Y16859D01*
X6921Y16844D01*
X6892Y16827D01*
X6864Y16806D01*
X6839Y16783D01*
X6816Y16758D01*
X6795Y16730D01*
X6778Y16701D01*
X6763Y16670D01*
X6751Y16637D01*
X6743Y16604D01*
X6738Y16570D01*
X6736Y16535D01*
X6738Y16501D01*
X6743Y16467D01*
X6751Y16434D01*
X6763Y16401D01*
X6778Y16370D01*
X6795Y16341D01*
X6816Y16313D01*
X6839Y16288D01*
X6864Y16265D01*
X6892Y16244D01*
X6921Y16226D01*
X6953Y16212D01*
X6985Y16200D01*
X7018Y16192D01*
X7052Y16187D01*
X7087Y16185D01*
X7121Y16187D01*
X7155Y16192D01*
X7188Y16200D01*
X7221Y16212D01*
X7225Y16214D01*
X7291Y16149D01*
X7270Y16099D01*
X6837D01*
X6817Y16097D01*
X6798Y16091D01*
X6781Y16082D01*
X6766Y16069D01*
X6753Y16054D01*
X6744Y16036D01*
X6738Y16018D01*
X6736Y15998D01*
Y15498D01*
X6738Y15478D01*
X6744Y15460D01*
X6753Y15442D01*
X6766Y15427D01*
X6781Y15414D01*
X6798Y15405D01*
X6817Y15399D01*
X6837Y15398D01*
X7337D01*
X7356Y15399D01*
X7375Y15405D01*
X7392Y15414D01*
X7408Y15427D01*
X7420Y15442D01*
X7429Y15460D01*
X7435Y15478D01*
X7437Y15498D01*
Y15619D01*
X7657D01*
X7766Y15510D01*
X7754Y15470D01*
X7747Y15458D01*
X7723Y15453D01*
X7696Y15444D01*
X7670Y15431D01*
X7646Y15415D01*
X7624Y15396D01*
X7605Y15374D01*
X7589Y15350D01*
X7576Y15324D01*
X7567Y15297D01*
X7561Y15269D01*
X7560Y15253D01*
X7544Y15230D01*
X7511Y15210D01*
X7500Y15210D01*
X7471Y15209D01*
X7443Y15203D01*
X7416Y15194D01*
X7390Y15181D01*
X7366Y15165D01*
X7344Y15146D01*
X7325Y15124D01*
X7309Y15100D01*
X7296Y15074D01*
X7294Y15067D01*
X7158Y14932D01*
X7141Y14912D01*
X7126Y14890D01*
X7115Y14867D01*
X7106Y14842D01*
X7101Y14816D01*
X7100Y14790D01*
Y13941D01*
X7080Y13929D01*
X7049Y13906D01*
X7020Y13880D01*
X6994Y13851D01*
X6971Y13820D01*
X6951Y13787D01*
X6934Y13751D01*
X6921Y13715D01*
X6912Y13677D01*
X6906Y13639D01*
X6904Y13600D01*
X6906Y13561D01*
X6912Y13523D01*
X6921Y13485D01*
X6934Y13449D01*
X6951Y13413D01*
X6971Y13380D01*
X6994Y13349D01*
X7020Y13320D01*
X7049Y13294D01*
X7080Y13271D01*
X7113Y13251D01*
X7149Y13234D01*
X7185Y13221D01*
X7223Y13212D01*
X7261Y13206D01*
X7300Y13204D01*
X7339Y13206D01*
X7377Y13212D01*
X7415Y13221D01*
X7451Y13234D01*
X7487Y13251D01*
X7520Y13271D01*
X7551Y13294D01*
X7580Y13320D01*
X7606Y13349D01*
X7629Y13380D01*
X7649Y13413D01*
X7666Y13449D01*
X7679Y13485D01*
X7688Y13523D01*
X7694Y13561D01*
X7696Y13600D01*
X7694Y13639D01*
X7688Y13677D01*
X7679Y13715D01*
X7666Y13751D01*
X7649Y13787D01*
X7629Y13820D01*
X7606Y13851D01*
X7580Y13880D01*
X7551Y13906D01*
X7520Y13929D01*
X7500Y13941D01*
Y14707D01*
X7555Y14762D01*
X8117D01*
X8191Y14688D01*
X8191Y14688D01*
X8210Y14671D01*
X8232Y14656D01*
X8256Y14645D01*
X8280Y14636D01*
X8306Y14631D01*
X8332Y14630D01*
X8523D01*
X8537Y14614D01*
X8563Y14591D01*
X8591Y14571D01*
X8621Y14555D01*
X8652Y14542D01*
X8677Y14534D01*
X8726Y14523D01*
X8751Y14506D01*
X8765Y14490D01*
Y13554D01*
X8746Y13540D01*
X8725Y13550D01*
X8300D01*
X7904D01*
Y13347D01*
X7872D01*
X7849Y13346D01*
X7826Y13341D01*
X7805Y13334D01*
X7784Y13324D01*
X7765Y13311D01*
X7748Y13296D01*
X7427Y12975D01*
X7415Y12979D01*
X7377Y12988D01*
X7339Y12994D01*
X7300Y12996D01*
X7261Y12994D01*
X7223Y12988D01*
X7185Y12979D01*
X7149Y12966D01*
X7113Y12949D01*
X7080Y12929D01*
X7049Y12906D01*
X7020Y12880D01*
X6994Y12851D01*
X6971Y12820D01*
X6951Y12787D01*
X6934Y12751D01*
X6921Y12715D01*
X6912Y12677D01*
X6906Y12639D01*
X6904Y12600D01*
X6906Y12561D01*
X6912Y12523D01*
X6921Y12485D01*
X6934Y12449D01*
X6951Y12413D01*
X6971Y12380D01*
X6994Y12349D01*
X7020Y12320D01*
X7049Y12294D01*
X7080Y12271D01*
X7113Y12251D01*
X7149Y12234D01*
X7185Y12221D01*
X7223Y12212D01*
X7261Y12206D01*
X7300Y12204D01*
X7339Y12206D01*
X7377Y12212D01*
X7415Y12221D01*
X7451Y12234D01*
X7487Y12251D01*
X7520Y12271D01*
X7551Y12294D01*
X7576Y12316D01*
X7592Y12314D01*
X7625Y12296D01*
Y12074D01*
X7585Y12033D01*
X7572Y12018D01*
X7561Y12000D01*
X7560Y11997D01*
X7543Y11986D01*
X7521Y11967D01*
X7492Y11950D01*
X7458Y11968D01*
X7439Y11981D01*
X7413Y11994D01*
X7385Y12003D01*
X7357Y12009D01*
X7328Y12010D01*
X7300Y12009D01*
X7271Y12003D01*
X7244Y11994D01*
X7218Y11981D01*
X7194Y11965D01*
X7180Y11953D01*
X6680Y12452D01*
Y13439D01*
X6686Y13444D01*
X6705Y13466D01*
X6721Y13490D01*
X6734Y13516D01*
X6743Y13543D01*
X6749Y13571D01*
X6750Y13600D01*
X6749Y13629D01*
X6743Y13657D01*
X6734Y13684D01*
X6721Y13710D01*
X6705Y13734D01*
X6686Y13756D01*
X6664Y13775D01*
X6640Y13791D01*
X6614Y13804D01*
X6587Y13813D01*
X6559Y13819D01*
X6530Y13820D01*
X6503Y13819D01*
X6501Y13819D01*
X6453Y13855D01*
Y14094D01*
X6454Y14095D01*
X6476Y14114D01*
X6495Y14136D01*
X6511Y14160D01*
X6524Y14186D01*
X6533Y14213D01*
X6539Y14241D01*
X6540Y14270D01*
X6539Y14299D01*
X6533Y14327D01*
X6524Y14354D01*
X6511Y14380D01*
X6495Y14404D01*
X6476Y14426D01*
X6454Y14445D01*
X6430Y14461D01*
X6404Y14474D01*
X6377Y14483D01*
X6349Y14489D01*
X6320Y14490D01*
X6293Y14489D01*
X6291Y14489D01*
X6243Y14525D01*
Y14837D01*
X6245Y14840D01*
X6274Y14841D01*
X6302Y14847D01*
X6329Y14856D01*
X6355Y14869D01*
X6379Y14885D01*
X6401Y14904D01*
X6420Y14926D01*
X6436Y14950D01*
X6448Y14976D01*
X6458Y15003D01*
X6463Y15031D01*
X6465Y15060D01*
X6463Y15089D01*
X6458Y15117D01*
X6448Y15144D01*
X6436Y15170D01*
X6420Y15194D01*
X6401Y15216D01*
X6379Y15235D01*
X6355Y15251D01*
X6329Y15264D01*
X6302Y15273D01*
X6274Y15279D01*
X6245Y15280D01*
X6216Y15279D01*
X6188Y15273D01*
X6160Y15264D01*
X6135Y15251D01*
X6111Y15235D01*
X6089Y15216D01*
X6070Y15194D01*
X6054Y15170D01*
X6041Y15144D01*
X6032Y15117D01*
X6026Y15089D01*
X6024Y15060D01*
X6026Y15031D01*
X6027Y15026D01*
X6022Y15020D01*
X6008Y15004D01*
X5998Y14987D01*
X5990Y14968D01*
X5985Y14949D01*
X5984Y14928D01*
Y14184D01*
X5985Y14164D01*
X5990Y14144D01*
X5998Y14126D01*
X6008Y14108D01*
X6022Y14093D01*
X6076Y14039D01*
Y13435D01*
X6077Y13414D01*
X6082Y13395D01*
X6090Y13376D01*
X6101Y13359D01*
X6114Y13343D01*
X6146Y13311D01*
Y12839D01*
X6113Y12806D01*
X5654D01*
X5634Y12805D01*
X5614Y12800D01*
X5596Y12792D01*
X5578Y12782D01*
X5563Y12768D01*
X5249Y12454D01*
X5235Y12439D01*
X5225Y12421D01*
X5223Y12416D01*
X5206Y12405D01*
X5184Y12386D01*
X5165Y12364D01*
X5149Y12340D01*
X5136Y12314D01*
X5127Y12287D01*
X5121Y12259D01*
X5120Y12230D01*
X5121Y12201D01*
X5127Y12173D01*
X5136Y12146D01*
X5149Y12120D01*
X5165Y12096D01*
X5184Y12074D01*
X5206Y12055D01*
X5230Y12039D01*
X5256Y12026D01*
X5283Y12017D01*
X5311Y12011D01*
X5340Y12010D01*
X5369Y12011D01*
X5397Y12017D01*
X5424Y12026D01*
X5450Y12039D01*
X5474Y12055D01*
X5496Y12074D01*
X5515Y12096D01*
X5531Y12120D01*
X5543Y12144D01*
X5563Y12137D01*
X5591Y12131D01*
X5620Y12130D01*
X5649Y12131D01*
X5674Y12136D01*
X5687Y12133D01*
X5708Y12132D01*
X6070D01*
X6176Y12026D01*
X6153Y11980D01*
X6138Y11986D01*
X6151Y11979D01*
X6153Y11979D01*
X6151Y11979D01*
X6134Y11988D01*
X6115Y11994D01*
X6095Y11996D01*
X5850D01*
Y11650D01*
X6196D01*
Y11895D01*
X6194Y11915D01*
X6188Y11934D01*
X6179Y11951D01*
X6179Y11953D01*
X6179Y11951D01*
X6186Y11938D01*
X6180Y11953D01*
X6226Y11976D01*
X6948Y11254D01*
X6964Y11241D01*
X6981Y11230D01*
X7000Y11222D01*
X7020Y11218D01*
X7040Y11216D01*
X8056D01*
X8056Y11216D01*
X8069Y11190D01*
X8085Y11166D01*
X8104Y11144D01*
X8126Y11125D01*
X8150Y11109D01*
X8176Y11096D01*
X8203Y11087D01*
X8231Y11081D01*
X8260Y11080D01*
X8289Y11081D01*
X8317Y11087D01*
X8344Y11096D01*
X8370Y11109D01*
X8394Y11125D01*
X8416Y11144D01*
X8435Y11166D01*
X8437Y11170D01*
X8545D01*
X8587Y11128D01*
X8603Y11114D01*
X8620Y11104D01*
X8639Y11096D01*
X8659Y11091D01*
X8679Y11090D01*
X9255D01*
X9264Y11084D01*
X9290Y11045D01*
X9291Y11040D01*
X9289Y11024D01*
Y10798D01*
X9881D01*
Y11124D01*
X9665D01*
X9644Y11174D01*
X10289Y11820D01*
X10403D01*
X10405Y11816D01*
X10424Y11794D01*
X10446Y11775D01*
X10470Y11759D01*
X10496Y11746D01*
X10523Y11737D01*
X10551Y11731D01*
X10580Y11730D01*
X10609Y11731D01*
X10637Y11737D01*
X10664Y11746D01*
X10690Y11759D01*
X10714Y11775D01*
X10736Y11794D01*
X10755Y11816D01*
X10771Y11840D01*
X10784Y11866D01*
X10793Y11893D01*
X10799Y11921D01*
X10800Y11950D01*
X10799Y11979D01*
X10793Y12007D01*
X10784Y12034D01*
X10771Y12060D01*
X10755Y12084D01*
X10736Y12106D01*
X10714Y12125D01*
X10690Y12141D01*
X10664Y12154D01*
X10637Y12163D01*
X10609Y12169D01*
X10580Y12170D01*
X10551Y12169D01*
X10523Y12163D01*
X10496Y12154D01*
X10470Y12141D01*
X10446Y12125D01*
X10424Y12106D01*
X10405Y12084D01*
X10403Y12080D01*
X10235D01*
X10215Y12079D01*
X10195Y12074D01*
X10176Y12066D01*
X10167Y12060D01*
X10141Y12060D01*
X10108Y12068D01*
X10103Y12073D01*
X10095Y12084D01*
X10076Y12106D01*
X10054Y12125D01*
X10030Y12141D01*
X10004Y12154D01*
X9977Y12163D01*
X9949Y12169D01*
X9920Y12170D01*
X9891Y12169D01*
X9863Y12163D01*
X9836Y12154D01*
X9810Y12141D01*
X9786Y12125D01*
X9764Y12106D01*
X9745Y12084D01*
X9729Y12060D01*
X9716Y12034D01*
X9707Y12007D01*
X9701Y11979D01*
X9700Y11950D01*
X9701Y11921D01*
X9707Y11893D01*
X9716Y11866D01*
X9729Y11840D01*
X9745Y11816D01*
X9747Y11813D01*
X9412Y11477D01*
X9329D01*
X9295Y11521D01*
X9294Y11527D01*
X9299Y11551D01*
X9300Y11580D01*
X9299Y11609D01*
X9293Y11637D01*
X9284Y11664D01*
X9271Y11690D01*
X9255Y11714D01*
X9236Y11736D01*
X9214Y11755D01*
X9190Y11771D01*
X9164Y11784D01*
X9137Y11793D01*
X9109Y11799D01*
X9100Y11799D01*
Y12257D01*
X9115Y12274D01*
X9131Y12298D01*
X9144Y12324D01*
X9153Y12351D01*
X9159Y12379D01*
X9160Y12408D01*
X9159Y12437D01*
X9153Y12465D01*
X9144Y12492D01*
X9131Y12518D01*
X9115Y12542D01*
X9096Y12564D01*
X9074Y12583D01*
X9050Y12599D01*
X9024Y12612D01*
X8997Y12621D01*
X8969Y12627D01*
X8940Y12629D01*
X8911Y12627D01*
X8883Y12621D01*
X8856Y12612D01*
X8830Y12599D01*
X8806Y12583D01*
X8784Y12564D01*
X8765Y12542D01*
X8749Y12518D01*
X8746Y12512D01*
X8696Y12523D01*
Y12550D01*
X8350D01*
Y12204D01*
X8595D01*
X8615Y12206D01*
X8634Y12212D01*
X8651Y12221D01*
X8666Y12234D01*
X8679Y12249D01*
X8688Y12266D01*
X8694Y12285D01*
X8695Y12295D01*
X8719Y12305D01*
X8746Y12305D01*
X8749Y12298D01*
X8765Y12274D01*
X8784Y12252D01*
X8806Y12233D01*
X8830Y12217D01*
X8840Y12212D01*
Y11843D01*
X8828Y11827D01*
X8790Y11800D01*
X8780Y11800D01*
X8751Y11799D01*
X8747Y11798D01*
X8724Y11820D01*
X8709Y11833D01*
X8691Y11844D01*
X8672Y11852D01*
X8652Y11857D01*
X8632Y11858D01*
X8222D01*
X8201Y11857D01*
X8181Y11852D01*
X8163Y11844D01*
X8145Y11833D01*
X8130Y11820D01*
X8022Y11713D01*
X7929D01*
X7904Y11739D01*
X7892Y11763D01*
X7896Y11782D01*
X7898Y11811D01*
X7896Y11840D01*
X7890Y11868D01*
X7881Y11895D01*
X7868Y11921D01*
X7857Y11938D01*
X7861Y11943D01*
X7872Y11961D01*
X7880Y11980D01*
X7885Y12000D01*
X7886Y12020D01*
Y12213D01*
X7925Y12230D01*
X7936Y12232D01*
X7949Y12221D01*
X7966Y12212D01*
X7985Y12206D01*
X8005Y12204D01*
X8250D01*
Y12600D01*
X8300D01*
Y12650D01*
X8696D01*
Y12879D01*
X8718D01*
X8738Y12880D01*
X8758Y12885D01*
X8777Y12893D01*
X8794Y12903D01*
X8810Y12917D01*
X9195Y13302D01*
X9208Y13317D01*
X9219Y13335D01*
X9227Y13354D01*
X9232Y13374D01*
X9233Y13394D01*
Y13908D01*
X9256Y13930D01*
X9283Y13945D01*
X9301Y13941D01*
X9330Y13940D01*
X9359Y13941D01*
X9387Y13947D01*
X9414Y13956D01*
X9440Y13969D01*
X9464Y13985D01*
X9486Y14004D01*
X9505Y14026D01*
X9521Y14050D01*
X9534Y14076D01*
X9543Y14103D01*
X9549Y14131D01*
X9550Y14160D01*
X9549Y14189D01*
X9548Y14193D01*
X9606Y14252D01*
X10000D01*
X10002Y14246D01*
X10014Y14220D01*
X10030Y14196D01*
X10049Y14175D01*
X10071Y14156D01*
X10095Y14140D01*
X10121Y14127D01*
X10148Y14118D01*
X10177Y14112D01*
X10205Y14110D01*
X10234Y14112D01*
X10262Y14118D01*
X10290Y14127D01*
X10316Y14140D01*
X10340Y14156D01*
X10361Y14175D01*
X10380Y14196D01*
X10396Y14220D01*
X10409Y14246D01*
X10409Y14248D01*
X10415Y14253D01*
X10461Y14268D01*
X10468Y14267D01*
X10469Y14266D01*
X10493Y14252D01*
X10519Y14242D01*
X10546Y14234D01*
X10574Y14229D01*
X10602Y14227D01*
X11752D01*
X11844Y14136D01*
X11837Y14085D01*
X11814Y14080D01*
X11778Y14066D01*
X11743Y14050D01*
X11709Y14030D01*
X11678Y14007D01*
X11649Y13981D01*
X11623Y13952D01*
X11600Y13921D01*
X11580Y13887D01*
X11564Y13852D01*
X11550Y13816D01*
X11541Y13778D01*
X11535Y13740D01*
X11533Y13701D01*
X11535Y13662D01*
X11541Y13624D01*
X11550Y13586D01*
X11564Y13549D01*
X11580Y13514D01*
X11600Y13481D01*
X11623Y13450D01*
X11649Y13421D01*
X11678Y13395D01*
X11709Y13372D01*
X11743Y13352D01*
X11778Y13335D01*
X11796Y13329D01*
X11797Y13323D01*
X11806Y13296D01*
X11819Y13270D01*
X11835Y13246D01*
X11850Y13229D01*
Y13000D01*
X11851Y12972D01*
X11856Y12944D01*
X11864Y12917D01*
X11874Y12891D01*
X11888Y12867D01*
X11904Y12844D01*
X11923Y12823D01*
X12553Y12193D01*
X12574Y12174D01*
X12597Y12158D01*
X12621Y12144D01*
X12647Y12134D01*
X12674Y12126D01*
X12702Y12121D01*
X12730Y12120D01*
X12758Y12121D01*
X12786Y12126D01*
X12813Y12134D01*
X12839Y12144D01*
X12863Y12158D01*
X12886Y12174D01*
X12907Y12193D01*
X12926Y12214D01*
X12942Y12237D01*
X12956Y12261D01*
X12966Y12287D01*
X12974Y12314D01*
X12979Y12342D01*
X12980Y12370D01*
X12979Y12398D01*
X12974Y12426D01*
X12966Y12453D01*
X12956Y12479D01*
X12942Y12503D01*
X12926Y12526D01*
X12907Y12547D01*
X12350Y13104D01*
Y13424D01*
X12397Y13443D01*
X15658Y10182D01*
Y10126D01*
X15541Y10009D01*
X15525Y10010D01*
X15496Y10009D01*
X15468Y10003D01*
X15441Y9994D01*
X15415Y9981D01*
X15391Y9965D01*
X15369Y9946D01*
X15350Y9924D01*
X15334Y9900D01*
X15321Y9874D01*
X15312Y9847D01*
X15306Y9819D01*
X15304Y9790D01*
X15306Y9761D01*
X15312Y9733D01*
X15321Y9706D01*
X15334Y9680D01*
X15350Y9656D01*
X15369Y9634D01*
X15391Y9615D01*
X15415Y9599D01*
X15441Y9586D01*
X15468Y9577D01*
X15496Y9571D01*
X15525Y9570D01*
X15554Y9571D01*
X15582Y9577D01*
X15609Y9586D01*
X15635Y9599D01*
X15659Y9615D01*
X15681Y9634D01*
X15700Y9656D01*
X15716Y9680D01*
X15724Y9696D01*
X15820Y9792D01*
X15866Y9772D01*
Y9504D01*
X14596Y8234D01*
X14581Y8217D01*
X14568Y8198D01*
X14558Y8177D01*
X14551Y8155D01*
X14546Y8133D01*
X14545Y8110D01*
Y7143D01*
X14349Y6947D01*
X14299Y6968D01*
Y7104D01*
X14297Y7124D01*
X14291Y7142D01*
X14282Y7160D01*
X14269Y7175D01*
X14254Y7187D01*
X14236Y7197D01*
X14218Y7202D01*
X14198Y7204D01*
X14091D01*
Y6956D01*
X13991D01*
Y7204D01*
X13883D01*
X13863Y7202D01*
X13845Y7197D01*
X13827Y7187D01*
X13812Y7175D01*
X13800Y7160D01*
X13790Y7142D01*
X13779Y7120D01*
X13750Y7105D01*
X13733Y7106D01*
X13729Y7106D01*
X13681D01*
Y6887D01*
X13581D01*
Y7113D01*
X13546Y7129D01*
Y7204D01*
X13564D01*
X13583Y7206D01*
X13602Y7212D01*
X13619Y7221D01*
X13635Y7234D01*
X13647Y7249D01*
X13656Y7267D01*
X13662Y7285D01*
X13664Y7305D01*
Y7856D01*
X13662Y7876D01*
X13656Y7895D01*
X13647Y7912D01*
X13635Y7927D01*
X13619Y7940D01*
X13602Y7949D01*
X13583Y7955D01*
X13564Y7957D01*
X13268D01*
X13249Y7955D01*
X13230Y7949D01*
X13213Y7940D01*
X13197Y7927D01*
X13185Y7912D01*
X13176Y7895D01*
X13170Y7876D01*
X13168Y7856D01*
Y7305D01*
X13170Y7285D01*
X13176Y7267D01*
X13185Y7249D01*
X13197Y7234D01*
X13203Y7229D01*
X13194Y7191D01*
X13187Y7179D01*
X13149D01*
X13130Y7178D01*
X13111Y7172D01*
X13093Y7163D01*
X13091Y7160D01*
X13057Y7172D01*
X13056Y7174D01*
X13055Y7178D01*
X13061Y7232D01*
X13064Y7234D01*
X13076Y7249D01*
X13086Y7267D01*
X13091Y7285D01*
X13093Y7305D01*
Y7856D01*
X13091Y7876D01*
X13086Y7895D01*
X13076Y7912D01*
X13064Y7927D01*
X13049Y7940D01*
X13031Y7949D01*
X13012Y7955D01*
X12993Y7957D01*
X12697D01*
X12678Y7955D01*
X12659Y7949D01*
X12646Y7942D01*
X12639Y7944D01*
X12619Y7946D01*
X12571D01*
Y7727D01*
X12521D01*
Y7677D01*
X12322D01*
Y7609D01*
X12324Y7590D01*
X12329Y7571D01*
X12339Y7553D01*
X12348Y7531D01*
X12339Y7508D01*
X12329Y7490D01*
X12324Y7471D01*
X12322Y7452D01*
Y7343D01*
X12298Y7325D01*
X12272Y7315D01*
X12254Y7324D01*
X12227Y7333D01*
X12199Y7339D01*
X12170Y7340D01*
X12141Y7339D01*
X12113Y7333D01*
X12093Y7326D01*
X12081Y7350D01*
X12065Y7374D01*
X12046Y7396D01*
X12024Y7415D01*
X12000Y7431D01*
X11974Y7444D01*
X11947Y7453D01*
X11919Y7459D01*
X11890Y7460D01*
X11861Y7459D01*
X11833Y7453D01*
X11806Y7444D01*
X11800Y7441D01*
X11791Y7460D01*
X11775Y7484D01*
X11756Y7506D01*
X11735Y7524D01*
X11734Y7525D01*
X11725Y7585D01*
X12335Y8195D01*
X13449D01*
X13469Y8197D01*
X13489Y8201D01*
X13508Y8209D01*
X13525Y8220D01*
X13541Y8233D01*
X13868Y8560D01*
X13881Y8576D01*
X13892Y8593D01*
X13900Y8612D01*
X13905Y8632D01*
X13906Y8652D01*
Y9102D01*
X13905Y9122D01*
X13900Y9142D01*
X13892Y9161D01*
X13881Y9178D01*
X13868Y9194D01*
X13505Y9557D01*
X13503Y9566D01*
X13516Y9617D01*
X13520Y9619D01*
X13544Y9635D01*
X13566Y9654D01*
X13585Y9676D01*
X13601Y9700D01*
X13614Y9726D01*
X13623Y9753D01*
X13629Y9781D01*
X13630Y9810D01*
X13629Y9831D01*
X13838Y10040D01*
X13986D01*
X14102Y9923D01*
X14101Y9919D01*
X14100Y9890D01*
X14101Y9861D01*
X14107Y9833D01*
X14116Y9806D01*
X14129Y9780D01*
X14145Y9756D01*
X14164Y9734D01*
X14186Y9715D01*
X14210Y9699D01*
X14236Y9686D01*
X14263Y9677D01*
X14291Y9671D01*
X14320Y9670D01*
X14349Y9671D01*
X14377Y9677D01*
X14404Y9686D01*
X14430Y9699D01*
X14454Y9715D01*
X14476Y9734D01*
X14495Y9756D01*
X14511Y9780D01*
X14524Y9806D01*
X14533Y9833D01*
X14539Y9861D01*
X14540Y9890D01*
X14539Y9919D01*
X14533Y9947D01*
X14524Y9974D01*
X14511Y10000D01*
X14495Y10024D01*
X14476Y10046D01*
X14454Y10065D01*
X14430Y10081D01*
X14404Y10094D01*
X14377Y10103D01*
X14349Y10109D01*
X14320Y10110D01*
X14291Y10109D01*
X14287Y10108D01*
X14132Y10262D01*
X14117Y10275D01*
X14099Y10286D01*
X14080Y10294D01*
X14060Y10299D01*
X14040Y10300D01*
X13784D01*
X13764Y10299D01*
X13744Y10294D01*
X13725Y10286D01*
X13708Y10275D01*
X13692Y10262D01*
X13665Y10235D01*
X13605Y10244D01*
X13604Y10245D01*
X13586Y10266D01*
X13564Y10285D01*
X13540Y10301D01*
X13514Y10314D01*
X13487Y10323D01*
X13459Y10329D01*
X13430Y10330D01*
X13401Y10329D01*
X13397Y10328D01*
X13342Y10382D01*
X13327Y10395D01*
X13309Y10406D01*
X13290Y10414D01*
X13270Y10419D01*
X13270Y10419D01*
X13252Y10434D01*
X13238Y10452D01*
X13230Y10470D01*
X13230Y10472D01*
Y10698D01*
X11947D01*
Y10472D01*
X11949Y10453D01*
X11954Y10434D01*
X11964Y10417D01*
X11976Y10401D01*
X11991Y10389D01*
X12009Y10380D01*
X12028Y10374D01*
X12047Y10372D01*
X12328D01*
X12362Y10322D01*
X12361Y10319D01*
X12360Y10290D01*
X12361Y10261D01*
X12367Y10233D01*
X12376Y10206D01*
X12389Y10180D01*
X12405Y10156D01*
X12420Y10139D01*
X12420Y10125D01*
X12404Y10085D01*
X12393Y10083D01*
X12366Y10074D01*
X12340Y10061D01*
X12316Y10045D01*
X12294Y10026D01*
X12275Y10004D01*
X12259Y9980D01*
X12246Y9954D01*
X12242Y9943D01*
X12203Y9928D01*
X12186Y9928D01*
X12038Y10077D01*
X12039Y10081D01*
X12040Y10110D01*
X12039Y10139D01*
X12033Y10167D01*
X12024Y10194D01*
X12011Y10220D01*
X11995Y10244D01*
X11976Y10266D01*
X11954Y10285D01*
X11930Y10301D01*
X11904Y10314D01*
X11877Y10323D01*
X11849Y10329D01*
X11820Y10330D01*
X11792Y10329D01*
X11791Y10329D01*
X11742Y10365D01*
Y10934D01*
X11843Y11035D01*
X11937D01*
X11947Y11024D01*
Y10798D01*
X13230D01*
Y11024D01*
X13228Y11043D01*
X13223Y11062D01*
X13213Y11079D01*
X13201Y11095D01*
X13186Y11107D01*
X13168Y11116D01*
X13150Y11122D01*
X13130Y11124D01*
X12626D01*
X12614Y11132D01*
X12587Y11174D01*
X12589Y11181D01*
X12590Y11210D01*
X12589Y11239D01*
X12583Y11267D01*
X12574Y11294D01*
X12561Y11320D01*
X12545Y11344D01*
X12526Y11366D01*
X12504Y11385D01*
X12480Y11401D01*
X12454Y11414D01*
X12427Y11423D01*
X12399Y11429D01*
X12370Y11430D01*
X12341Y11429D01*
X12313Y11423D01*
X12286Y11414D01*
X12260Y11401D01*
X12236Y11385D01*
X11770D01*
X11747Y11384D01*
X11725Y11379D01*
X11703Y11372D01*
X11682Y11362D01*
X11663Y11349D01*
X11646Y11334D01*
X11443Y11131D01*
X11428Y11114D01*
X11415Y11095D01*
X11405Y11074D01*
X11398Y11052D01*
X11393Y11030D01*
X11392Y11007D01*
Y9297D01*
X11380Y9291D01*
X11356Y9275D01*
X11334Y9256D01*
X11315Y9234D01*
X11299Y9210D01*
X11286Y9184D01*
X11277Y9157D01*
X11272Y9132D01*
X11268Y9128D01*
X11148D01*
X11080Y9195D01*
Y9387D01*
X11079Y9411D01*
X11073Y9434D01*
X11064Y9455D01*
X11052Y9475D01*
X11036Y9493D01*
X10653Y9876D01*
X10635Y9892D01*
X10615Y9904D01*
X10594Y9913D01*
X10571Y9919D01*
X10547Y9920D01*
X8744D01*
X8735Y9934D01*
X8716Y9956D01*
X8694Y9975D01*
X8670Y9991D01*
X8644Y10004D01*
X8617Y10013D01*
X8589Y10019D01*
X8560Y10020D01*
X8533Y10019D01*
X8531Y10019D01*
X8483Y10055D01*
Y10163D01*
X8485Y10166D01*
X8501Y10190D01*
X8514Y10216D01*
X8523Y10243D01*
X8529Y10271D01*
X8530Y10300D01*
X8529Y10329D01*
X8523Y10357D01*
X8514Y10384D01*
X8501Y10410D01*
X8485Y10434D01*
X8466Y10456D01*
X8444Y10475D01*
X8420Y10491D01*
X8394Y10504D01*
X8367Y10513D01*
X8339Y10519D01*
X8310Y10520D01*
X8281Y10519D01*
X8253Y10513D01*
X8226Y10504D01*
X8200Y10491D01*
X8176Y10475D01*
X8154Y10456D01*
X8135Y10434D01*
X8119Y10410D01*
X8106Y10384D01*
X8097Y10357D01*
X8091Y10329D01*
X8090Y10300D01*
X8091Y10271D01*
X8097Y10243D01*
X8106Y10216D01*
X8119Y10190D01*
X8135Y10166D01*
X8154Y10144D01*
X8176Y10125D01*
X8200Y10109D01*
X8222Y10098D01*
Y9714D01*
X8223Y9693D01*
X8228Y9674D01*
X8236Y9655D01*
X8247Y9637D01*
X8260Y9622D01*
X8502Y9380D01*
Y8892D01*
X8452Y8858D01*
X8449Y8859D01*
X8420Y8860D01*
X8391Y8859D01*
X8363Y8853D01*
X8336Y8844D01*
X8310Y8831D01*
X8286Y8815D01*
X8264Y8796D01*
X8245Y8774D01*
X8229Y8750D01*
X8216Y8724D01*
X8207Y8697D01*
X8201Y8669D01*
X8200Y8640D01*
X8201Y8611D01*
X8207Y8583D01*
X8216Y8556D01*
X8229Y8530D01*
X8245Y8506D01*
X8264Y8484D01*
X8286Y8465D01*
X8310Y8449D01*
X8336Y8436D01*
X8363Y8427D01*
X8391Y8421D01*
X8420Y8420D01*
X8449Y8421D01*
X8453Y8422D01*
X8570Y8306D01*
Y7857D01*
X8566Y7855D01*
X8544Y7836D01*
X8525Y7814D01*
X8509Y7791D01*
X8506Y7790D01*
X8453Y7790D01*
X8440Y7804D01*
X8439Y7819D01*
X8433Y7847D01*
X8424Y7874D01*
X8411Y7900D01*
X8395Y7924D01*
X8376Y7946D01*
X8354Y7965D01*
X8330Y7981D01*
X8304Y7994D01*
X8277Y8003D01*
X8249Y8009D01*
X8220Y8010D01*
X8191Y8009D01*
X8163Y8003D01*
X8136Y7994D01*
X8110Y7981D01*
X8086Y7965D01*
X8064Y7946D01*
X8045Y7924D01*
X8029Y7900D01*
X8016Y7874D01*
X8007Y7847D01*
X8001Y7819D01*
X8000Y7790D01*
X8001Y7761D01*
X8007Y7733D01*
X8016Y7706D01*
X8029Y7680D01*
X8045Y7656D01*
X8064Y7634D01*
X8086Y7615D01*
X8110Y7599D01*
X8136Y7586D01*
X8163Y7577D01*
X8191Y7571D01*
X8220Y7570D01*
X8249Y7571D01*
X8254Y7573D01*
X8446Y7381D01*
X8462Y7367D01*
X8479Y7357D01*
X8498Y7349D01*
X8518Y7344D01*
X8538Y7343D01*
X8868D01*
X8882Y7293D01*
X8871Y7286D01*
X8839Y7263D01*
X8811Y7237D01*
X8785Y7208D01*
X8761Y7177D01*
X8742Y7143D01*
X8725Y7108D01*
X8712Y7072D01*
X8702Y7034D01*
X8697Y6995D01*
X8695Y6957D01*
X8697Y6918D01*
X8702Y6879D01*
X8712Y6842D01*
X8725Y6805D01*
X8742Y6770D01*
X8761Y6737D01*
X8785Y6706D01*
X8811Y6677D01*
X8839Y6651D01*
X8871Y6628D01*
X8904Y6608D01*
X8939Y6591D01*
X8976Y6578D01*
X9013Y6569D01*
X9052Y6563D01*
X9091Y6561D01*
X9129Y6563D01*
X9168Y6569D01*
X9187Y6573D01*
X9229Y6541D01*
X9228Y6499D01*
X9224Y6496D01*
X9205Y6474D01*
X9189Y6450D01*
X9176Y6424D01*
X9167Y6397D01*
X9161Y6369D01*
X9137Y6349D01*
X9129Y6351D01*
X9091Y6352D01*
X9052Y6351D01*
X9013Y6345D01*
X8976Y6335D01*
X8939Y6322D01*
X8904Y6306D01*
X8871Y6286D01*
X8839Y6263D01*
X8811Y6237D01*
X8785Y6208D01*
X8761Y6177D01*
X8742Y6143D01*
X8725Y6108D01*
X8712Y6072D01*
X8702Y6034D01*
X8697Y5995D01*
X8695Y5957D01*
X8697Y5918D01*
X8702Y5879D01*
X8712Y5842D01*
X8725Y5805D01*
X8742Y5770D01*
X8751Y5754D01*
X8731Y5711D01*
X8724Y5704D01*
X8457D01*
X8450Y5711D01*
X8430Y5754D01*
X8440Y5770D01*
X8456Y5805D01*
X8469Y5842D01*
X8479Y5879D01*
X8483Y5907D01*
X8091D01*
X7698D01*
X7702Y5879D01*
X7712Y5842D01*
X7725Y5805D01*
X7742Y5770D01*
X7751Y5754D01*
X7731Y5711D01*
X7724Y5704D01*
X7457D01*
X7450Y5711D01*
X7430Y5754D01*
X7440Y5770D01*
X7456Y5805D01*
X7469Y5842D01*
X7479Y5879D01*
X7484Y5918D01*
X7486Y5957D01*
X7484Y5995D01*
X7479Y6034D01*
X7469Y6072D01*
X7456Y6108D01*
X7440Y6143D01*
X7420Y6177D01*
X7396Y6208D01*
X7370Y6237D01*
X7342Y6263D01*
X7310Y6286D01*
X7277Y6306D01*
X7242Y6322D01*
X7205Y6335D01*
X7168Y6345D01*
X7129Y6351D01*
X7091Y6352D01*
X7052Y6351D01*
X7013Y6345D01*
X6976Y6335D01*
X6939Y6322D01*
X6904Y6306D01*
X6871Y6286D01*
X6839Y6263D01*
X6811Y6237D01*
X6785Y6208D01*
X6761Y6177D01*
X6742Y6143D01*
X6725Y6108D01*
X6712Y6072D01*
X6702Y6034D01*
X6697Y5995D01*
X6695Y5957D01*
X6697Y5918D01*
X6702Y5879D01*
X6712Y5842D01*
X6725Y5805D01*
X6742Y5770D01*
X6751Y5754D01*
X6731Y5711D01*
X6724Y5704D01*
X6457D01*
X6450Y5711D01*
X6430Y5754D01*
X6440Y5770D01*
X6456Y5805D01*
X6469Y5842D01*
X6479Y5879D01*
X6484Y5918D01*
X6486Y5957D01*
X6484Y5995D01*
X6479Y6034D01*
X6469Y6072D01*
X6456Y6108D01*
X6440Y6143D01*
X6420Y6177D01*
X6396Y6208D01*
X6370Y6237D01*
X6342Y6263D01*
X6310Y6286D01*
X6277Y6306D01*
X6245Y6321D01*
X6241Y6334D01*
X6237Y6377D01*
X6566Y6706D01*
X6579Y6721D01*
X6590Y6739D01*
X6598Y6758D01*
X6603Y6778D01*
X6604Y6798D01*
Y6902D01*
X6650Y6921D01*
X6706Y6865D01*
X6712Y6842D01*
X6725Y6805D01*
X6742Y6770D01*
X6761Y6737D01*
X6785Y6706D01*
X6811Y6677D01*
X6839Y6651D01*
X6871Y6628D01*
X6904Y6608D01*
X6939Y6591D01*
X6976Y6578D01*
X7013Y6569D01*
X7052Y6563D01*
X7091Y6561D01*
X7129Y6563D01*
X7168Y6569D01*
X7205Y6578D01*
X7242Y6591D01*
X7277Y6608D01*
X7310Y6628D01*
X7342Y6651D01*
X7370Y6677D01*
X7396Y6706D01*
X7420Y6737D01*
X7440Y6770D01*
X7456Y6805D01*
X7469Y6842D01*
X7479Y6879D01*
X7484Y6918D01*
X7486Y6957D01*
X7484Y6995D01*
X7479Y7034D01*
X7478Y7037D01*
X7497Y7067D01*
X7524Y7076D01*
X7550Y7089D01*
X7574Y7105D01*
X7596Y7124D01*
X7615Y7146D01*
X7631Y7170D01*
X7644Y7196D01*
X7653Y7223D01*
X7659Y7251D01*
X7660Y7280D01*
X7659Y7309D01*
X7653Y7337D01*
X7644Y7364D01*
X7631Y7390D01*
X7615Y7414D01*
X7596Y7436D01*
X7574Y7455D01*
X7550Y7471D01*
X7526Y7483D01*
X7533Y7503D01*
X7539Y7531D01*
X7540Y7560D01*
X7539Y7589D01*
X7533Y7617D01*
X7524Y7644D01*
X7511Y7670D01*
X7495Y7694D01*
X7479Y7712D01*
Y7927D01*
X7480Y7940D01*
Y8039D01*
X7880Y8439D01*
X7893Y8454D01*
X7904Y8472D01*
X7912Y8491D01*
X7917Y8511D01*
X7918Y8531D01*
Y8763D01*
X7937Y8767D01*
X7964Y8776D01*
X7990Y8789D01*
X8014Y8805D01*
X8036Y8824D01*
X8055Y8846D01*
X8071Y8870D01*
X8084Y8896D01*
X8093Y8923D01*
X8099Y8951D01*
X8100Y8980D01*
X8099Y9009D01*
X8093Y9037D01*
X8084Y9064D01*
X8071Y9090D01*
X8055Y9114D01*
X8036Y9136D01*
X8025Y9146D01*
X8025Y9146D01*
X8041Y9170D01*
X8054Y9196D01*
X8063Y9223D01*
X8069Y9251D01*
X8070Y9280D01*
X8069Y9309D01*
X8063Y9337D01*
X8054Y9364D01*
X8041Y9390D01*
X8025Y9414D01*
X8006Y9436D01*
X7984Y9455D01*
X7960Y9471D01*
X7934Y9484D01*
X7907Y9493D01*
X7879Y9499D01*
X7850Y9500D01*
X7821Y9499D01*
X7793Y9493D01*
X7766Y9484D01*
X7740Y9471D01*
X7716Y9455D01*
X7694Y9436D01*
X7675Y9414D01*
X7659Y9390D01*
X7646Y9364D01*
X7637Y9337D01*
X7631Y9309D01*
X7630Y9280D01*
X7631Y9251D01*
X7632Y9247D01*
X7578Y9192D01*
X7564Y9177D01*
X7554Y9159D01*
X7546Y9140D01*
X7541Y9120D01*
X7540Y9100D01*
Y8634D01*
X7406Y8500D01*
X7220D01*
X7213Y8509D01*
X7210Y8519D01*
X7224Y8575D01*
X7224Y8575D01*
X7246Y8594D01*
X7265Y8616D01*
X7281Y8640D01*
X7294Y8666D01*
X7303Y8693D01*
X7309Y8721D01*
X7310Y8750D01*
X7309Y8779D01*
X7303Y8807D01*
X7294Y8834D01*
X7281Y8860D01*
X7265Y8884D01*
Y8960D01*
X7264Y8983D01*
X7259Y9005D01*
X7252Y9027D01*
X7242Y9048D01*
X7229Y9067D01*
X7214Y9084D01*
X6944Y9354D01*
X6927Y9369D01*
X6908Y9382D01*
X6887Y9392D01*
X6865Y9399D01*
X6843Y9404D01*
X6820Y9405D01*
X6064D01*
X6040Y9421D01*
X6014Y9434D01*
X5987Y9443D01*
X5959Y9449D01*
X5930Y9450D01*
X5901Y9449D01*
X5873Y9443D01*
X5846Y9434D01*
X5820Y9421D01*
X5796Y9405D01*
X5705D01*
Y10295D01*
X5716Y10304D01*
X5735Y10326D01*
X5751Y10350D01*
X5764Y10376D01*
X5773Y10403D01*
X5779Y10431D01*
X5780Y10460D01*
X5779Y10489D01*
X5773Y10517D01*
X5764Y10544D01*
X5751Y10570D01*
X5735Y10594D01*
X5716Y10616D01*
X5694Y10635D01*
X5670Y10651D01*
X5644Y10664D01*
X5617Y10673D01*
X5589Y10679D01*
X5560Y10680D01*
X5531Y10679D01*
X5503Y10673D01*
X5476Y10664D01*
X5450Y10651D01*
X5426Y10635D01*
X5404Y10616D01*
X5385Y10594D01*
X5369Y10570D01*
X5356Y10544D01*
X5347Y10517D01*
X5341Y10489D01*
X5340Y10460D01*
X5341Y10431D01*
X5347Y10403D01*
X5355Y10381D01*
Y9405D01*
X4570D01*
X4547Y9404D01*
X4525Y9399D01*
X4503Y9392D01*
X4482Y9382D01*
X4463Y9369D01*
X4446Y9354D01*
X4227Y9135D01*
X3324D01*
X3300Y9151D01*
X3274Y9164D01*
X3247Y9173D01*
X3219Y9179D01*
X3190Y9180D01*
X3161Y9179D01*
X3133Y9173D01*
X3106Y9164D01*
X3080Y9151D01*
X3056Y9135D01*
X3034Y9116D01*
X3015Y9094D01*
X2999Y9070D01*
X2986Y9044D01*
X2984Y9037D01*
X2812Y8865D01*
X2015D01*
X1989Y8864D01*
X1963Y8859D01*
X1938Y8850D01*
X1915Y8839D01*
X1893Y8824D01*
X1873Y8807D01*
X1873Y8807D01*
X949Y7882D01*
X932Y7863D01*
X917Y7841D01*
X905Y7817D01*
X897Y7792D01*
X892Y7767D01*
X890Y7741D01*
Y7297D01*
X871Y7286D01*
X839Y7263D01*
X811Y7237D01*
X785Y7208D01*
X762Y7177D01*
X742Y7143D01*
X725Y7108D01*
X712Y7072D01*
X702Y7034D01*
X697Y6995D01*
X695Y6957D01*
X697Y6918D01*
X702Y6879D01*
X712Y6842D01*
X725Y6805D01*
X742Y6770D01*
X762Y6737D01*
X785Y6706D01*
X811Y6677D01*
X839Y6651D01*
X871Y6628D01*
X904Y6608D01*
X939Y6591D01*
X976Y6578D01*
X1013Y6569D01*
X1052Y6563D01*
X1091Y6561D01*
X1129Y6563D01*
X1168Y6569D01*
X1205Y6578D01*
X1242Y6591D01*
X1277Y6608D01*
X1310Y6628D01*
X1342Y6651D01*
X1370Y6677D01*
X1396Y6706D01*
X1420Y6737D01*
X1440Y6770D01*
X1456Y6805D01*
X1469Y6842D01*
X1479Y6879D01*
X1484Y6918D01*
X1486Y6957D01*
X1484Y6995D01*
X1479Y7034D01*
X1469Y7072D01*
X1456Y7108D01*
X1440Y7143D01*
X1420Y7177D01*
X1396Y7208D01*
X1370Y7237D01*
X1342Y7263D01*
X1310Y7286D01*
X1291Y7297D01*
Y7658D01*
X2098Y8465D01*
X2895D01*
X2921Y8466D01*
X2947Y8471D01*
X2972Y8480D01*
X2995Y8491D01*
X3017Y8506D01*
X3037Y8523D01*
X3267Y8754D01*
X3274Y8756D01*
X3300Y8769D01*
X3324Y8785D01*
X4300D01*
X4323Y8786D01*
X4345Y8791D01*
X4367Y8798D01*
X4388Y8808D01*
X4407Y8821D01*
X4424Y8836D01*
X4643Y9055D01*
X4710D01*
Y8454D01*
X4664Y8435D01*
X4627Y8472D01*
X4611Y8485D01*
X4594Y8495D01*
X4575Y8503D01*
X4556Y8508D01*
X4535Y8509D01*
X3988D01*
X3985Y8514D01*
X3966Y8536D01*
X3944Y8555D01*
X3920Y8571D01*
X3894Y8584D01*
X3867Y8593D01*
X3839Y8599D01*
X3810Y8600D01*
X3781Y8599D01*
X3753Y8593D01*
X3726Y8584D01*
X3700Y8571D01*
X3676Y8555D01*
X3654Y8536D01*
X3635Y8514D01*
X3619Y8490D01*
X3606Y8464D01*
X3597Y8437D01*
X3591Y8409D01*
X3590Y8380D01*
X3591Y8351D01*
X3596Y8330D01*
X3576Y8324D01*
X3550Y8311D01*
X3526Y8295D01*
X3504Y8276D01*
X3485Y8254D01*
X3469Y8230D01*
X3456Y8204D01*
X3447Y8177D01*
X3441Y8149D01*
X3440Y8120D01*
X3441Y8091D01*
X3447Y8063D01*
X3456Y8036D01*
X3469Y8010D01*
X3485Y7986D01*
X3504Y7964D01*
X3526Y7945D01*
X3550Y7929D01*
X3576Y7916D01*
X3603Y7907D01*
X3631Y7901D01*
X3660Y7900D01*
X3689Y7901D01*
X3717Y7907D01*
X3744Y7916D01*
X3770Y7929D01*
X3794Y7945D01*
X3816Y7964D01*
X3835Y7986D01*
X3838Y7991D01*
X4128D01*
X4397Y7722D01*
X4412Y7708D01*
X4430Y7698D01*
X4448Y7690D01*
X4468Y7685D01*
X4488Y7684D01*
X4721D01*
X5010Y7395D01*
X5011Y7385D01*
X4994Y7340D01*
X4976Y7335D01*
X4939Y7322D01*
X4904Y7306D01*
X4871Y7286D01*
X4839Y7263D01*
X4811Y7237D01*
X4785Y7208D01*
X4761Y7177D01*
X4742Y7143D01*
X4725Y7108D01*
X4712Y7072D01*
X4702Y7034D01*
X4697Y6995D01*
X4695Y6957D01*
X4697Y6918D01*
X4702Y6879D01*
X4712Y6842D01*
X4725Y6805D01*
X4742Y6770D01*
X4761Y6737D01*
X4785Y6706D01*
X4811Y6677D01*
X4839Y6651D01*
X4871Y6628D01*
X4904Y6608D01*
X4939Y6591D01*
X4976Y6578D01*
X5013Y6569D01*
X5052Y6563D01*
X5091Y6561D01*
X5129Y6563D01*
X5168Y6569D01*
X5205Y6578D01*
X5242Y6591D01*
X5277Y6608D01*
X5293Y6617D01*
X5337Y6598D01*
X5343Y6590D01*
Y6324D01*
X5337Y6316D01*
X5293Y6296D01*
X5277Y6306D01*
X5242Y6322D01*
X5205Y6335D01*
X5168Y6345D01*
X5129Y6351D01*
X5091Y6352D01*
X5052Y6351D01*
X5013Y6345D01*
X4976Y6335D01*
X4939Y6322D01*
X4904Y6306D01*
X4871Y6286D01*
X4839Y6263D01*
X4811Y6237D01*
X4785Y6208D01*
X4761Y6177D01*
X4742Y6143D01*
X4725Y6108D01*
X4712Y6072D01*
X4702Y6034D01*
X4697Y5995D01*
X4695Y5957D01*
X4697Y5918D01*
X4702Y5879D01*
X4712Y5842D01*
X4725Y5805D01*
X4742Y5770D01*
X4761Y5737D01*
X4785Y5706D01*
X4811Y5677D01*
X4839Y5651D01*
X4871Y5628D01*
X4904Y5608D01*
X4939Y5591D01*
X4976Y5578D01*
X5013Y5569D01*
X5052Y5563D01*
X5091Y5561D01*
X5129Y5563D01*
X5168Y5569D01*
X5205Y5578D01*
X5242Y5591D01*
X5277Y5608D01*
X5293Y5617D01*
X5309Y5615D01*
X5336Y5601D01*
X5345Y5591D01*
X5345Y5589D01*
X5350Y5569D01*
X5358Y5551D01*
X5368Y5533D01*
X5381Y5518D01*
X5497Y5403D01*
X5477Y5356D01*
X4328D01*
X4166Y5518D01*
X4167Y5536D01*
X4183Y5572D01*
X4205Y5578D01*
X4242Y5591D01*
X4277Y5608D01*
X4310Y5628D01*
X4342Y5651D01*
X4370Y5677D01*
X4396Y5706D01*
X4420Y5737D01*
X4440Y5770D01*
X4456Y5805D01*
X4469Y5842D01*
X4479Y5879D01*
X4484Y5918D01*
X4486Y5957D01*
X4484Y5995D01*
X4479Y6034D01*
X4469Y6072D01*
X4456Y6108D01*
X4440Y6143D01*
X4420Y6177D01*
X4396Y6208D01*
X4370Y6237D01*
X4342Y6263D01*
X4310Y6286D01*
X4277Y6306D01*
X4242Y6322D01*
X4205Y6335D01*
X4168Y6345D01*
X4129Y6351D01*
X4091Y6352D01*
X4052Y6351D01*
X4013Y6345D01*
X3976Y6335D01*
X3939Y6322D01*
X3904Y6306D01*
X3871Y6286D01*
X3860Y6278D01*
X3810Y6303D01*
Y6610D01*
X3860Y6635D01*
X3871Y6628D01*
X3904Y6608D01*
X3939Y6591D01*
X3976Y6578D01*
X4013Y6569D01*
X4052Y6563D01*
X4091Y6561D01*
X4129Y6563D01*
X4168Y6569D01*
X4205Y6578D01*
X4242Y6591D01*
X4277Y6608D01*
X4310Y6628D01*
X4342Y6651D01*
X4370Y6677D01*
X4396Y6706D01*
X4420Y6737D01*
X4440Y6770D01*
X4456Y6805D01*
X4469Y6842D01*
X4479Y6879D01*
X4484Y6918D01*
X4486Y6957D01*
X4484Y6995D01*
X4479Y7034D01*
X4469Y7072D01*
X4456Y7108D01*
X4440Y7143D01*
X4420Y7177D01*
X4396Y7208D01*
X4370Y7237D01*
X4342Y7263D01*
X4310Y7286D01*
X4277Y7306D01*
X4246Y7320D01*
Y7489D01*
X4244Y7514D01*
X4238Y7537D01*
X4229Y7560D01*
X4216Y7581D01*
X4200Y7599D01*
X4160Y7639D01*
X4160Y7640D01*
X4159Y7669D01*
X4153Y7697D01*
X4144Y7724D01*
X4131Y7750D01*
X4115Y7774D01*
X4096Y7796D01*
X4074Y7815D01*
X4050Y7831D01*
X4024Y7844D01*
X3997Y7853D01*
X3969Y7859D01*
X3940Y7860D01*
X3911Y7859D01*
X3883Y7853D01*
X3856Y7844D01*
X3830Y7831D01*
X3806Y7815D01*
X3784Y7796D01*
X3765Y7774D01*
X3749Y7750D01*
X3736Y7724D01*
X3727Y7697D01*
X3721Y7669D01*
X3720Y7640D01*
X3721Y7611D01*
X3727Y7583D01*
X3736Y7556D01*
X3749Y7530D01*
X3765Y7506D01*
X3784Y7484D01*
X3806Y7465D01*
X3830Y7449D01*
X3856Y7436D01*
X3883Y7427D01*
X3911Y7421D01*
X3935Y7420D01*
Y7320D01*
X3904Y7306D01*
X3871Y7286D01*
X3846Y7267D01*
X3845Y7267D01*
X3832Y7264D01*
X3790Y7273D01*
X3782Y7278D01*
X3772Y7289D01*
X2959Y8102D01*
X2944Y8116D01*
X2926Y8126D01*
X2907Y8134D01*
X2887Y8139D01*
X2867Y8140D01*
X2602D01*
X2599Y8144D01*
X2580Y8166D01*
X2558Y8185D01*
X2534Y8201D01*
X2508Y8214D01*
X2481Y8223D01*
X2453Y8229D01*
X2424Y8230D01*
X2395Y8229D01*
X2367Y8223D01*
X2340Y8214D01*
X2314Y8201D01*
X2290Y8185D01*
X2268Y8166D01*
X2249Y8144D01*
X2233Y8120D01*
X2220Y8094D01*
X2211Y8067D01*
X2206Y8039D01*
X2204Y8010D01*
X2206Y7981D01*
X2211Y7953D01*
X2220Y7926D01*
X2233Y7900D01*
X2249Y7876D01*
X2268Y7854D01*
X2290Y7835D01*
X2314Y7819D01*
X2340Y7806D01*
X2367Y7797D01*
X2395Y7791D01*
X2424Y7790D01*
X2453Y7791D01*
X2481Y7797D01*
X2508Y7806D01*
X2534Y7819D01*
X2558Y7835D01*
X2580Y7854D01*
X2599Y7876D01*
X2602Y7880D01*
X2813D01*
X2987Y7706D01*
X2976Y7645D01*
X2976Y7645D01*
X2954Y7626D01*
X2935Y7604D01*
X2919Y7580D01*
X2906Y7554D01*
X2897Y7527D01*
X2891Y7499D01*
X2890Y7470D01*
X2891Y7441D01*
X2897Y7413D01*
X2906Y7386D01*
X2916Y7367D01*
X2917Y7352D01*
X2905Y7311D01*
X2902Y7305D01*
X2898Y7302D01*
X2871Y7286D01*
X2839Y7263D01*
X2811Y7237D01*
X2785Y7208D01*
X2761Y7177D01*
X2742Y7143D01*
X2725Y7108D01*
X2712Y7072D01*
X2702Y7034D01*
X2697Y6995D01*
X2695Y6957D01*
X2697Y6918D01*
X2702Y6879D01*
X2712Y6842D01*
X2725Y6805D01*
X2742Y6770D01*
X2761Y6737D01*
X2785Y6706D01*
X2811Y6677D01*
X2839Y6651D01*
X2871Y6628D01*
X2904Y6608D01*
X2939Y6591D01*
X2976Y6578D01*
X3013Y6569D01*
X3052Y6563D01*
X3091Y6561D01*
X3129Y6563D01*
X3168Y6569D01*
X3205Y6578D01*
X3242Y6591D01*
X3277Y6608D01*
X3310Y6628D01*
X3342Y6651D01*
X3370Y6677D01*
X3380Y6687D01*
X3430Y6668D01*
Y6246D01*
X3380Y6226D01*
X3370Y6237D01*
X3342Y6263D01*
X3310Y6286D01*
X3277Y6306D01*
X3242Y6322D01*
X3205Y6335D01*
X3168Y6345D01*
X3129Y6351D01*
X3091Y6352D01*
X3052Y6351D01*
X3013Y6345D01*
X2976Y6335D01*
X2939Y6322D01*
X2904Y6306D01*
X2871Y6286D01*
X2839Y6263D01*
X2811Y6237D01*
X2785Y6208D01*
X2761Y6177D01*
X2742Y6143D01*
X2725Y6108D01*
X2712Y6072D01*
X2702Y6034D01*
X2697Y5995D01*
X2695Y5957D01*
X2697Y5918D01*
X2702Y5879D01*
X2712Y5842D01*
X2725Y5805D01*
X2742Y5770D01*
X2761Y5737D01*
X2785Y5706D01*
X2811Y5677D01*
X2839Y5651D01*
X2871Y5628D01*
X2904Y5608D01*
X2939Y5591D01*
X2976Y5578D01*
X3013Y5569D01*
X3052Y5563D01*
X3091Y5561D01*
X3129Y5563D01*
X3168Y5569D01*
X3205Y5578D01*
X3242Y5591D01*
X3277Y5608D01*
X3310Y5628D01*
X3342Y5651D01*
X3370Y5677D01*
X3393Y5702D01*
X3399Y5704D01*
X3408Y5705D01*
X3452Y5697D01*
X3455Y5693D01*
X3468Y5678D01*
X4130Y5016D01*
X4145Y5003D01*
X4163Y4992D01*
X4182Y4984D01*
X4202Y4979D01*
X4222Y4978D01*
X4228Y4969D01*
X4236Y4915D01*
X4214Y4896D01*
X4195Y4874D01*
X4179Y4850D01*
X4166Y4824D01*
X4157Y4797D01*
X4151Y4769D01*
X4150Y4740D01*
X4151Y4711D01*
X4157Y4683D01*
X4166Y4656D01*
X4179Y4630D01*
X4195Y4606D01*
X4214Y4584D01*
X4236Y4565D01*
X4260Y4549D01*
X4286Y4536D01*
X4313Y4527D01*
X4341Y4521D01*
X4370Y4520D01*
X4399Y4521D01*
X4427Y4527D01*
X4454Y4536D01*
X4480Y4549D01*
X4503Y4564D01*
X4515Y4546D01*
X4534Y4524D01*
X4556Y4505D01*
X4580Y4489D01*
X4606Y4476D01*
X4633Y4467D01*
X4661Y4461D01*
X4690Y4460D01*
X4719Y4461D01*
X4747Y4467D01*
X4774Y4476D01*
X4800Y4489D01*
X4824Y4505D01*
X4846Y4524D01*
X4865Y4546D01*
X4881Y4570D01*
X4894Y4596D01*
X4903Y4623D01*
X4909Y4651D01*
X4910Y4680D01*
X4909Y4703D01*
X4942Y4740D01*
X4944Y4742D01*
X5748D01*
X5782Y4692D01*
X5781Y4689D01*
X5780Y4660D01*
X5781Y4631D01*
X5787Y4603D01*
X5796Y4576D01*
X5809Y4550D01*
X5825Y4526D01*
X5844Y4504D01*
X5866Y4485D01*
X5890Y4469D01*
X5916Y4456D01*
X5943Y4447D01*
X5971Y4441D01*
X6000Y4440D01*
X6029Y4441D01*
X6057Y4447D01*
X6084Y4456D01*
X6110Y4469D01*
X6134Y4485D01*
X6156Y4504D01*
X6175Y4526D01*
X6191Y4550D01*
X6204Y4576D01*
X6213Y4603D01*
X6217Y4624D01*
X6553D01*
X6566Y4615D01*
X6592Y4574D01*
X6590Y4566D01*
X6589Y4537D01*
X6590Y4509D01*
X6596Y4480D01*
X6605Y4453D01*
X6618Y4427D01*
X6634Y4403D01*
X6653Y4381D01*
X6665Y4371D01*
X6673Y4337D01*
X6671Y4305D01*
X6316Y3950D01*
X6177D01*
X6175Y3954D01*
X6156Y3976D01*
X6134Y3995D01*
X6110Y4011D01*
X6084Y4024D01*
X6057Y4033D01*
X6029Y4039D01*
X6000Y4040D01*
X5971Y4039D01*
X5943Y4033D01*
X5916Y4024D01*
X5890Y4011D01*
X5866Y3995D01*
X5844Y3976D01*
X5825Y3954D01*
X5809Y3930D01*
X5796Y3904D01*
X5787Y3877D01*
X5781Y3849D01*
X5780Y3820D01*
X5781Y3791D01*
X5787Y3763D01*
X5796Y3736D01*
X5809Y3710D01*
X5825Y3686D01*
X5844Y3664D01*
X5866Y3645D01*
X5890Y3629D01*
X5916Y3616D01*
X5943Y3607D01*
X5971Y3601D01*
X6000Y3600D01*
X6029Y3601D01*
X6057Y3607D01*
X6084Y3616D01*
X6110Y3629D01*
X6134Y3645D01*
X6156Y3664D01*
X6175Y3686D01*
X6177Y3690D01*
X6370D01*
X6390Y3691D01*
X6410Y3696D01*
X6429Y3704D01*
X6447Y3715D01*
X6462Y3728D01*
X6882Y4147D01*
X7155D01*
X7191Y4099D01*
X7191Y4097D01*
X7190Y4070D01*
X7191Y4041D01*
X7197Y4013D01*
X7206Y3986D01*
X7219Y3960D01*
X7235Y3936D01*
X7254Y3914D01*
X7276Y3895D01*
X7280Y3893D01*
Y3812D01*
X7256Y3804D01*
X7230Y3791D01*
X7206Y3775D01*
X7184Y3756D01*
X7165Y3734D01*
X7149Y3710D01*
X7136Y3684D01*
X7127Y3657D01*
X7121Y3629D01*
X7120Y3600D01*
X7121Y3571D01*
X7127Y3543D01*
X7136Y3516D01*
X7149Y3490D01*
X7165Y3466D01*
X7184Y3444D01*
X7206Y3425D01*
X7230Y3409D01*
X7228Y3354D01*
X7225Y3349D01*
X6794D01*
X6697Y3447D01*
X6681Y3460D01*
X6664Y3470D01*
X6645Y3478D01*
X6625Y3483D01*
X6605Y3484D01*
X6511D01*
X6498Y3490D01*
X6478Y3495D01*
X6458Y3496D01*
X5830D01*
X5825Y3504D01*
X5806Y3526D01*
X5784Y3545D01*
X5760Y3561D01*
X5734Y3574D01*
X5707Y3583D01*
X5679Y3589D01*
X5650Y3590D01*
X5621Y3589D01*
X5593Y3583D01*
X5566Y3574D01*
X5540Y3561D01*
X5516Y3545D01*
X5494Y3526D01*
X5475Y3504D01*
X5459Y3480D01*
X5446Y3454D01*
X5437Y3427D01*
X5431Y3399D01*
X5430Y3370D01*
X5431Y3341D01*
X5437Y3313D01*
X5446Y3286D01*
X5459Y3260D01*
X5475Y3236D01*
X5494Y3214D01*
X5516Y3195D01*
X5540Y3179D01*
X5566Y3166D01*
X5593Y3157D01*
X5621Y3151D01*
X5650Y3150D01*
X5679Y3151D01*
X5680Y3152D01*
X5721Y3135D01*
X5735Y3114D01*
X5737Y3103D01*
X5746Y3076D01*
X5759Y3050D01*
X5775Y3026D01*
X5794Y3004D01*
X5816Y2985D01*
X5840Y2969D01*
X5866Y2956D01*
X5893Y2947D01*
X5921Y2941D01*
X5950Y2940D01*
X5979Y2941D01*
X6007Y2947D01*
X6034Y2956D01*
X6060Y2969D01*
X6084Y2985D01*
X6106Y3004D01*
X6111Y3010D01*
X6318D01*
X6504Y2824D01*
X6522Y2809D01*
X6542Y2796D01*
X6564Y2787D01*
X6586Y2782D01*
X6610Y2780D01*
X6979D01*
X6984Y2775D01*
X7006Y2756D01*
X7030Y2740D01*
X7056Y2727D01*
X7083Y2718D01*
X7111Y2712D01*
X7140Y2710D01*
X7169Y2712D01*
X7197Y2718D01*
X7224Y2727D01*
X7250Y2740D01*
X7274Y2756D01*
X7296Y2775D01*
X7315Y2796D01*
X7331Y2820D01*
X7344Y2846D01*
X7353Y2873D01*
X7359Y2902D01*
X7360Y2930D01*
X7359Y2959D01*
X7353Y2988D01*
X7344Y3015D01*
X7333Y3036D01*
X7357Y3079D01*
X7380Y3080D01*
X7403Y3075D01*
X7407Y3053D01*
X7416Y3026D01*
X7429Y3000D01*
X7445Y2976D01*
X7464Y2954D01*
X7486Y2935D01*
X7510Y2919D01*
X7536Y2906D01*
X7563Y2897D01*
X7591Y2891D01*
X7620Y2890D01*
X7649Y2891D01*
X7677Y2897D01*
X7704Y2906D01*
X7730Y2919D01*
X7754Y2935D01*
X7776Y2954D01*
X7795Y2976D01*
X7811Y3000D01*
X7824Y3026D01*
X7833Y3053D01*
X7839Y3081D01*
X7840Y3110D01*
X7839Y3139D01*
X7833Y3167D01*
X7824Y3194D01*
X7811Y3220D01*
X7795Y3244D01*
X7776Y3266D01*
X7754Y3285D01*
X7730Y3301D01*
X7704Y3314D01*
X7677Y3323D01*
X7649Y3329D01*
X7620Y3330D01*
X7591Y3329D01*
X7583Y3327D01*
X7569Y3335D01*
X7550Y3343D01*
X7530Y3348D01*
X7510Y3349D01*
X7455D01*
X7452Y3354D01*
X7450Y3409D01*
X7474Y3425D01*
X7496Y3444D01*
X7515Y3466D01*
X7531Y3490D01*
X7544Y3516D01*
X7553Y3543D01*
X7559Y3571D01*
X7560Y3600D01*
X7559Y3629D01*
X7553Y3657D01*
X7544Y3684D01*
X7540Y3691D01*
Y3893D01*
X7544Y3895D01*
X7566Y3914D01*
X7585Y3936D01*
X7587Y3940D01*
X7860D01*
X7880Y3941D01*
X7900Y3946D01*
X7919Y3954D01*
X7937Y3965D01*
X7952Y3978D01*
X8129Y4155D01*
X8740D01*
X8893Y4002D01*
X8908Y3989D01*
X8926Y3978D01*
X8945Y3970D01*
X8965Y3965D01*
X8985Y3964D01*
X9188D01*
X9274Y3878D01*
X9267Y3857D01*
X9261Y3829D01*
X9260Y3800D01*
X9261Y3771D01*
X9267Y3743D01*
X9276Y3716D01*
X9289Y3690D01*
X9302Y3670D01*
X9141Y3509D01*
X9128Y3515D01*
X9091Y3528D01*
X9054Y3538D01*
X9015Y3543D01*
X8976Y3545D01*
X8938Y3543D01*
X8899Y3538D01*
X8862Y3528D01*
X8825Y3515D01*
X8790Y3499D01*
X8757Y3479D01*
X8725Y3456D01*
X8697Y3429D01*
X8670Y3401D01*
X8647Y3369D01*
X8627Y3336D01*
X8611Y3301D01*
X8598Y3264D01*
X8588Y3227D01*
X8583Y3188D01*
X8581Y3150D01*
X8583Y3111D01*
X8588Y3072D01*
X8598Y3035D01*
X8611Y2998D01*
X8627Y2963D01*
X8647Y2930D01*
X8670Y2899D01*
X8697Y2870D01*
X8725Y2844D01*
X8757Y2821D01*
X8790Y2801D01*
X8825Y2784D01*
X8862Y2771D01*
X8899Y2761D01*
X8938Y2756D01*
X8976Y2754D01*
X9015Y2756D01*
X9054Y2761D01*
X9091Y2771D01*
X9128Y2784D01*
X9148Y2794D01*
X9246Y2696D01*
X9261Y2682D01*
X9279Y2672D01*
X9298Y2664D01*
X9318Y2659D01*
X9338Y2657D01*
X9828D01*
X9878Y2608D01*
X9893Y2594D01*
X9911Y2584D01*
X9930Y2576D01*
X9950Y2571D01*
X9970Y2570D01*
X10540D01*
X10560Y2571D01*
X10580Y2576D01*
X10599Y2584D01*
X10617Y2594D01*
X10632Y2608D01*
X10698Y2674D01*
X11135D01*
X11182Y2627D01*
Y2122D01*
X11180Y2121D01*
X11156Y2105D01*
X11134Y2086D01*
X11115Y2064D01*
X11099Y2040D01*
X11086Y2014D01*
X11077Y1987D01*
X11071Y1959D01*
X11070Y1930D01*
X11071Y1901D01*
X11077Y1873D01*
X11086Y1846D01*
X11099Y1820D01*
X11115Y1796D01*
X11134Y1774D01*
X11156Y1755D01*
X11180Y1739D01*
X11206Y1726D01*
X11233Y1717D01*
X11261Y1711D01*
X11290Y1710D01*
X11319Y1711D01*
X11347Y1717D01*
X11374Y1726D01*
X11400Y1739D01*
X11424Y1755D01*
X11446Y1774D01*
X11465Y1796D01*
X11481Y1820D01*
X11494Y1846D01*
X11503Y1873D01*
X11509Y1901D01*
X11509Y1910D01*
X11520Y1910D01*
X11549Y1911D01*
X11577Y1917D01*
X11604Y1926D01*
X11630Y1939D01*
X11654Y1955D01*
X11676Y1974D01*
X11695Y1996D01*
X11711Y2020D01*
X11724Y2046D01*
X11733Y2073D01*
X11739Y2101D01*
X11740Y2130D01*
X11739Y2159D01*
X11733Y2187D01*
X11724Y2214D01*
X11711Y2240D01*
X11695Y2264D01*
X11676Y2286D01*
X11654Y2305D01*
X11650Y2307D01*
Y2477D01*
X11700Y2512D01*
X11701Y2511D01*
X11730Y2510D01*
X11759Y2511D01*
X11787Y2517D01*
X11814Y2526D01*
X11840Y2539D01*
X11864Y2555D01*
X11886Y2574D01*
X11905Y2596D01*
X11921Y2620D01*
X11934Y2646D01*
X11943Y2673D01*
X11946Y2690D01*
X12227D01*
X12261Y2646D01*
Y2341D01*
X12461D01*
X12468Y2334D01*
X12486Y2291D01*
X12481Y2283D01*
X12467Y2259D01*
X12457Y2233D01*
X12449Y2206D01*
X12444Y2178D01*
X12443Y2150D01*
Y1532D01*
X12443Y1532D01*
X12445Y1466D01*
X12450Y1401D01*
X12460Y1337D01*
X12474Y1273D01*
X12492Y1210D01*
X12513Y1148D01*
X12538Y1087D01*
X12567Y1028D01*
X12599Y971D01*
X12634Y916D01*
X12673Y864D01*
X12715Y813D01*
X12760Y766D01*
X12808Y721D01*
X12858Y679D01*
X12911Y640D01*
X12966Y605D01*
X13023Y572D01*
X13081Y544D01*
X13142Y519D01*
X13204Y497D01*
X13267Y480D01*
X13331Y466D01*
X13396Y456D01*
X13461Y450D01*
X13526Y448D01*
Y448D01*
X13543Y448D01*
X16024D01*
X16052Y450D01*
X16079Y455D01*
X16106Y462D01*
X16132Y473D01*
X16157Y487D01*
X16180Y503D01*
X16183Y506D01*
X16228Y529D01*
X16243Y517D01*
X16261Y508D01*
X16280Y502D01*
X16299Y500D01*
X16394D01*
X16417Y498D01*
X16624D01*
X16637Y487D01*
X16654Y478D01*
X16673Y472D01*
X16693Y470D01*
X16890D01*
X16909Y472D01*
X16928Y478D01*
X16946Y487D01*
X16959Y498D01*
X17175D01*
X17198Y500D01*
X17280D01*
Y169D01*
X6429D01*
Y709D01*
X6428Y729D01*
X6423Y749D01*
X6415Y768D01*
X6404Y785D01*
X6391Y801D01*
X6376Y814D01*
X6358Y824D01*
X6339Y832D01*
X6320Y837D01*
X6299Y839D01*
X3150D01*
X3129Y837D01*
X3109Y832D01*
X3091Y824D01*
X3073Y814D01*
X3058Y801D01*
X3044Y785D01*
X3034Y768D01*
X3026Y749D01*
X3021Y729D01*
X3020Y709D01*
Y169D01*
X130D01*
Y3681D01*
X604D01*
X620Y3672D01*
X643Y3637D01*
X644Y3634D01*
X641Y3618D01*
X640Y3612D01*
X639Y3606D01*
X637Y3579D01*
X637Y3576D01*
X637Y3573D01*
X637Y3570D01*
X637Y3566D01*
X639Y3540D01*
X640Y3534D01*
X641Y3527D01*
X646Y3501D01*
X648Y3495D01*
X649Y3489D01*
X657Y3464D01*
X660Y3458D01*
X662Y3452D01*
X674Y3428D01*
X677Y3423D01*
X681Y3417D01*
X695Y3395D01*
X699Y3390D01*
X703Y3385D01*
X720Y3365D01*
X725Y3361D01*
X730Y3356D01*
X749Y3339D01*
X755Y3335D01*
X760Y3331D01*
X781Y3316D01*
X787Y3313D01*
X793Y3310D01*
X816Y3298D01*
X822Y3296D01*
X828Y3293D01*
X853Y3285D01*
X859Y3283D01*
X866Y3281D01*
X891Y3276D01*
X898Y3276D01*
X904Y3275D01*
X931Y3273D01*
X937Y3273D01*
X943Y3273D01*
X970Y3275D01*
X976Y3276D01*
X983Y3276D01*
X1008Y3281D01*
X1015Y3283D01*
X1021Y3285D01*
X1046Y3293D01*
X1052Y3296D01*
X1058Y3298D01*
X1081Y3310D01*
X1087Y3313D01*
X1093Y3316D01*
X1114Y3331D01*
X1119Y3335D01*
X1125Y3339D01*
X1129Y3343D01*
X1176Y3325D01*
X1180Y3322D01*
X1181Y3308D01*
X1187Y3269D01*
X1196Y3232D01*
X1209Y3195D01*
X1226Y3160D01*
X1246Y3127D01*
X1269Y3095D01*
X1295Y3067D01*
X1324Y3041D01*
X1355Y3017D01*
X1388Y2997D01*
X1423Y2981D01*
X1460Y2968D01*
X1498Y2958D01*
X1536Y2953D01*
X1575Y2951D01*
X1614Y2953D01*
X1652Y2958D01*
X1690Y2968D01*
X1726Y2981D01*
X1746Y2990D01*
X2152Y2585D01*
X2167Y2572D01*
X2185Y2561D01*
X2204Y2553D01*
X2224Y2548D01*
X2244Y2547D01*
X3144D01*
X3164Y2548D01*
X3184Y2553D01*
X3203Y2561D01*
X3221Y2572D01*
X3236Y2585D01*
X3720Y3069D01*
X3729Y3064D01*
X3756Y3055D01*
X3784Y3049D01*
X3813Y3047D01*
X3842Y3049D01*
X3870Y3055D01*
X3898Y3064D01*
X3923Y3077D01*
X3947Y3093D01*
X3969Y3112D01*
X3988Y3133D01*
X4004Y3157D01*
X4017Y3183D01*
X4026Y3211D01*
X4032Y3239D01*
X4034Y3268D01*
X4032Y3296D01*
X4026Y3325D01*
X4017Y3352D01*
X4004Y3378D01*
X3988Y3402D01*
X3969Y3424D01*
X3947Y3443D01*
X3923Y3459D01*
X3898Y3471D01*
X3870Y3481D01*
X3842Y3486D01*
X3813Y3488D01*
X3784Y3486D01*
X3756Y3481D01*
X3729Y3471D01*
X3703Y3459D01*
X3679Y3443D01*
X3657Y3424D01*
X3638Y3402D01*
X3622Y3378D01*
X3609Y3352D01*
X3600Y3325D01*
X3598Y3316D01*
X3090Y2808D01*
X2298D01*
X1931Y3175D01*
X1940Y3195D01*
X1954Y3232D01*
X1963Y3269D01*
X1969Y3308D01*
X1971Y3346D01*
X1969Y3385D01*
X1963Y3424D01*
X1954Y3461D01*
X1940Y3498D01*
X1924Y3533D01*
X1904Y3566D01*
X1881Y3598D01*
X1855Y3626D01*
X1826Y3652D01*
X1795Y3676D01*
X1761Y3695D01*
X1726Y3712D01*
X1690Y3725D01*
X1652Y3735D01*
X1614Y3740D01*
X1575Y3742D01*
X1536Y3740D01*
X1498Y3735D01*
X1460Y3725D01*
X1423Y3712D01*
X1388Y3695D01*
X1355Y3676D01*
X1324Y3652D01*
X1295Y3626D01*
X1284Y3615D01*
X1272Y3614D01*
X1264Y3615D01*
X1231Y3630D01*
X1228Y3644D01*
X1226Y3650D01*
X1225Y3657D01*
X1217Y3682D01*
X1214Y3688D01*
X1212Y3694D01*
X1200Y3717D01*
X1197Y3723D01*
X1194Y3728D01*
X1179Y3750D01*
X1175Y3755D01*
X1171Y3761D01*
X1154Y3780D01*
X1149Y3785D01*
X1145Y3789D01*
X1125Y3807D01*
X1119Y3811D01*
X1114Y3815D01*
X1093Y3829D01*
X1087Y3832D01*
X1081Y3836D01*
X1058Y3847D01*
X1052Y3850D01*
X1046Y3852D01*
X1021Y3861D01*
X1015Y3862D01*
X1008Y3864D01*
X983Y3869D01*
X976Y3870D01*
X970Y3871D01*
X943Y3873D01*
X937Y3873D01*
X931Y3873D01*
X904Y3871D01*
X898Y3870D01*
X891Y3869D01*
X866Y3864D01*
X859Y3862D01*
X853Y3861D01*
X828Y3852D01*
X822Y3850D01*
X816Y3847D01*
X793Y3836D01*
X765Y3845D01*
X765Y3845D01*
X744Y3864D01*
Y4781D01*
X765Y4801D01*
X765Y4801D01*
X793Y4810D01*
X816Y4798D01*
X822Y4796D01*
X828Y4793D01*
X853Y4785D01*
X859Y4783D01*
X866Y4781D01*
X891Y4776D01*
X898Y4776D01*
X904Y4775D01*
X931Y4773D01*
X937Y4773D01*
X943Y4773D01*
X970Y4775D01*
X976Y4776D01*
X983Y4776D01*
X1008Y4781D01*
X1015Y4783D01*
X1021Y4785D01*
X1046Y4793D01*
X1052Y4796D01*
X1058Y4798D01*
X1081Y4810D01*
X1087Y4813D01*
X1093Y4816D01*
X1114Y4831D01*
X1119Y4835D01*
X1125Y4839D01*
X1145Y4856D01*
X1149Y4861D01*
X1154Y4865D01*
X1171Y4885D01*
X1175Y4890D01*
X1179Y4895D01*
X1194Y4917D01*
X1197Y4923D01*
X1200Y4928D01*
X1212Y4952D01*
X1214Y4958D01*
X1217Y4964D01*
X1225Y4989D01*
X1226Y4995D01*
X1228Y5001D01*
X1234Y5027D01*
X1234Y5034D01*
X1235Y5040D01*
X1237Y5066D01*
X1237Y5070D01*
X1237Y5073D01*
X1237Y5076D01*
X1237Y5079D01*
X1235Y5106D01*
X1234Y5112D01*
X1234Y5118D01*
X1228Y5144D01*
X1226Y5150D01*
X1225Y5157D01*
X1217Y5182D01*
X1214Y5188D01*
X1212Y5194D01*
X1200Y5217D01*
X1197Y5223D01*
X1194Y5228D01*
X1179Y5250D01*
X1175Y5255D01*
X1171Y5261D01*
X1154Y5280D01*
X1149Y5285D01*
X1145Y5289D01*
X1125Y5307D01*
X1119Y5311D01*
X1114Y5315D01*
X1093Y5329D01*
X1087Y5332D01*
X1081Y5336D01*
X1058Y5347D01*
X1052Y5350D01*
X1046Y5352D01*
X1021Y5361D01*
X1015Y5362D01*
X1008Y5364D01*
X983Y5369D01*
X976Y5370D01*
X970Y5371D01*
X943Y5373D01*
X937Y5373D01*
X931Y5373D01*
X904Y5371D01*
X898Y5370D01*
X891Y5369D01*
X866Y5364D01*
X859Y5362D01*
X853Y5361D01*
X828Y5352D01*
X822Y5350D01*
X816Y5347D01*
X793Y5336D01*
X787Y5332D01*
X781Y5329D01*
X760Y5315D01*
X755Y5311D01*
X749Y5307D01*
X730Y5289D01*
X725Y5285D01*
X720Y5280D01*
X703Y5261D01*
X699Y5255D01*
X695Y5250D01*
X681Y5228D01*
X677Y5223D01*
X674Y5217D01*
X662Y5194D01*
X660Y5188D01*
X657Y5182D01*
X649Y5157D01*
X648Y5150D01*
X646Y5144D01*
X641Y5118D01*
X640Y5112D01*
X639Y5106D01*
X637Y5079D01*
X637Y5076D01*
X637Y5073D01*
X637Y5070D01*
X637Y5066D01*
X639Y5040D01*
X640Y5034D01*
X641Y5027D01*
X644Y5011D01*
X643Y5009D01*
X620Y4973D01*
X604Y4965D01*
X130D01*
Y8538D01*
X180Y8548D01*
X183Y8541D01*
X198Y8514D01*
X216Y8488D01*
X237Y8465D01*
X260Y8444D01*
X285Y8426D01*
X313Y8411D01*
X341Y8399D01*
X371Y8391D01*
X402Y8386D01*
X433Y8384D01*
X521D01*
Y8661D01*
Y8939D01*
X433D01*
X402Y8937D01*
X371Y8932D01*
X341Y8923D01*
X313Y8912D01*
X285Y8896D01*
X260Y8878D01*
X237Y8858D01*
X216Y8834D01*
X198Y8809D01*
X183Y8782D01*
X180Y8775D01*
X130Y8784D01*
Y11137D01*
X180Y11147D01*
X183Y11139D01*
X198Y11112D01*
X216Y11087D01*
X237Y11064D01*
X260Y11043D01*
X285Y11025D01*
X313Y11010D01*
X341Y10998D01*
X371Y10989D01*
X402Y10984D01*
X433Y10982D01*
X521D01*
Y11260D01*
Y11537D01*
X433D01*
X402Y11536D01*
X371Y11530D01*
X341Y11522D01*
X313Y11510D01*
X285Y11495D01*
X260Y11477D01*
X237Y11456D01*
X216Y11433D01*
X198Y11408D01*
X183Y11380D01*
X180Y11373D01*
X130Y11383D01*
Y19752D01*
X1871D01*
X1880Y19746D01*
X1907Y19706D01*
X1907Y19702D01*
X1905Y19685D01*
Y19090D01*
X1855Y19068D01*
X1842Y19080D01*
X1839Y19083D01*
X1836Y19085D01*
X1798Y19115D01*
X1795Y19117D01*
X1792Y19120D01*
X1752Y19146D01*
X1749Y19148D01*
X1745Y19150D01*
X1704Y19174D01*
X1700Y19175D01*
X1697Y19177D01*
X1653Y19197D01*
X1649Y19199D01*
X1646Y19200D01*
X1601Y19217D01*
X1597Y19218D01*
X1594Y19219D01*
X1547Y19232D01*
X1544Y19233D01*
X1540Y19234D01*
X1493Y19244D01*
X1489Y19244D01*
X1485Y19245D01*
X1437Y19250D01*
X1434Y19250D01*
X1430Y19251D01*
X1382Y19253D01*
X1378Y19253D01*
X1374Y19253D01*
X1326Y19251D01*
X1322Y19250D01*
X1318Y19250D01*
X1271Y19245D01*
X1267Y19244D01*
X1263Y19244D01*
X1216Y19234D01*
X1212Y19233D01*
X1209Y19232D01*
X1162Y19219D01*
X1159Y19218D01*
X1155Y19217D01*
X1110Y19200D01*
X1107Y19199D01*
X1103Y19197D01*
X1059Y19177D01*
X1056Y19175D01*
X1052Y19174D01*
X1011Y19150D01*
X1007Y19148D01*
X1004Y19146D01*
X964Y19120D01*
X961Y19117D01*
X958Y19115D01*
X920Y19085D01*
X917Y19083D01*
X914Y19080D01*
X879Y19048D01*
X876Y19045D01*
X873Y19042D01*
X841Y19007D01*
X839Y19004D01*
X836Y19001D01*
X806Y18964D01*
X804Y18960D01*
X802Y18957D01*
X775Y18917D01*
X773Y18914D01*
X771Y18911D01*
X748Y18869D01*
X746Y18865D01*
X744Y18862D01*
X724Y18818D01*
X723Y18815D01*
X721Y18811D01*
X704Y18766D01*
X703Y18762D01*
X702Y18759D01*
X689Y18713D01*
X688Y18709D01*
X687Y18705D01*
X678Y18658D01*
X677Y18654D01*
X677Y18650D01*
X671Y18603D01*
X671Y18599D01*
X670Y18595D01*
X668Y18547D01*
X669Y18545D01*
X668Y18543D01*
X669Y18541D01*
X668Y18539D01*
X670Y18492D01*
X671Y18488D01*
X671Y18484D01*
X677Y18436D01*
X677Y18432D01*
X678Y18428D01*
X687Y18381D01*
X688Y18378D01*
X689Y18374D01*
X702Y18328D01*
X703Y18324D01*
X704Y18320D01*
X721Y18275D01*
X723Y18272D01*
X724Y18268D01*
X744Y18225D01*
X746Y18221D01*
X748Y18218D01*
X771Y18176D01*
X773Y18173D01*
X775Y18169D01*
X802Y18129D01*
X804Y18126D01*
X806Y18123D01*
X836Y18085D01*
X839Y18083D01*
X841Y18080D01*
X873Y18044D01*
X876Y18042D01*
X879Y18039D01*
X914Y18006D01*
X917Y18004D01*
X920Y18001D01*
X958Y17972D01*
X961Y17969D01*
X964Y17967D01*
X1004Y17940D01*
X1007Y17939D01*
X1011Y17936D01*
X1052Y17913D01*
X1056Y17911D01*
X1059Y17909D01*
X1103Y17889D01*
X1107Y17888D01*
X1110Y17886D01*
X1155Y17870D01*
X1159Y17869D01*
X1162Y17867D01*
X1209Y17854D01*
X1212Y17854D01*
X1216Y17852D01*
X1263Y17843D01*
X1267Y17843D01*
X1271Y17842D01*
X1318Y17836D01*
X1322Y17836D01*
X1326Y17836D01*
X1374Y17834D01*
X1378Y17834D01*
X1382Y17834D01*
X1430Y17836D01*
X1434Y17836D01*
X1437Y17836D01*
X1485Y17842D01*
X1489Y17843D01*
X1493Y17843D01*
X1540Y17852D01*
X1544Y17854D01*
X1547Y17854D01*
X1594Y17867D01*
X1597Y17869D01*
X1601Y17870D01*
X1646Y17886D01*
X1649Y17888D01*
X1653Y17889D01*
X1697Y17909D01*
X1700Y17911D01*
X1704Y17913D01*
X1745Y17936D01*
X1749Y17939D01*
X1752Y17940D01*
X1792Y17967D01*
X1795Y17969D01*
X1798Y17972D01*
X1836Y18001D01*
X1839Y18004D01*
X1842Y18006D01*
X1877Y18039D01*
X1880Y18042D01*
X1882Y18044D01*
X1915Y18080D01*
X1917Y18083D01*
X1920Y18085D01*
X1950Y18123D01*
X1952Y18126D01*
X1954Y18129D01*
X1981Y18169D01*
X1983Y18173D01*
X1985Y18176D01*
X2008Y18218D01*
X2010Y18221D01*
X2012Y18225D01*
X2032Y18268D01*
X2033Y18272D01*
X2035Y18275D01*
X2052Y18320D01*
X2053Y18324D01*
X2054Y18328D01*
X2067Y18374D01*
X2068Y18378D01*
X2069Y18381D01*
X2078Y18428D01*
X2079Y18432D01*
X2079Y18436D01*
X2085Y18484D01*
X2085Y18488D01*
X2086Y18492D01*
X2087Y18539D01*
X2087Y18541D01*
X2088Y18543D01*
X2087Y18545D01*
X2087Y18547D01*
X2086Y18595D01*
X2085Y18599D01*
X2085Y18603D01*
X2079Y18650D01*
X2079Y18654D01*
X2078Y18658D01*
X2069Y18705D01*
X2068Y18709D01*
X2067Y18713D01*
X2058Y18745D01*
X2081Y18789D01*
X2088Y18795D01*
X2610D01*
X2625Y18782D01*
X2645Y18745D01*
X2641Y18731D01*
X2636Y18701D01*
X2635Y18670D01*
X2636Y18639D01*
X2641Y18609D01*
X2650Y18579D01*
X2662Y18550D01*
X2677Y18523D01*
X2690Y18505D01*
X2689Y18487D01*
X2671Y18450D01*
X2654Y18446D01*
X2622Y18434D01*
X2591Y18419D01*
X2561Y18402D01*
X2534Y18381D01*
X2508Y18358D01*
X2485Y18333D01*
X2465Y18305D01*
X2447Y18275D01*
X2432Y18244D01*
X2421Y18212D01*
X2412Y18179D01*
X2409Y18160D01*
X2756D01*
X3102D01*
X3100Y18179D01*
X3091Y18212D01*
X3080Y18244D01*
X3065Y18275D01*
X3047Y18305D01*
X3027Y18333D01*
X3016Y18345D01*
X3032Y18389D01*
X3038Y18395D01*
X3079D01*
X3079Y18395D01*
X3110Y18396D01*
X3141Y18401D01*
X3170Y18410D01*
X3199Y18422D01*
X3226Y18437D01*
X3251Y18455D01*
X3274Y18475D01*
X3618Y18819D01*
X3943D01*
X3952Y18783D01*
X3965Y18746D01*
X3982Y18711D01*
X4002Y18678D01*
X4025Y18647D01*
X4051Y18618D01*
X4080Y18592D01*
X4111Y18569D01*
X4144Y18549D01*
X4179Y18532D01*
X4216Y18519D01*
X4254Y18509D01*
X4292Y18504D01*
X4331Y18502D01*
X4369Y18504D01*
X4408Y18509D01*
X4446Y18519D01*
X4482Y18532D01*
X4517Y18549D01*
X4551Y18569D01*
X4582Y18592D01*
X4611Y18618D01*
X4637Y18647D01*
X4660Y18678D01*
X4680Y18711D01*
X4696Y18746D01*
X4709Y18783D01*
X4719Y18820D01*
X4725Y18859D01*
X4726Y18898D01*
X4725Y18936D01*
X4719Y18975D01*
X4709Y19013D01*
X4696Y19049D01*
X4680Y19084D01*
X4660Y19118D01*
X4637Y19149D01*
X4611Y19177D01*
X4582Y19204D01*
X4551Y19227D01*
X4517Y19247D01*
X4482Y19263D01*
X4446Y19276D01*
X4408Y19286D01*
X4369Y19291D01*
X4331Y19293D01*
X4324Y19293D01*
X4306Y19310D01*
X4280Y19328D01*
X4253Y19343D01*
X4225Y19354D01*
X4195Y19363D01*
X4165Y19368D01*
X4134Y19370D01*
X4134Y19370D01*
X3504D01*
X3473Y19368D01*
X3443Y19363D01*
X3413Y19354D01*
X3384Y19343D01*
X3357Y19328D01*
X3332Y19310D01*
X3309Y19289D01*
X3309Y19289D01*
X2965Y18945D01*
X2910D01*
X2898Y18957D01*
Y19685D01*
X2896Y19702D01*
X2896Y19706D01*
X2923Y19746D01*
X2932Y19752D01*
X10383D01*
X10403Y19706D01*
D02*
G37*
G36*
X15146Y18750D02*
X14220D01*
X14187Y18750D01*
X14180Y18750D01*
X14170Y18750D01*
Y18750D01*
X14151Y18749D01*
X14123Y18743D01*
X14096Y18734D01*
X14070Y18721D01*
X14046Y18705D01*
X14024Y18686D01*
X14005Y18664D01*
X14002Y18659D01*
X13989Y18652D01*
X13971Y18636D01*
X13576Y18241D01*
X13560Y18223D01*
X13548Y18203D01*
X13539Y18181D01*
X13534Y18158D01*
X13532Y18134D01*
Y17946D01*
X13534Y17922D01*
X13539Y17899D01*
X13548Y17877D01*
X13560Y17857D01*
X13576Y17839D01*
X13642Y17773D01*
X13641Y17769D01*
X13640Y17740D01*
X13641Y17711D01*
X13647Y17683D01*
X13656Y17656D01*
X13669Y17630D01*
X13685Y17606D01*
X13704Y17584D01*
X13726Y17565D01*
X13750Y17549D01*
X13776Y17536D01*
X13803Y17527D01*
X13831Y17521D01*
X13860Y17520D01*
X13889Y17521D01*
X13917Y17527D01*
X13944Y17536D01*
X13970Y17549D01*
X13993Y17564D01*
X14080Y17477D01*
Y16601D01*
X14075Y16596D01*
X14056Y16575D01*
X14040Y16551D01*
X14027Y16525D01*
X14018Y16498D01*
X14012Y16469D01*
X14010Y16441D01*
X14012Y16412D01*
X14018Y16383D01*
X14027Y16356D01*
X14040Y16330D01*
X14056Y16306D01*
X14075Y16285D01*
X14096Y16266D01*
X14120Y16250D01*
X14146Y16237D01*
X14173Y16228D01*
X14202Y16222D01*
X14231Y16220D01*
X14259Y16222D01*
X14288Y16228D01*
X14315Y16237D01*
X14341Y16250D01*
X14365Y16266D01*
X14386Y16285D01*
X14405Y16306D01*
X14411Y16315D01*
X14455Y16326D01*
X14474Y16323D01*
X14608Y16189D01*
X14589Y16143D01*
X14552D01*
X14529Y16141D01*
X14506Y16135D01*
X14484Y16126D01*
X14464Y16114D01*
X14446Y16099D01*
X14437Y16090D01*
X14430Y16090D01*
X14401Y16089D01*
X14373Y16083D01*
X14346Y16074D01*
X14320Y16061D01*
X14296Y16045D01*
X14274Y16026D01*
X14255Y16004D01*
X14239Y15980D01*
X14226Y15954D01*
X14217Y15927D01*
X14211Y15899D01*
X14210Y15870D01*
X14211Y15841D01*
X14217Y15813D01*
X14226Y15786D01*
X14239Y15760D01*
X14255Y15736D01*
X14274Y15714D01*
X14296Y15695D01*
X14320Y15679D01*
X14346Y15666D01*
X14373Y15657D01*
X14401Y15651D01*
X14430Y15650D01*
X14438Y15650D01*
X14455Y15601D01*
X14432Y15586D01*
X14382Y15548D01*
X14335Y15509D01*
X14290Y15466D01*
X14247Y15421D01*
X14207Y15374D01*
X14170Y15324D01*
X14136Y15273D01*
X14104Y15219D01*
X14076Y15164D01*
X14051Y15108D01*
X14028Y15050D01*
X14010Y14991D01*
X14000Y14952D01*
X13949Y14957D01*
X13949Y14969D01*
X13943Y14997D01*
X13934Y15024D01*
X13921Y15050D01*
X13905Y15074D01*
X13886Y15096D01*
X13864Y15115D01*
X13840Y15131D01*
X13814Y15144D01*
X13787Y15153D01*
X13759Y15159D01*
X13730Y15160D01*
X13701Y15159D01*
X13673Y15153D01*
X13646Y15144D01*
X13620Y15131D01*
X13596Y15115D01*
X13574Y15096D01*
X13555Y15074D01*
X13539Y15050D01*
X13526Y15024D01*
X13517Y14997D01*
X13511Y14969D01*
X13510Y14940D01*
X13511Y14911D01*
X13512Y14907D01*
X13443Y14838D01*
X13429Y14838D01*
X12501Y15766D01*
X12526Y15813D01*
X12531Y15811D01*
X12560Y15810D01*
X12589Y15811D01*
X12617Y15817D01*
X12644Y15826D01*
X12670Y15839D01*
X12694Y15855D01*
X12716Y15874D01*
X12721Y15880D01*
X12798D01*
X13090Y15587D01*
X13090Y15580D01*
X13091Y15551D01*
X13097Y15523D01*
X13106Y15496D01*
X13119Y15470D01*
X13135Y15446D01*
X13154Y15424D01*
X13176Y15405D01*
X13200Y15389D01*
X13226Y15376D01*
X13253Y15367D01*
X13281Y15361D01*
X13310Y15360D01*
X13339Y15361D01*
X13367Y15367D01*
X13394Y15376D01*
X13420Y15389D01*
X13444Y15405D01*
X13466Y15424D01*
X13485Y15446D01*
X13501Y15470D01*
X13514Y15496D01*
X13523Y15523D01*
X13529Y15551D01*
X13530Y15580D01*
X13529Y15609D01*
X13523Y15637D01*
X13514Y15664D01*
X13501Y15690D01*
X13485Y15714D01*
X13466Y15736D01*
X13444Y15755D01*
X13420Y15771D01*
X13394Y15784D01*
X13367Y15793D01*
X13339Y15799D01*
X13310Y15800D01*
X13303Y15800D01*
X12966Y16136D01*
X12948Y16152D01*
X12928Y16164D01*
X12907Y16173D01*
X12884Y16179D01*
X12860Y16180D01*
X12721D01*
X12716Y16186D01*
X12694Y16205D01*
X12670Y16221D01*
X12644Y16234D01*
X12617Y16243D01*
X12589Y16249D01*
X12560Y16250D01*
X12531Y16249D01*
X12503Y16243D01*
X12476Y16234D01*
X12450Y16221D01*
X12426Y16205D01*
X12404Y16186D01*
X12357Y16195D01*
X12333Y16211D01*
X12307Y16224D01*
X12279Y16233D01*
X12251Y16239D01*
X12222Y16240D01*
X12194Y16239D01*
X12165Y16233D01*
X12138Y16224D01*
X12112Y16211D01*
X12088Y16195D01*
X12078Y16186D01*
X12039Y16199D01*
X12028Y16208D01*
Y16628D01*
X12027Y16649D01*
X12022Y16668D01*
X12014Y16687D01*
X12003Y16705D01*
X11990Y16720D01*
X11698Y17012D01*
X11684Y17025D01*
X11683Y17026D01*
X11675Y17048D01*
X11672Y17073D01*
X11674Y17084D01*
X11675Y17086D01*
X11688Y17101D01*
X11709Y17128D01*
X11726Y17158D01*
X11741Y17189D01*
X11753Y17221D01*
X11761Y17254D01*
X11766Y17288D01*
X11768Y17323D01*
X11766Y17357D01*
X11761Y17391D01*
X11753Y17425D01*
X11741Y17457D01*
X11726Y17488D01*
X11709Y17518D01*
X11688Y17545D01*
X11665Y17571D01*
X11640Y17594D01*
X11612Y17614D01*
X11583Y17632D01*
X11551Y17647D01*
X11519Y17658D01*
X11486Y17667D01*
X11452Y17672D01*
X11417Y17673D01*
X11383Y17672D01*
X11349Y17667D01*
X11316Y17658D01*
X11283Y17647D01*
X11252Y17632D01*
X11223Y17614D01*
X11195Y17594D01*
X11170Y17571D01*
X11149Y17548D01*
X10853D01*
X10853Y17548D01*
X10823Y17546D01*
X10794Y17541D01*
X10767Y17531D01*
X10740Y17518D01*
X10716Y17502D01*
X10693Y17482D01*
X10693Y17482D01*
X10687Y17475D01*
X10185D01*
Y18701D01*
X10192Y18711D01*
X10208Y18746D01*
X10221Y18783D01*
X10231Y18820D01*
X10236Y18859D01*
X10238Y18898D01*
X10236Y18936D01*
X10231Y18975D01*
X10221Y19013D01*
X10217Y19024D01*
X10688Y19495D01*
X12473D01*
X12477Y19473D01*
X12486Y19446D01*
X12499Y19420D01*
X12515Y19396D01*
X12534Y19374D01*
X12556Y19355D01*
X12580Y19339D01*
X12606Y19326D01*
X12633Y19317D01*
X12661Y19311D01*
X12690Y19310D01*
X12719Y19311D01*
X12747Y19317D01*
X12774Y19326D01*
X12800Y19339D01*
X12824Y19355D01*
X12846Y19374D01*
X12865Y19396D01*
X12881Y19420D01*
X12894Y19446D01*
X12903Y19473D01*
X12909Y19501D01*
X12910Y19530D01*
X13919D01*
X13929Y19510D01*
X13945Y19486D01*
X13964Y19464D01*
X13986Y19445D01*
X14010Y19429D01*
X14036Y19416D01*
X14063Y19407D01*
X14091Y19401D01*
X14120Y19400D01*
X14149Y19401D01*
X14177Y19407D01*
X14204Y19416D01*
X14230Y19429D01*
X14254Y19445D01*
X14276Y19464D01*
X14295Y19486D01*
X14311Y19510D01*
X14324Y19536D01*
X14333Y19563D01*
X14339Y19591D01*
X14340Y19620D01*
X14339Y19649D01*
X14333Y19677D01*
X14324Y19704D01*
X14356Y19752D01*
X15146D01*
Y18750D01*
D02*
G37*
%LPC*%
G36*
X16890Y1301D02*
X16841D01*
Y1123D01*
X16990D01*
Y1201D01*
X16988Y1220D01*
X16983Y1239D01*
X16973Y1257D01*
X16961Y1272D01*
X16946Y1284D01*
X16928Y1294D01*
X16909Y1299D01*
X16890Y1301D01*
D02*
G37*
G36*
X14454Y1421D02*
X14285D01*
Y1372D01*
X14287Y1353D01*
X14293Y1334D01*
X14302Y1316D01*
X14315Y1301D01*
X14330Y1289D01*
X14347Y1279D01*
X14366Y1274D01*
X14386Y1272D01*
X14454D01*
Y1421D01*
D02*
G37*
G36*
X19094Y4514D02*
X19056Y4512D01*
X19017Y4506D01*
X18980Y4497D01*
X18943Y4484D01*
X18908Y4467D01*
X18875Y4447D01*
X18843Y4424D01*
X18815Y4398D01*
X18789Y4369D01*
X18765Y4338D01*
X18745Y4305D01*
X18729Y4270D01*
X18716Y4233D01*
X18706Y4195D01*
X18701Y4157D01*
X18699Y4118D01*
X18701Y4079D01*
X18706Y4041D01*
X18716Y4003D01*
X18729Y3967D01*
X18745Y3932D01*
X18765Y3898D01*
X18789Y3867D01*
X18815Y3838D01*
X18843Y3812D01*
X18875Y3789D01*
X18908Y3769D01*
X18943Y3752D01*
X18980Y3739D01*
X19017Y3730D01*
X19056Y3724D01*
X19094Y3722D01*
X19133Y3724D01*
X19172Y3730D01*
X19209Y3739D01*
X19246Y3752D01*
X19281Y3769D01*
X19314Y3789D01*
X19346Y3812D01*
X19374Y3838D01*
X19400Y3867D01*
X19424Y3898D01*
X19444Y3932D01*
X19460Y3967D01*
X19473Y4003D01*
X19483Y4041D01*
X19488Y4079D01*
X19490Y4118D01*
X19488Y4157D01*
X19483Y4195D01*
X19473Y4233D01*
X19460Y4270D01*
X19444Y4305D01*
X19424Y4338D01*
X19400Y4369D01*
X19374Y4398D01*
X19346Y4424D01*
X19314Y4447D01*
X19281Y4467D01*
X19246Y4484D01*
X19209Y4497D01*
X19172Y4506D01*
X19133Y4512D01*
X19094Y4514D01*
D02*
G37*
G36*
X16741Y1301D02*
X16693D01*
X16673Y1299D01*
X16654Y1294D01*
X16637Y1284D01*
X16622Y1272D01*
X16609Y1257D01*
X16600Y1239D01*
X16594Y1220D01*
X16592Y1201D01*
Y1123D01*
X16741D01*
Y1301D01*
D02*
G37*
G36*
X19567Y14433D02*
X18780D01*
X18760Y14431D01*
X18740Y14425D01*
X18723Y14416D01*
X18707Y14403D01*
X18694Y14388D01*
X18685Y14370D01*
X18679Y14351D01*
X18677Y14331D01*
Y13543D01*
X18679Y13523D01*
X18685Y13504D01*
X18694Y13486D01*
X18707Y13471D01*
X18723Y13458D01*
X18740Y13449D01*
X18760Y13443D01*
X18780Y13441D01*
X19567D01*
X19587Y13443D01*
X19606Y13449D01*
X19624Y13458D01*
X19639Y13471D01*
X19652Y13486D01*
X19662Y13504D01*
X19667Y13523D01*
X19669Y13543D01*
Y14331D01*
X19667Y14351D01*
X19662Y14370D01*
X19652Y14388D01*
X19639Y14403D01*
X19624Y14416D01*
X19606Y14425D01*
X19587Y14431D01*
X19567Y14433D01*
D02*
G37*
G36*
X18110Y13978D02*
X18071Y13977D01*
X18033Y13971D01*
X17995Y13961D01*
X17959Y13948D01*
X17924Y13932D01*
X17890Y13912D01*
X17859Y13889D01*
X17830Y13863D01*
X17804Y13834D01*
X17781Y13803D01*
X17761Y13769D01*
X17745Y13734D01*
X17732Y13698D01*
X17722Y13660D01*
X17716Y13621D01*
X17714Y13583D01*
X17716Y13544D01*
X17722Y13505D01*
X17732Y13468D01*
X17738Y13450D01*
X17517Y13229D01*
X17481D01*
X17474Y13235D01*
X17450Y13251D01*
X17424Y13264D01*
X17397Y13273D01*
X17369Y13279D01*
X17340Y13280D01*
X17311Y13279D01*
X17283Y13273D01*
X17256Y13264D01*
X17235Y13254D01*
X17230Y13251D01*
X17225Y13250D01*
X17200Y13295D01*
X17200Y13295D01*
X17209Y13303D01*
X17235Y13332D01*
X17258Y13363D01*
X17278Y13396D01*
X17295Y13431D01*
X17308Y13468D01*
X17317Y13505D01*
X17323Y13544D01*
X17325Y13583D01*
X17323Y13621D01*
X17317Y13660D01*
X17308Y13698D01*
X17295Y13734D01*
X17278Y13769D01*
X17258Y13803D01*
X17235Y13834D01*
X17209Y13863D01*
X17180Y13889D01*
X17149Y13912D01*
X17116Y13932D01*
X17081Y13948D01*
X17044Y13961D01*
X17006Y13971D01*
X16968Y13977D01*
X16929Y13978D01*
X16890Y13977D01*
X16852Y13971D01*
X16814Y13961D01*
X16778Y13948D01*
X16743Y13932D01*
X16709Y13912D01*
X16678Y13889D01*
X16649Y13863D01*
X16623Y13834D01*
X16600Y13803D01*
X16580Y13769D01*
X16564Y13734D01*
X16550Y13698D01*
X16541Y13660D01*
X16535Y13621D01*
X16533Y13583D01*
X16535Y13544D01*
X16539Y13521D01*
X16516Y13514D01*
X16490Y13501D01*
X16466Y13485D01*
X16444Y13466D01*
X16425Y13444D01*
X16409Y13420D01*
X16396Y13394D01*
X16387Y13367D01*
X16381Y13339D01*
X16380Y13310D01*
X16381Y13281D01*
X16387Y13253D01*
X16396Y13226D01*
X16409Y13200D01*
X16425Y13176D01*
X16444Y13154D01*
X16466Y13135D01*
X16490Y13119D01*
X16516Y13106D01*
X16543Y13097D01*
X16571Y13091D01*
X16600Y13090D01*
X16629Y13091D01*
X16657Y13097D01*
X16684Y13106D01*
X16710Y13119D01*
X16734Y13135D01*
X16756Y13154D01*
X16775Y13176D01*
X16791Y13200D01*
X16796Y13210D01*
X16814Y13204D01*
X16852Y13195D01*
X16890Y13189D01*
X16929Y13187D01*
X16968Y13189D01*
X17006Y13195D01*
X17044Y13204D01*
X17081Y13217D01*
X17116Y13234D01*
X17146Y13252D01*
X17149Y13254D01*
X17184Y13216D01*
X17180Y13212D01*
X17165Y13194D01*
X17149Y13170D01*
X17136Y13144D01*
X17127Y13117D01*
X17121Y13089D01*
X17120Y13060D01*
X17121Y13031D01*
X17127Y13003D01*
X17136Y12976D01*
X17149Y12950D01*
X17165Y12926D01*
X17184Y12904D01*
X17206Y12885D01*
X17230Y12869D01*
X17256Y12856D01*
X17283Y12847D01*
X17311Y12841D01*
X17340Y12840D01*
X17369Y12841D01*
X17397Y12847D01*
X17424Y12856D01*
X17450Y12869D01*
X17474Y12885D01*
X17481Y12891D01*
X17588D01*
X17610Y12892D01*
X17631Y12897D01*
X17652Y12904D01*
X17672Y12913D01*
X17691Y12926D01*
X17707Y12940D01*
X17977Y13210D01*
X17995Y13204D01*
X18033Y13195D01*
X18071Y13189D01*
X18110Y13187D01*
X18149Y13189D01*
X18187Y13195D01*
X18225Y13204D01*
X18262Y13217D01*
X18297Y13234D01*
X18330Y13254D01*
X18361Y13277D01*
X18390Y13303D01*
X18416Y13332D01*
X18439Y13363D01*
X18459Y13396D01*
X18476Y13431D01*
X18489Y13468D01*
X18498Y13505D01*
X18504Y13544D01*
X18506Y13583D01*
X18504Y13621D01*
X18498Y13660D01*
X18489Y13698D01*
X18476Y13734D01*
X18459Y13769D01*
X18439Y13803D01*
X18416Y13834D01*
X18390Y13863D01*
X18361Y13889D01*
X18330Y13912D01*
X18297Y13932D01*
X18262Y13948D01*
X18225Y13961D01*
X18187Y13971D01*
X18149Y13977D01*
X18110Y13978D01*
D02*
G37*
G36*
X16428Y5892D02*
X16277Y5765D01*
X16410Y5606D01*
X16485Y5668D01*
X16499Y5682D01*
X16510Y5699D01*
X16517Y5717D01*
X16521Y5737D01*
X16520Y5756D01*
X16516Y5776D01*
X16509Y5794D01*
X16497Y5810D01*
X16428Y5892D01*
D02*
G37*
G36*
X8041Y6349D02*
X8013Y6345D01*
X7976Y6335D01*
X7939Y6322D01*
X7904Y6306D01*
X7871Y6286D01*
X7839Y6263D01*
X7811Y6237D01*
X7785Y6208D01*
X7761Y6177D01*
X7742Y6143D01*
X7725Y6108D01*
X7712Y6072D01*
X7702Y6034D01*
X7698Y6007D01*
X8041D01*
Y6349D01*
D02*
G37*
G36*
X1041D02*
X1013Y6345D01*
X976Y6335D01*
X939Y6322D01*
X904Y6306D01*
X871Y6286D01*
X839Y6263D01*
X811Y6237D01*
X785Y6208D01*
X762Y6177D01*
X742Y6143D01*
X725Y6108D01*
X712Y6072D01*
X702Y6034D01*
X698Y6007D01*
X1041D01*
Y6349D01*
D02*
G37*
G36*
X8141Y6349D02*
Y6007D01*
X8483D01*
X8479Y6034D01*
X8469Y6072D01*
X8456Y6108D01*
X8440Y6143D01*
X8420Y6177D01*
X8396Y6208D01*
X8370Y6237D01*
X8342Y6263D01*
X8310Y6286D01*
X8277Y6306D01*
X8242Y6322D01*
X8205Y6335D01*
X8168Y6345D01*
X8141Y6349D01*
D02*
G37*
G36*
X1483Y5907D02*
X1141D01*
Y5565D01*
X1168Y5569D01*
X1205Y5578D01*
X1242Y5591D01*
X1277Y5608D01*
X1310Y5628D01*
X1342Y5651D01*
X1370Y5677D01*
X1396Y5706D01*
X1420Y5737D01*
X1440Y5770D01*
X1456Y5805D01*
X1469Y5842D01*
X1479Y5879D01*
X1483Y5907D01*
D02*
G37*
G36*
X9596Y1131D02*
X9253D01*
X9258Y1104D01*
X9267Y1066D01*
X9280Y1030D01*
X9297Y995D01*
X9317Y961D01*
X9340Y930D01*
X9366Y901D01*
X9395Y875D01*
X9426Y852D01*
X9459Y832D01*
X9494Y815D01*
X9531Y802D01*
X9568Y793D01*
X9596Y789D01*
Y1131D01*
D02*
G37*
G36*
X1141Y6349D02*
Y6007D01*
X1483D01*
X1479Y6034D01*
X1469Y6072D01*
X1456Y6108D01*
X1440Y6143D01*
X1420Y6177D01*
X1396Y6208D01*
X1370Y6237D01*
X1342Y6263D01*
X1310Y6286D01*
X1277Y6306D01*
X1242Y6322D01*
X1205Y6335D01*
X1168Y6345D01*
X1141Y6349D01*
D02*
G37*
G36*
X1181Y3055D02*
X394D01*
X374Y3053D01*
X354Y3047D01*
X337Y3038D01*
X321Y3025D01*
X309Y3010D01*
X299Y2992D01*
X293Y2973D01*
X291Y2953D01*
Y2165D01*
X293Y2145D01*
X299Y2126D01*
X309Y2108D01*
X321Y2093D01*
X337Y2080D01*
X354Y2071D01*
X374Y2065D01*
X394Y2063D01*
X1050D01*
X1061Y2013D01*
X1059Y2012D01*
X1056Y2010D01*
X1052Y2008D01*
X1011Y1985D01*
X1007Y1983D01*
X1004Y1981D01*
X964Y1954D01*
X961Y1952D01*
X958Y1950D01*
X920Y1920D01*
X917Y1917D01*
X914Y1915D01*
X879Y1882D01*
X876Y1880D01*
X873Y1877D01*
X841Y1842D01*
X839Y1839D01*
X836Y1836D01*
X806Y1798D01*
X804Y1795D01*
X802Y1792D01*
X775Y1752D01*
X773Y1749D01*
X771Y1745D01*
X748Y1704D01*
X746Y1700D01*
X744Y1697D01*
X724Y1653D01*
X723Y1649D01*
X721Y1646D01*
X704Y1601D01*
X703Y1597D01*
X702Y1594D01*
X689Y1547D01*
X688Y1544D01*
X687Y1540D01*
X678Y1493D01*
X677Y1489D01*
X677Y1485D01*
X671Y1437D01*
X671Y1434D01*
X670Y1430D01*
X668Y1382D01*
X669Y1378D01*
X668Y1374D01*
X670Y1326D01*
X671Y1322D01*
X671Y1318D01*
X677Y1271D01*
X677Y1267D01*
X678Y1263D01*
X687Y1216D01*
X688Y1212D01*
X689Y1209D01*
X702Y1162D01*
X703Y1159D01*
X704Y1155D01*
X721Y1110D01*
X723Y1107D01*
X724Y1103D01*
X744Y1059D01*
X746Y1056D01*
X748Y1052D01*
X771Y1011D01*
X773Y1007D01*
X775Y1004D01*
X802Y964D01*
X804Y961D01*
X806Y958D01*
X836Y920D01*
X839Y917D01*
X841Y914D01*
X873Y879D01*
X876Y876D01*
X879Y873D01*
X914Y841D01*
X917Y839D01*
X920Y836D01*
X958Y806D01*
X961Y804D01*
X964Y802D01*
X1004Y775D01*
X1007Y773D01*
X1011Y771D01*
X1052Y748D01*
X1056Y746D01*
X1059Y744D01*
X1103Y724D01*
X1107Y723D01*
X1110Y721D01*
X1155Y704D01*
X1159Y703D01*
X1162Y702D01*
X1209Y689D01*
X1212Y688D01*
X1216Y687D01*
X1263Y678D01*
X1267Y677D01*
X1271Y677D01*
X1318Y671D01*
X1322Y671D01*
X1326Y670D01*
X1374Y668D01*
X1376Y669D01*
X1378Y668D01*
X1380Y669D01*
X1382Y668D01*
X1430Y670D01*
X1434Y671D01*
X1437Y671D01*
X1485Y677D01*
X1489Y677D01*
X1493Y678D01*
X1540Y687D01*
X1544Y688D01*
X1547Y689D01*
X1594Y702D01*
X1597Y703D01*
X1601Y704D01*
X1646Y721D01*
X1649Y723D01*
X1653Y724D01*
X1697Y744D01*
X1700Y746D01*
X1704Y748D01*
X1745Y771D01*
X1749Y773D01*
X1752Y775D01*
X1792Y802D01*
X1795Y804D01*
X1798Y806D01*
X1836Y836D01*
X1839Y839D01*
X1842Y841D01*
X1877Y873D01*
X1880Y876D01*
X1882Y879D01*
X1915Y914D01*
X1917Y917D01*
X1920Y920D01*
X1950Y958D01*
X1952Y961D01*
X1954Y964D01*
X1981Y1004D01*
X1983Y1007D01*
X1985Y1011D01*
X2008Y1052D01*
X2010Y1056D01*
X2012Y1059D01*
X2032Y1103D01*
X2033Y1107D01*
X2035Y1110D01*
X2052Y1155D01*
X2053Y1159D01*
X2054Y1162D01*
X2067Y1209D01*
X2068Y1212D01*
X2069Y1216D01*
X2078Y1263D01*
X2079Y1267D01*
X2079Y1271D01*
X2085Y1318D01*
X2085Y1322D01*
X2086Y1326D01*
X2087Y1374D01*
X2087Y1378D01*
X2087Y1382D01*
X2086Y1430D01*
X2085Y1434D01*
X2085Y1437D01*
X2079Y1485D01*
X2079Y1489D01*
X2078Y1493D01*
X2069Y1540D01*
X2068Y1544D01*
X2067Y1547D01*
X2054Y1594D01*
X2053Y1597D01*
X2052Y1601D01*
X2035Y1646D01*
X2033Y1649D01*
X2032Y1653D01*
X2012Y1697D01*
X2010Y1700D01*
X2008Y1704D01*
X1985Y1745D01*
X1983Y1749D01*
X1981Y1752D01*
X1954Y1792D01*
X1952Y1795D01*
X1950Y1798D01*
X1920Y1836D01*
X1917Y1839D01*
X1915Y1842D01*
X1882Y1877D01*
X1880Y1880D01*
X1877Y1882D01*
X1842Y1915D01*
X1839Y1917D01*
X1836Y1920D01*
X1798Y1950D01*
X1795Y1952D01*
X1792Y1954D01*
X1752Y1981D01*
X1749Y1983D01*
X1745Y1985D01*
X1704Y2008D01*
X1700Y2010D01*
X1697Y2012D01*
X1653Y2032D01*
X1649Y2033D01*
X1646Y2035D01*
X1601Y2052D01*
X1597Y2053D01*
X1594Y2054D01*
X1547Y2067D01*
X1544Y2068D01*
X1540Y2069D01*
X1493Y2078D01*
X1489Y2079D01*
X1485Y2079D01*
X1437Y2085D01*
X1434Y2085D01*
X1430Y2086D01*
X1382Y2087D01*
X1380Y2087D01*
X1378Y2088D01*
X1376Y2087D01*
X1374Y2087D01*
X1326Y2086D01*
X1322Y2085D01*
X1318Y2085D01*
X1309Y2084D01*
X1284Y2115D01*
X1277Y2130D01*
X1282Y2145D01*
X1284Y2165D01*
Y2953D01*
X1282Y2973D01*
X1276Y2992D01*
X1266Y3010D01*
X1254Y3025D01*
X1238Y3038D01*
X1220Y3047D01*
X1201Y3053D01*
X1181Y3055D01*
D02*
G37*
G36*
X12471Y7946D02*
X12422D01*
X12403Y7944D01*
X12384Y7938D01*
X12366Y7929D01*
X12351Y7917D01*
X12339Y7901D01*
X12329Y7884D01*
X12324Y7865D01*
X12322Y7846D01*
Y7777D01*
X12471D01*
Y7946D01*
D02*
G37*
G36*
X981Y8611D02*
X621D01*
Y8384D01*
X709D01*
X740Y8386D01*
X770Y8391D01*
X800Y8399D01*
X829Y8411D01*
X856Y8426D01*
X882Y8444D01*
X905Y8465D01*
X926Y8488D01*
X944Y8514D01*
X959Y8541D01*
X971Y8570D01*
X979Y8600D01*
X981Y8611D01*
D02*
G37*
G36*
X10590Y2310D02*
X10561Y2309D01*
X10533Y2303D01*
X10506Y2294D01*
X10480Y2281D01*
X10456Y2265D01*
X10434Y2246D01*
X10415Y2224D01*
X10399Y2200D01*
X10386Y2174D01*
X10377Y2147D01*
X10371Y2119D01*
X10370Y2090D01*
X10371Y2061D01*
X10377Y2033D01*
X10386Y2006D01*
X10399Y1980D01*
X10410Y1964D01*
Y1852D01*
X10284Y1726D01*
X10268Y1708D01*
X10256Y1688D01*
X10247Y1666D01*
X10241Y1644D01*
X10240Y1620D01*
Y1051D01*
X10234Y1046D01*
X10215Y1024D01*
X10199Y1000D01*
X10186Y974D01*
X10177Y947D01*
X10171Y919D01*
X10170Y890D01*
X10171Y861D01*
X10177Y833D01*
X10186Y806D01*
X10199Y780D01*
X10215Y756D01*
X10234Y734D01*
X10256Y715D01*
X10280Y699D01*
X10306Y686D01*
X10333Y677D01*
X10361Y671D01*
X10390Y670D01*
X10419Y671D01*
X10447Y677D01*
X10474Y686D01*
X10500Y699D01*
X10524Y715D01*
X10546Y734D01*
X10565Y756D01*
X10581Y780D01*
X10594Y806D01*
X10603Y833D01*
X10609Y861D01*
X10610Y890D01*
X10609Y919D01*
X10603Y947D01*
X10594Y974D01*
X10581Y1000D01*
X10565Y1024D01*
X10546Y1046D01*
X10540Y1051D01*
Y1558D01*
X10666Y1684D01*
X10682Y1702D01*
X10694Y1722D01*
X10703Y1743D01*
X10709Y1766D01*
X10710Y1790D01*
Y1906D01*
X10724Y1915D01*
X10746Y1934D01*
X10765Y1956D01*
X10781Y1980D01*
X10794Y2006D01*
X10803Y2033D01*
X10809Y2061D01*
X10810Y2090D01*
X10809Y2119D01*
X10803Y2147D01*
X10794Y2174D01*
X10781Y2200D01*
X10765Y2224D01*
X10746Y2246D01*
X10724Y2265D01*
X10700Y2281D01*
X10674Y2294D01*
X10647Y2303D01*
X10619Y2309D01*
X10590Y2310D01*
D02*
G37*
G36*
X1940Y7860D02*
X1911Y7859D01*
X1883Y7853D01*
X1856Y7844D01*
X1830Y7831D01*
X1806Y7815D01*
X1784Y7796D01*
X1765Y7774D01*
X1749Y7750D01*
X1736Y7724D01*
X1727Y7697D01*
X1721Y7669D01*
X1720Y7640D01*
X1721Y7611D01*
X1727Y7583D01*
X1736Y7556D01*
X1749Y7530D01*
X1765Y7506D01*
X1784Y7484D01*
X1806Y7465D01*
X1830Y7449D01*
X1856Y7436D01*
X1883Y7427D01*
X1911Y7421D01*
X1935Y7420D01*
Y7320D01*
X1904Y7306D01*
X1871Y7286D01*
X1839Y7263D01*
X1811Y7237D01*
X1785Y7208D01*
X1761Y7177D01*
X1742Y7143D01*
X1725Y7108D01*
X1712Y7072D01*
X1702Y7034D01*
X1697Y6995D01*
X1695Y6957D01*
X1697Y6918D01*
X1702Y6879D01*
X1712Y6842D01*
X1725Y6805D01*
X1742Y6770D01*
X1761Y6737D01*
X1785Y6706D01*
X1811Y6677D01*
X1839Y6651D01*
X1871Y6628D01*
X1904Y6608D01*
X1939Y6591D01*
X1976Y6578D01*
X2013Y6569D01*
X2052Y6563D01*
X2091Y6561D01*
X2129Y6563D01*
X2168Y6569D01*
X2205Y6578D01*
X2242Y6591D01*
X2277Y6608D01*
X2310Y6628D01*
X2342Y6651D01*
X2370Y6677D01*
X2396Y6706D01*
X2420Y6737D01*
X2440Y6770D01*
X2456Y6805D01*
X2469Y6842D01*
X2479Y6879D01*
X2484Y6918D01*
X2486Y6957D01*
X2484Y6995D01*
X2479Y7034D01*
X2469Y7072D01*
X2456Y7108D01*
X2440Y7143D01*
X2420Y7177D01*
X2396Y7208D01*
X2370Y7237D01*
X2342Y7263D01*
X2310Y7286D01*
X2277Y7306D01*
X2246Y7320D01*
Y7489D01*
X2244Y7514D01*
X2238Y7538D01*
X2229Y7560D01*
X2216Y7581D01*
X2200Y7599D01*
X2160Y7639D01*
X2160Y7640D01*
X2159Y7669D01*
X2153Y7697D01*
X2144Y7724D01*
X2131Y7750D01*
X2115Y7774D01*
X2096Y7796D01*
X2074Y7815D01*
X2050Y7831D01*
X2024Y7844D01*
X1997Y7853D01*
X1969Y7859D01*
X1940Y7860D01*
D02*
G37*
G36*
X8091Y7352D02*
X8052Y7351D01*
X8013Y7345D01*
X7976Y7335D01*
X7939Y7322D01*
X7904Y7306D01*
X7871Y7286D01*
X7839Y7263D01*
X7811Y7237D01*
X7785Y7208D01*
X7761Y7177D01*
X7742Y7143D01*
X7725Y7108D01*
X7712Y7072D01*
X7702Y7034D01*
X7697Y6995D01*
X7695Y6957D01*
X7697Y6918D01*
X7702Y6879D01*
X7712Y6842D01*
X7725Y6805D01*
X7742Y6770D01*
X7761Y6737D01*
X7785Y6706D01*
X7811Y6677D01*
X7839Y6651D01*
X7871Y6628D01*
X7904Y6608D01*
X7939Y6591D01*
X7976Y6578D01*
X8013Y6569D01*
X8052Y6563D01*
X8091Y6561D01*
X8129Y6563D01*
X8168Y6569D01*
X8205Y6578D01*
X8242Y6591D01*
X8277Y6608D01*
X8310Y6628D01*
X8342Y6651D01*
X8370Y6677D01*
X8396Y6706D01*
X8420Y6737D01*
X8440Y6770D01*
X8456Y6805D01*
X8469Y6842D01*
X8479Y6879D01*
X8484Y6918D01*
X8486Y6957D01*
X8484Y6995D01*
X8479Y7034D01*
X8469Y7072D01*
X8456Y7108D01*
X8440Y7143D01*
X8420Y7177D01*
X8396Y7208D01*
X8370Y7237D01*
X8342Y7263D01*
X8310Y7286D01*
X8277Y7306D01*
X8242Y7322D01*
X8205Y7335D01*
X8168Y7345D01*
X8129Y7351D01*
X8091Y7352D01*
D02*
G37*
G36*
X4469Y2679D02*
X4440Y2677D01*
X4412Y2672D01*
X4384Y2662D01*
X4358Y2650D01*
X4334Y2634D01*
X4313Y2615D01*
X4294Y2593D01*
X4278Y2569D01*
X4265Y2543D01*
X4256Y2516D01*
X4250Y2487D01*
X4248Y2459D01*
X4250Y2430D01*
X4256Y2402D01*
X4265Y2374D01*
X4278Y2348D01*
X4294Y2324D01*
X4313Y2303D01*
X4334Y2284D01*
X4358Y2268D01*
X4384Y2255D01*
X4391Y2253D01*
X4714Y1930D01*
X4714Y1930D01*
X4733Y1913D01*
X4755Y1899D01*
X4779Y1887D01*
X4803Y1879D01*
X4829Y1873D01*
X4855Y1872D01*
X4855Y1872D01*
X5711D01*
X5718Y1868D01*
X5745Y1859D01*
X5773Y1854D01*
X5802Y1852D01*
X5831Y1854D01*
X5859Y1859D01*
X5886Y1868D01*
X5912Y1881D01*
X5936Y1897D01*
X5958Y1916D01*
X5977Y1938D01*
X5993Y1962D01*
X6006Y1988D01*
X6015Y2015D01*
X6020Y2043D01*
X6022Y2072D01*
X6020Y2101D01*
X6015Y2129D01*
X6006Y2157D01*
X5993Y2182D01*
X5977Y2206D01*
X5958Y2228D01*
X5936Y2247D01*
X5912Y2263D01*
X5886Y2276D01*
X5859Y2285D01*
X5831Y2291D01*
X5802Y2293D01*
X5773Y2291D01*
X5745Y2285D01*
X5718Y2276D01*
X5711Y2273D01*
X4938D01*
X4675Y2536D01*
X4672Y2543D01*
X4660Y2569D01*
X4644Y2593D01*
X4625Y2615D01*
X4603Y2634D01*
X4579Y2650D01*
X4553Y2662D01*
X4526Y2672D01*
X4497Y2677D01*
X4469Y2679D01*
D02*
G37*
G36*
X9596Y1573D02*
X9568Y1569D01*
X9531Y1560D01*
X9494Y1547D01*
X9459Y1530D01*
X9426Y1510D01*
X9395Y1487D01*
X9366Y1461D01*
X9340Y1432D01*
X9317Y1401D01*
X9297Y1368D01*
X9280Y1333D01*
X9267Y1296D01*
X9258Y1258D01*
X9253Y1231D01*
X9596D01*
Y1573D01*
D02*
G37*
G36*
X2806Y1770D02*
Y1428D01*
X3148D01*
X3144Y1455D01*
X3135Y1493D01*
X3122Y1529D01*
X3105Y1565D01*
X3085Y1598D01*
X3062Y1629D01*
X3036Y1658D01*
X3007Y1684D01*
X2976Y1707D01*
X2942Y1727D01*
X2907Y1744D01*
X2871Y1757D01*
X2833Y1766D01*
X2806Y1770D01*
D02*
G37*
G36*
X9696Y1573D02*
Y1231D01*
X10038D01*
X10034Y1258D01*
X10024Y1296D01*
X10011Y1333D01*
X9995Y1368D01*
X9975Y1401D01*
X9952Y1432D01*
X9926Y1461D01*
X9897Y1487D01*
X9866Y1510D01*
X9832Y1530D01*
X9797Y1547D01*
X9761Y1560D01*
X9723Y1569D01*
X9696Y1573D01*
D02*
G37*
G36*
X2706Y1770D02*
X2679Y1766D01*
X2641Y1757D01*
X2604Y1744D01*
X2569Y1727D01*
X2536Y1707D01*
X2505Y1684D01*
X2476Y1658D01*
X2450Y1629D01*
X2427Y1598D01*
X2407Y1565D01*
X2390Y1529D01*
X2377Y1493D01*
X2368Y1455D01*
X2364Y1428D01*
X2706D01*
Y1770D01*
D02*
G37*
G36*
X3780Y4043D02*
X3751Y4041D01*
X3722Y4036D01*
X3695Y4027D01*
X3669Y4014D01*
X3645Y3998D01*
X3624Y3979D01*
X3605Y3957D01*
X3602Y3953D01*
X3232D01*
X3212Y3952D01*
X3192Y3947D01*
X3173Y3939D01*
X3156Y3928D01*
X3140Y3915D01*
X2928Y3703D01*
X2907Y3712D01*
X2871Y3725D01*
X2833Y3735D01*
X2795Y3740D01*
X2756Y3742D01*
X2717Y3740D01*
X2679Y3735D01*
X2641Y3725D01*
X2604Y3712D01*
X2569Y3695D01*
X2536Y3676D01*
X2505Y3652D01*
X2476Y3626D01*
X2450Y3598D01*
X2427Y3566D01*
X2407Y3533D01*
X2390Y3498D01*
X2377Y3461D01*
X2368Y3424D01*
X2362Y3385D01*
X2360Y3346D01*
X2362Y3308D01*
X2368Y3269D01*
X2377Y3232D01*
X2390Y3195D01*
X2407Y3160D01*
X2427Y3127D01*
X2450Y3095D01*
X2476Y3067D01*
X2505Y3041D01*
X2536Y3017D01*
X2569Y2997D01*
X2604Y2981D01*
X2641Y2968D01*
X2679Y2958D01*
X2717Y2953D01*
X2756Y2951D01*
X2795Y2953D01*
X2833Y2958D01*
X2871Y2968D01*
X2907Y2981D01*
X2942Y2997D01*
X2976Y3017D01*
X3007Y3041D01*
X3036Y3067D01*
X3062Y3095D01*
X3085Y3127D01*
X3105Y3160D01*
X3122Y3195D01*
X3135Y3232D01*
X3144Y3269D01*
X3150Y3308D01*
X3152Y3346D01*
X3150Y3385D01*
X3144Y3424D01*
X3135Y3461D01*
X3122Y3498D01*
X3112Y3518D01*
X3286Y3692D01*
X3602D01*
X3605Y3689D01*
X3624Y3667D01*
X3645Y3648D01*
X3669Y3632D01*
X3695Y3619D01*
X3722Y3610D01*
X3751Y3604D01*
X3780Y3602D01*
X3808Y3604D01*
X3837Y3610D01*
X3864Y3619D01*
X3890Y3632D01*
X3914Y3648D01*
X3935Y3667D01*
X3954Y3689D01*
X3970Y3713D01*
X3983Y3738D01*
X3992Y3766D01*
X3998Y3794D01*
X4000Y3823D01*
X3998Y3852D01*
X3992Y3880D01*
X3983Y3907D01*
X3970Y3933D01*
X3954Y3957D01*
X3935Y3979D01*
X3914Y3998D01*
X3890Y4014D01*
X3864Y4027D01*
X3837Y4036D01*
X3808Y4041D01*
X3780Y4043D01*
D02*
G37*
G36*
X2091Y6352D02*
X2052Y6351D01*
X2013Y6345D01*
X1976Y6335D01*
X1939Y6322D01*
X1904Y6306D01*
X1871Y6286D01*
X1839Y6263D01*
X1811Y6237D01*
X1785Y6208D01*
X1761Y6177D01*
X1742Y6143D01*
X1725Y6108D01*
X1712Y6072D01*
X1702Y6034D01*
X1697Y5995D01*
X1695Y5957D01*
X1697Y5918D01*
X1702Y5879D01*
X1712Y5842D01*
X1725Y5805D01*
X1742Y5770D01*
X1761Y5737D01*
X1785Y5706D01*
X1811Y5677D01*
X1839Y5651D01*
X1871Y5628D01*
X1904Y5608D01*
X1939Y5591D01*
X1976Y5578D01*
X2013Y5569D01*
X2052Y5563D01*
X2091Y5561D01*
X2129Y5563D01*
X2168Y5569D01*
X2205Y5578D01*
X2242Y5591D01*
X2277Y5608D01*
X2310Y5628D01*
X2342Y5651D01*
X2370Y5677D01*
X2396Y5706D01*
X2420Y5737D01*
X2440Y5770D01*
X2456Y5805D01*
X2469Y5842D01*
X2479Y5879D01*
X2484Y5918D01*
X2486Y5957D01*
X2484Y5995D01*
X2479Y6034D01*
X2469Y6072D01*
X2456Y6108D01*
X2440Y6143D01*
X2420Y6177D01*
X2396Y6208D01*
X2370Y6237D01*
X2342Y6263D01*
X2310Y6286D01*
X2277Y6306D01*
X2242Y6322D01*
X2205Y6335D01*
X2168Y6345D01*
X2129Y6351D01*
X2091Y6352D01*
D02*
G37*
G36*
X1041Y5907D02*
X698D01*
X702Y5879D01*
X712Y5842D01*
X725Y5805D01*
X742Y5770D01*
X762Y5737D01*
X785Y5706D01*
X811Y5677D01*
X839Y5651D01*
X871Y5628D01*
X904Y5608D01*
X939Y5591D01*
X976Y5578D01*
X1013Y5569D01*
X1041Y5565D01*
Y5907D01*
D02*
G37*
G36*
X10038Y1131D02*
X9696D01*
Y789D01*
X9723Y793D01*
X9761Y802D01*
X9797Y815D01*
X9832Y832D01*
X9866Y852D01*
X9897Y875D01*
X9926Y901D01*
X9952Y930D01*
X9975Y961D01*
X9995Y995D01*
X10011Y1030D01*
X10024Y1066D01*
X10034Y1104D01*
X10038Y1131D01*
D02*
G37*
G36*
X2706Y1328D02*
X2364D01*
X2368Y1301D01*
X2377Y1263D01*
X2390Y1226D01*
X2407Y1191D01*
X2427Y1158D01*
X2450Y1127D01*
X2476Y1098D01*
X2505Y1072D01*
X2536Y1049D01*
X2569Y1029D01*
X2604Y1012D01*
X2641Y999D01*
X2679Y990D01*
X2706Y986D01*
Y1328D01*
D02*
G37*
G36*
X3148D02*
X2806D01*
Y986D01*
X2833Y990D01*
X2871Y999D01*
X2907Y1012D01*
X2942Y1029D01*
X2976Y1049D01*
X3007Y1072D01*
X3036Y1098D01*
X3062Y1127D01*
X3085Y1158D01*
X3105Y1191D01*
X3122Y1226D01*
X3135Y1263D01*
X3144Y1301D01*
X3148Y1328D01*
D02*
G37*
G36*
X3102Y18060D02*
X2806D01*
Y17764D01*
X2824Y17767D01*
X2858Y17775D01*
X2890Y17786D01*
X2921Y17801D01*
X2951Y17819D01*
X2978Y17839D01*
X3004Y17862D01*
X3027Y17888D01*
X3047Y17916D01*
X3065Y17945D01*
X3080Y17976D01*
X3091Y18009D01*
X3100Y18042D01*
X3102Y18060D01*
D02*
G37*
G36*
X2706D02*
X2409D01*
X2412Y18042D01*
X2421Y18009D01*
X2432Y17976D01*
X2447Y17945D01*
X2465Y17916D01*
X2485Y17888D01*
X2508Y17862D01*
X2534Y17839D01*
X2561Y17819D01*
X2591Y17801D01*
X2622Y17786D01*
X2654Y17775D01*
X2688Y17767D01*
X2706Y17764D01*
Y18060D01*
D02*
G37*
G36*
X7037Y18060D02*
X6740D01*
X6743Y18042D01*
X6751Y18009D01*
X6763Y17976D01*
X6778Y17945D01*
X6795Y17916D01*
X6816Y17888D01*
X6839Y17862D01*
X6864Y17839D01*
X6892Y17819D01*
X6921Y17801D01*
X6953Y17786D01*
X6985Y17775D01*
X7018Y17767D01*
X7037Y17764D01*
Y18060D01*
D02*
G37*
G36*
X981Y17213D02*
X974Y17213D01*
X974Y17213D01*
X974Y17213D01*
X968Y17213D01*
X945Y17212D01*
X938Y17211D01*
X932Y17210D01*
X909Y17205D01*
X903Y17204D01*
X897Y17202D01*
X875Y17195D01*
X869Y17192D01*
X863Y17190D01*
X842Y17179D01*
X836Y17176D01*
X831Y17173D01*
X811Y17160D01*
X806Y17156D01*
X801Y17152D01*
X784Y17137D01*
X779Y17132D01*
X779Y17132D01*
X779Y17132D01*
X775Y17128D01*
X759Y17110D01*
X755Y17105D01*
X751Y17100D01*
X738Y17081D01*
X735Y17075D01*
X732Y17070D01*
X722Y17049D01*
X719Y17043D01*
X717Y17037D01*
X709Y17015D01*
X708Y17008D01*
X706Y17002D01*
X701Y16979D01*
X701Y16973D01*
X700Y16967D01*
X698Y16943D01*
X698Y16940D01*
X698Y16937D01*
X698Y16934D01*
X698Y16931D01*
X700Y16907D01*
X701Y16901D01*
X701Y16895D01*
X706Y16872D01*
X708Y16866D01*
X709Y16859D01*
X717Y16837D01*
X719Y16831D01*
X722Y16825D01*
X732Y16804D01*
X735Y16799D01*
X738Y16793D01*
X751Y16774D01*
X755Y16769D01*
X759Y16764D01*
X775Y16746D01*
X779Y16742D01*
X779Y16742D01*
X779Y16742D01*
X784Y16737D01*
X801Y16722D01*
X806Y16718D01*
X811Y16714D01*
X831Y16701D01*
X836Y16698D01*
X842Y16695D01*
X863Y16684D01*
X869Y16682D01*
X875Y16679D01*
X897Y16672D01*
X903Y16670D01*
X909Y16669D01*
X932Y16664D01*
X938Y16663D01*
X945Y16662D01*
X968Y16661D01*
X974Y16661D01*
X974Y16661D01*
X974Y16661D01*
X981Y16661D01*
X1004Y16662D01*
X1010Y16663D01*
X1017Y16664D01*
X1040Y16669D01*
X1046Y16670D01*
X1052Y16672D01*
X1074Y16679D01*
X1080Y16682D01*
X1086Y16684D01*
X1107Y16695D01*
X1112Y16698D01*
X1118Y16701D01*
X1137Y16714D01*
X1142Y16718D01*
X1148Y16722D01*
X1165Y16737D01*
X1170Y16742D01*
X1170Y16742D01*
X1170Y16742D01*
X1174Y16746D01*
X1190Y16764D01*
X1193Y16769D01*
X1198Y16774D01*
X1210Y16793D01*
X1213Y16799D01*
X1217Y16804D01*
X1227Y16825D01*
X1229Y16831D01*
X1232Y16837D01*
X1240Y16859D01*
X1241Y16866D01*
X1243Y16872D01*
X1247Y16895D01*
X1248Y16901D01*
X1249Y16907D01*
X1251Y16931D01*
X1251Y16934D01*
X1251Y16937D01*
X1251Y16940D01*
X1251Y16943D01*
X1249Y16967D01*
X1248Y16973D01*
X1247Y16979D01*
X1243Y17002D01*
X1241Y17008D01*
X1240Y17015D01*
X1232Y17037D01*
X1229Y17043D01*
X1227Y17049D01*
X1217Y17070D01*
X1213Y17075D01*
X1210Y17081D01*
X1198Y17100D01*
X1193Y17105D01*
X1190Y17110D01*
X1174Y17128D01*
X1170Y17132D01*
X1170Y17132D01*
X1170Y17132D01*
X1165Y17137D01*
X1148Y17152D01*
X1142Y17156D01*
X1137Y17160D01*
X1118Y17173D01*
X1112Y17176D01*
X1107Y17179D01*
X1086Y17190D01*
X1080Y17192D01*
X1074Y17195D01*
X1052Y17202D01*
X1046Y17204D01*
X1040Y17205D01*
X1017Y17210D01*
X1010Y17211D01*
X1004Y17212D01*
X981Y17213D01*
D02*
G37*
G36*
X2756Y17673D02*
X2722Y17672D01*
X2688Y17667D01*
X2654Y17658D01*
X2622Y17647D01*
X2591Y17632D01*
X2561Y17614D01*
X2534Y17594D01*
X2508Y17571D01*
X2485Y17545D01*
X2465Y17518D01*
X2447Y17488D01*
X2432Y17457D01*
X2421Y17425D01*
X2412Y17391D01*
X2407Y17357D01*
X2405Y17323D01*
X2407Y17288D01*
X2412Y17254D01*
X2421Y17221D01*
X2432Y17189D01*
X2447Y17158D01*
X2465Y17128D01*
X2485Y17101D01*
X2508Y17075D01*
X2534Y17052D01*
X2561Y17031D01*
X2591Y17014D01*
X2622Y16999D01*
X2654Y16988D01*
X2688Y16979D01*
X2722Y16974D01*
X2756Y16972D01*
X2790Y16974D01*
X2817Y16978D01*
X2868Y16927D01*
X2867Y16919D01*
X2824Y16879D01*
X2790Y16884D01*
X2756Y16886D01*
X2722Y16884D01*
X2688Y16879D01*
X2654Y16871D01*
X2622Y16859D01*
X2591Y16844D01*
X2561Y16827D01*
X2534Y16806D01*
X2508Y16783D01*
X2485Y16758D01*
X2465Y16730D01*
X2447Y16701D01*
X2432Y16670D01*
X2421Y16637D01*
X2412Y16604D01*
X2407Y16570D01*
X2405Y16535D01*
X2407Y16501D01*
X2412Y16467D01*
X2421Y16434D01*
X2432Y16401D01*
X2434Y16398D01*
X2077Y16041D01*
X2030Y16060D01*
Y16090D01*
X2029Y16118D01*
X2024Y16146D01*
X2016Y16173D01*
X2006Y16199D01*
X1992Y16223D01*
X1976Y16246D01*
X1957Y16267D01*
X1936Y16286D01*
X1913Y16302D01*
X1889Y16316D01*
X1863Y16326D01*
X1836Y16334D01*
X1808Y16339D01*
X1780Y16340D01*
X1752Y16339D01*
X1724Y16334D01*
X1697Y16326D01*
X1671Y16316D01*
X1647Y16302D01*
X1624Y16286D01*
X1603Y16267D01*
X1584Y16246D01*
X1568Y16223D01*
X1554Y16199D01*
X1544Y16173D01*
X1536Y16146D01*
X1482Y16129D01*
X1376Y16236D01*
X1355Y16254D01*
X1332Y16271D01*
X1307Y16284D01*
X1281Y16295D01*
X1254Y16303D01*
X1227Y16307D01*
X1199Y16309D01*
X1171Y16307D01*
X1143Y16303D01*
X1116Y16295D01*
X1090Y16284D01*
X1065Y16271D01*
X1043Y16254D01*
X1022Y16236D01*
X1003Y16215D01*
X987Y16192D01*
X973Y16167D01*
X962Y16141D01*
X955Y16114D01*
X950Y16087D01*
X948Y16059D01*
X950Y16031D01*
X955Y16003D01*
X962Y15976D01*
X973Y15950D01*
X987Y15925D01*
X1003Y15903D01*
X1022Y15882D01*
X1150Y15754D01*
Y14535D01*
X1138Y14520D01*
X1136Y14519D01*
X1100Y14506D01*
X1086Y14513D01*
X1080Y14515D01*
X1074Y14518D01*
X1052Y14525D01*
X1046Y14526D01*
X1040Y14528D01*
X1017Y14533D01*
X1010Y14533D01*
X1004Y14535D01*
X981Y14536D01*
X974Y14536D01*
X974Y14536D01*
X974Y14536D01*
X968Y14536D01*
X945Y14535D01*
X938Y14533D01*
X932Y14533D01*
X909Y14528D01*
X903Y14526D01*
X897Y14525D01*
X875Y14518D01*
X869Y14515D01*
X863Y14513D01*
X842Y14502D01*
X836Y14499D01*
X831Y14496D01*
X811Y14483D01*
X806Y14479D01*
X801Y14475D01*
X784Y14460D01*
X779Y14455D01*
X779Y14455D01*
X779Y14455D01*
X775Y14451D01*
X759Y14433D01*
X755Y14428D01*
X751Y14423D01*
X738Y14404D01*
X735Y14398D01*
X732Y14392D01*
X722Y14372D01*
X719Y14365D01*
X717Y14360D01*
X709Y14338D01*
X708Y14331D01*
X706Y14325D01*
X701Y14302D01*
X701Y14296D01*
X700Y14289D01*
X698Y14266D01*
X698Y14263D01*
X698Y14260D01*
X698Y14257D01*
X698Y14253D01*
X700Y14230D01*
X701Y14224D01*
X701Y14217D01*
X706Y14195D01*
X708Y14188D01*
X709Y14182D01*
X717Y14160D01*
X719Y14154D01*
X722Y14148D01*
X732Y14127D01*
X735Y14122D01*
X738Y14116D01*
X751Y14097D01*
X755Y14092D01*
X759Y14087D01*
X775Y14069D01*
X779Y14065D01*
X779Y14065D01*
X779Y14065D01*
X784Y14060D01*
X801Y14045D01*
X806Y14041D01*
X811Y14037D01*
X831Y14024D01*
X836Y14021D01*
X842Y14017D01*
X863Y14007D01*
X869Y14005D01*
X875Y14002D01*
X897Y13995D01*
X903Y13993D01*
X909Y13991D01*
X932Y13987D01*
X938Y13986D01*
X945Y13985D01*
X968Y13984D01*
X974Y13984D01*
X974Y13984D01*
X974Y13984D01*
X981Y13984D01*
X1004Y13985D01*
X1010Y13986D01*
X1017Y13987D01*
X1040Y13991D01*
X1046Y13993D01*
X1052Y13995D01*
X1074Y14002D01*
X1080Y14005D01*
X1086Y14007D01*
X1100Y14014D01*
X1136Y14001D01*
X1138Y13999D01*
X1150Y13985D01*
Y10980D01*
X1151Y10952D01*
X1156Y10924D01*
X1164Y10897D01*
X1174Y10871D01*
X1188Y10847D01*
X1204Y10824D01*
X1223Y10803D01*
X2043Y9983D01*
X2064Y9964D01*
X2087Y9948D01*
X2111Y9934D01*
X2137Y9924D01*
X2164Y9916D01*
X2192Y9911D01*
X2220Y9910D01*
X2248Y9911D01*
X2276Y9916D01*
X2303Y9924D01*
X2329Y9934D01*
X2353Y9948D01*
X2376Y9964D01*
X2397Y9983D01*
X2416Y10004D01*
X2432Y10027D01*
X2446Y10051D01*
X2456Y10077D01*
X2464Y10104D01*
X2469Y10132D01*
X2470Y10160D01*
X2469Y10188D01*
X2464Y10216D01*
X2456Y10243D01*
X2446Y10269D01*
X2432Y10293D01*
X2416Y10316D01*
X2397Y10337D01*
X1650Y11084D01*
Y11140D01*
X1697Y11159D01*
X2333Y10523D01*
X2354Y10504D01*
X2377Y10488D01*
X2401Y10474D01*
X2427Y10464D01*
X2454Y10456D01*
X2482Y10451D01*
X2510Y10450D01*
X3900D01*
X3928Y10451D01*
X3956Y10456D01*
X3983Y10464D01*
X4009Y10474D01*
X4033Y10488D01*
X4056Y10504D01*
X4077Y10523D01*
X4760Y11206D01*
X4761Y11206D01*
X4800Y11204D01*
X4839Y11206D01*
X4877Y11212D01*
X4915Y11221D01*
X4951Y11234D01*
X4987Y11251D01*
X5020Y11271D01*
X5051Y11294D01*
X5080Y11320D01*
X5106Y11349D01*
X5129Y11380D01*
X5149Y11413D01*
X5166Y11449D01*
X5179Y11485D01*
X5188Y11523D01*
X5194Y11561D01*
X5196Y11600D01*
X5194Y11639D01*
X5188Y11677D01*
X5179Y11715D01*
X5166Y11751D01*
X5149Y11787D01*
X5129Y11820D01*
X5106Y11851D01*
X5080Y11880D01*
X5051Y11906D01*
X5020Y11929D01*
X4987Y11949D01*
X4951Y11966D01*
X4915Y11979D01*
X4877Y11988D01*
X4839Y11994D01*
X4800Y11996D01*
X4761Y11994D01*
X4723Y11988D01*
X4685Y11979D01*
X4649Y11966D01*
X4613Y11949D01*
X4580Y11929D01*
X4549Y11906D01*
X4520Y11880D01*
X4494Y11851D01*
X4471Y11820D01*
X4451Y11787D01*
X4434Y11751D01*
X4421Y11715D01*
X4412Y11677D01*
X4406Y11639D01*
X4404Y11600D01*
X4406Y11561D01*
X4406Y11560D01*
X3796Y10950D01*
X2614D01*
X2547Y11017D01*
X2568Y11067D01*
X3006D01*
X3026Y11069D01*
X3044Y11074D01*
X3062Y11084D01*
X3077Y11096D01*
X3089Y11112D01*
X3099Y11129D01*
X3104Y11148D01*
X3106Y11167D01*
Y11583D01*
X3222Y11699D01*
X3235Y11715D01*
X3246Y11732D01*
X3254Y11751D01*
X3259Y11771D01*
X3260Y11791D01*
Y12410D01*
X3259Y12430D01*
X3254Y12450D01*
X3246Y12469D01*
X3235Y12487D01*
X3222Y12502D01*
X3042Y12682D01*
X3027Y12695D01*
X3025Y12696D01*
X3017Y12716D01*
X3013Y12743D01*
X3013Y12750D01*
X3016Y12758D01*
X3027Y12770D01*
X3047Y12797D01*
X3065Y12827D01*
X3080Y12858D01*
X3091Y12890D01*
X3100Y12924D01*
X3105Y12958D01*
X3106Y12992D01*
X3105Y13026D01*
X3100Y13060D01*
X3091Y13094D01*
X3080Y13126D01*
X3065Y13157D01*
X3047Y13187D01*
X3027Y13214D01*
X3004Y13240D01*
X2978Y13263D01*
X2951Y13283D01*
X2921Y13301D01*
X2890Y13316D01*
X2858Y13327D01*
X2824Y13336D01*
X2790Y13341D01*
X2756Y13343D01*
X2722Y13341D01*
X2695Y13337D01*
X2644Y13388D01*
X2645Y13396D01*
X2688Y13436D01*
X2706Y13433D01*
Y13780D01*
Y14126D01*
X2688Y14123D01*
X2654Y14115D01*
X2622Y14103D01*
X2591Y14089D01*
X2578Y14081D01*
X2535Y14101D01*
X2528Y14109D01*
Y14465D01*
X3305Y15242D01*
X3305Y15242D01*
X3323Y15262D01*
X3337Y15284D01*
X3349Y15307D01*
X3357Y15332D01*
X3362Y15358D01*
X3364Y15384D01*
X3364Y15384D01*
Y16915D01*
X3362Y16941D01*
X3357Y16967D01*
X3349Y16992D01*
X3337Y17015D01*
X3323Y17037D01*
X3305Y17057D01*
X3101Y17262D01*
X3105Y17288D01*
X3106Y17323D01*
X3105Y17357D01*
X3100Y17391D01*
X3091Y17425D01*
X3080Y17457D01*
X3065Y17488D01*
X3047Y17518D01*
X3027Y17545D01*
X3004Y17571D01*
X2978Y17594D01*
X2951Y17614D01*
X2921Y17632D01*
X2890Y17647D01*
X2858Y17658D01*
X2824Y17667D01*
X2790Y17672D01*
X2756Y17673D01*
D02*
G37*
G36*
X7433Y18060D02*
X7137D01*
Y17764D01*
X7155Y17767D01*
X7188Y17775D01*
X7221Y17786D01*
X7252Y17801D01*
X7281Y17819D01*
X7309Y17839D01*
X7334Y17862D01*
X7357Y17888D01*
X7378Y17916D01*
X7396Y17945D01*
X7410Y17976D01*
X7422Y18009D01*
X7430Y18042D01*
X7433Y18060D01*
D02*
G37*
G36*
X7037Y18457D02*
X7018Y18454D01*
X6985Y18446D01*
X6953Y18434D01*
X6921Y18419D01*
X6892Y18402D01*
X6864Y18381D01*
X6839Y18358D01*
X6816Y18333D01*
X6795Y18305D01*
X6778Y18275D01*
X6763Y18244D01*
X6751Y18212D01*
X6743Y18179D01*
X6740Y18160D01*
X7037D01*
Y18457D01*
D02*
G37*
G36*
X5512Y19293D02*
X5473Y19291D01*
X5435Y19286D01*
X5397Y19276D01*
X5360Y19263D01*
X5325Y19247D01*
X5292Y19227D01*
X5261Y19204D01*
X5232Y19177D01*
X5206Y19149D01*
X5183Y19118D01*
X5163Y19084D01*
X5146Y19049D01*
X5133Y19013D01*
X5124Y18975D01*
X5118Y18936D01*
X5116Y18898D01*
X5118Y18859D01*
X5124Y18820D01*
X5133Y18783D01*
X5146Y18746D01*
X5163Y18711D01*
X5183Y18678D01*
X5206Y18647D01*
X5232Y18618D01*
X5261Y18592D01*
X5292Y18569D01*
X5325Y18549D01*
X5360Y18532D01*
X5397Y18519D01*
X5435Y18509D01*
X5473Y18504D01*
X5512Y18502D01*
X5551Y18504D01*
X5589Y18509D01*
X5627Y18519D01*
X5663Y18532D01*
X5698Y18549D01*
X5732Y18569D01*
X5763Y18592D01*
X5792Y18618D01*
X5798Y18618D01*
X6023Y18393D01*
X6044Y18374D01*
X6067Y18358D01*
X6091Y18345D01*
X6117Y18334D01*
X6144Y18326D01*
X6172Y18321D01*
X6200Y18320D01*
X6228Y18321D01*
X6256Y18326D01*
X6283Y18334D01*
X6309Y18345D01*
X6333Y18358D01*
X6356Y18374D01*
X6377Y18393D01*
X6396Y18414D01*
X6412Y18437D01*
X6426Y18462D01*
X6436Y18488D01*
X6444Y18515D01*
X6449Y18542D01*
X6450Y18570D01*
X6449Y18598D01*
X6444Y18626D01*
X6436Y18653D01*
X6426Y18679D01*
X6412Y18703D01*
X6396Y18726D01*
X6377Y18747D01*
X6057Y19067D01*
X6036Y19086D01*
X6013Y19102D01*
X5989Y19116D01*
X5963Y19126D01*
X5936Y19134D01*
X5908Y19139D01*
X5880Y19140D01*
X5824D01*
X5818Y19149D01*
X5792Y19177D01*
X5763Y19204D01*
X5732Y19227D01*
X5698Y19247D01*
X5663Y19263D01*
X5627Y19276D01*
X5589Y19286D01*
X5551Y19291D01*
X5512Y19293D01*
D02*
G37*
G36*
X7137Y18457D02*
Y18160D01*
X7433D01*
X7430Y18179D01*
X7422Y18212D01*
X7410Y18244D01*
X7396Y18275D01*
X7378Y18305D01*
X7357Y18333D01*
X7334Y18358D01*
X7309Y18381D01*
X7281Y18402D01*
X7252Y18419D01*
X7221Y18434D01*
X7188Y18446D01*
X7155Y18454D01*
X7137Y18457D01*
D02*
G37*
G36*
X5540Y16280D02*
X5511Y16279D01*
X5483Y16273D01*
X5456Y16264D01*
X5430Y16251D01*
X5406Y16235D01*
X5384Y16216D01*
X5371Y16200D01*
X4550D01*
X4528Y16199D01*
X4507Y16194D01*
X4486Y16185D01*
X4467Y16174D01*
X4451Y16159D01*
X3891Y15599D01*
X3876Y15583D01*
X3865Y15564D01*
X3856Y15543D01*
X3851Y15522D01*
X3850Y15500D01*
Y15148D01*
X3631Y14929D01*
X3624Y14935D01*
X3600Y14951D01*
X3574Y14964D01*
X3547Y14973D01*
X3519Y14979D01*
X3490Y14980D01*
X3461Y14979D01*
X3433Y14973D01*
X3406Y14964D01*
X3380Y14951D01*
X3356Y14935D01*
X3334Y14916D01*
X3315Y14894D01*
X3299Y14870D01*
X3286Y14844D01*
X3277Y14817D01*
X3271Y14789D01*
X3270Y14760D01*
X3271Y14731D01*
X3277Y14703D01*
X3286Y14676D01*
X3299Y14650D01*
X3315Y14626D01*
X3334Y14604D01*
X3356Y14585D01*
X3380Y14569D01*
X3405Y14557D01*
X3405Y14554D01*
X3398Y14506D01*
X3383Y14503D01*
X3356Y14494D01*
X3330Y14481D01*
X3306Y14465D01*
X3284Y14446D01*
X3265Y14424D01*
X3249Y14400D01*
X3236Y14374D01*
X3227Y14347D01*
X3221Y14319D01*
X3220Y14290D01*
X3221Y14261D01*
X3227Y14233D01*
X3236Y14206D01*
X3249Y14180D01*
X3265Y14156D01*
X3284Y14134D01*
X3306Y14115D01*
X3330Y14099D01*
X3356Y14086D01*
X3383Y14077D01*
X3410Y14072D01*
X3960Y13522D01*
X3952Y13501D01*
X3943Y13463D01*
X3937Y13425D01*
X3935Y13386D01*
X3937Y13347D01*
X3943Y13309D01*
X3952Y13271D01*
X3965Y13234D01*
X3982Y13199D01*
X4002Y13166D01*
X4025Y13135D01*
X4051Y13106D01*
X4080Y13080D01*
X4111Y13057D01*
X4144Y13037D01*
X4179Y13020D01*
X4216Y13007D01*
X4254Y12998D01*
X4292Y12992D01*
X4331Y12990D01*
X4369Y12992D01*
X4408Y12998D01*
X4446Y13007D01*
X4482Y13020D01*
X4517Y13037D01*
X4551Y13057D01*
X4582Y13080D01*
X4611Y13106D01*
X4637Y13135D01*
X4660Y13166D01*
X4680Y13199D01*
X4696Y13234D01*
X4709Y13271D01*
X4719Y13309D01*
X4725Y13347D01*
X4726Y13386D01*
X4725Y13425D01*
X4719Y13463D01*
X4709Y13501D01*
X4696Y13537D01*
X4680Y13572D01*
X4660Y13606D01*
X4637Y13637D01*
X4611Y13666D01*
X4582Y13692D01*
X4551Y13715D01*
X4517Y13735D01*
X4482Y13751D01*
X4446Y13765D01*
X4408Y13774D01*
X4369Y13780D01*
X4331Y13782D01*
X4292Y13780D01*
X4254Y13774D01*
X4216Y13765D01*
X4214Y13764D01*
X3786Y14192D01*
X3811Y14238D01*
X3816Y14237D01*
X3839Y14235D01*
X4707D01*
X5233Y13709D01*
X5232Y13666D01*
X5206Y13637D01*
X5183Y13606D01*
X5163Y13572D01*
X5146Y13537D01*
X5133Y13501D01*
X5124Y13463D01*
X5118Y13425D01*
X5116Y13386D01*
X5118Y13347D01*
X5124Y13309D01*
X5133Y13271D01*
X5146Y13234D01*
X5163Y13199D01*
X5183Y13166D01*
X5206Y13135D01*
X5232Y13106D01*
X5261Y13080D01*
X5292Y13057D01*
X5325Y13037D01*
X5360Y13020D01*
X5397Y13007D01*
X5435Y12998D01*
X5473Y12992D01*
X5512Y12990D01*
X5551Y12992D01*
X5589Y12998D01*
X5627Y13007D01*
X5663Y13020D01*
X5698Y13037D01*
X5732Y13057D01*
X5763Y13080D01*
X5792Y13106D01*
X5818Y13135D01*
X5841Y13166D01*
X5861Y13199D01*
X5877Y13234D01*
X5891Y13271D01*
X5900Y13309D01*
X5906Y13347D01*
X5908Y13386D01*
X5906Y13425D01*
X5900Y13463D01*
X5891Y13501D01*
X5877Y13537D01*
X5861Y13572D01*
X5841Y13606D01*
X5818Y13637D01*
X5792Y13666D01*
X5763Y13692D01*
X5732Y13715D01*
X5698Y13735D01*
X5673Y13747D01*
X5664Y13766D01*
X5651Y13785D01*
X5636Y13802D01*
X4903Y14535D01*
X4886Y14550D01*
X4867Y14563D01*
X4846Y14573D01*
X4825Y14580D01*
X4802Y14585D01*
X4779Y14586D01*
X3912D01*
X3798Y14700D01*
X4089Y14991D01*
X4104Y15007D01*
X4115Y15026D01*
X4124Y15047D01*
X4129Y15068D01*
X4130Y15090D01*
Y15442D01*
X4608Y15920D01*
X5371D01*
X5384Y15904D01*
X5406Y15885D01*
X5430Y15869D01*
X5456Y15856D01*
X5483Y15847D01*
X5511Y15841D01*
X5540Y15840D01*
X5569Y15841D01*
X5597Y15847D01*
X5624Y15856D01*
X5650Y15869D01*
X5674Y15885D01*
X5696Y15904D01*
X5715Y15926D01*
X5731Y15950D01*
X5744Y15976D01*
X5753Y16003D01*
X5759Y16031D01*
X5760Y16060D01*
X5759Y16089D01*
X5753Y16117D01*
X5744Y16144D01*
X5731Y16170D01*
X5715Y16194D01*
X5696Y16216D01*
X5674Y16235D01*
X5650Y16251D01*
X5624Y16264D01*
X5597Y16273D01*
X5569Y16279D01*
X5540Y16280D01*
D02*
G37*
G36*
X981Y11210D02*
X621D01*
Y10982D01*
X709D01*
X740Y10984D01*
X770Y10989D01*
X800Y10998D01*
X829Y11010D01*
X856Y11025D01*
X882Y11043D01*
X905Y11064D01*
X926Y11087D01*
X944Y11112D01*
X959Y11139D01*
X971Y11168D01*
X979Y11198D01*
X981Y11210D01*
D02*
G37*
G36*
X14140Y11370D02*
X14111Y11369D01*
X14083Y11363D01*
X14056Y11354D01*
X14030Y11341D01*
X14006Y11325D01*
X13984Y11306D01*
X13965Y11284D01*
X13949Y11260D01*
X13936Y11234D01*
X13927Y11207D01*
X13921Y11179D01*
X13920Y11150D01*
X13921Y11121D01*
X13927Y11093D01*
X13936Y11066D01*
X13949Y11040D01*
X13965Y11016D01*
X13984Y10994D01*
X14002Y10978D01*
Y10795D01*
X13999Y10790D01*
X13986Y10764D01*
X13977Y10737D01*
X13971Y10709D01*
X13970Y10680D01*
X13971Y10651D01*
X13977Y10623D01*
X13986Y10596D01*
X13999Y10570D01*
X14015Y10546D01*
X14034Y10524D01*
X14056Y10505D01*
X14080Y10489D01*
X14106Y10476D01*
X14133Y10467D01*
X14161Y10461D01*
X14190Y10460D01*
X14219Y10461D01*
X14247Y10467D01*
X14274Y10476D01*
X14300Y10489D01*
X14324Y10505D01*
X14346Y10524D01*
X14365Y10546D01*
X14381Y10570D01*
X14394Y10596D01*
X14403Y10623D01*
X14409Y10651D01*
X14410Y10680D01*
X14409Y10709D01*
X14403Y10737D01*
X14394Y10764D01*
X14381Y10790D01*
X14365Y10814D01*
X14346Y10836D01*
X14324Y10855D01*
X14300Y10871D01*
X14278Y10882D01*
Y10978D01*
X14296Y10994D01*
X14315Y11016D01*
X14331Y11040D01*
X14344Y11066D01*
X14353Y11093D01*
X14359Y11121D01*
X14360Y11150D01*
X14359Y11179D01*
X14353Y11207D01*
X14344Y11234D01*
X14331Y11260D01*
X14315Y11284D01*
X14296Y11306D01*
X14274Y11325D01*
X14250Y11341D01*
X14224Y11354D01*
X14197Y11363D01*
X14169Y11369D01*
X14140Y11370D01*
D02*
G37*
G36*
X6196Y11550D02*
X5850D01*
Y11204D01*
X6095D01*
X6115Y11206D01*
X6134Y11212D01*
X6151Y11221D01*
X6166Y11234D01*
X6179Y11249D01*
X6188Y11266D01*
X6194Y11285D01*
X6196Y11305D01*
Y11550D01*
D02*
G37*
G36*
X5750D02*
X5404D01*
Y11305D01*
X5406Y11285D01*
X5412Y11266D01*
X5421Y11249D01*
X5434Y11234D01*
X5449Y11221D01*
X5466Y11212D01*
X5485Y11206D01*
X5505Y11204D01*
X5750D01*
Y11550D01*
D02*
G37*
G36*
X4055Y10238D02*
X4016Y10236D01*
X3978Y10231D01*
X3940Y10221D01*
X3904Y10208D01*
X3869Y10192D01*
X3835Y10172D01*
X3804Y10148D01*
X3775Y10122D01*
X3749Y10094D01*
X3726Y10062D01*
X3706Y10029D01*
X3689Y9994D01*
X3676Y9957D01*
X3667Y9920D01*
X3661Y9881D01*
X3659Y9843D01*
X3661Y9804D01*
X3667Y9765D01*
X3676Y9728D01*
X3689Y9691D01*
X3706Y9656D01*
X3726Y9623D01*
X3749Y9591D01*
X3775Y9563D01*
X3804Y9537D01*
X3835Y9513D01*
X3869Y9493D01*
X3904Y9477D01*
X3940Y9464D01*
X3978Y9454D01*
X4016Y9449D01*
X4055Y9447D01*
X4094Y9449D01*
X4132Y9454D01*
X4170Y9464D01*
X4207Y9477D01*
X4242Y9493D01*
X4275Y9513D01*
X4306Y9537D01*
X4335Y9563D01*
X4361Y9591D01*
X4384Y9623D01*
X4404Y9656D01*
X4421Y9691D01*
X4434Y9728D01*
X4443Y9765D01*
X4449Y9804D01*
X4451Y9843D01*
X4449Y9881D01*
X4443Y9920D01*
X4434Y9957D01*
X4421Y9994D01*
X4404Y10029D01*
X4384Y10062D01*
X4361Y10094D01*
X4335Y10122D01*
X4306Y10148D01*
X4275Y10172D01*
X4242Y10192D01*
X4207Y10208D01*
X4170Y10221D01*
X4132Y10231D01*
X4094Y10236D01*
X4055Y10238D01*
D02*
G37*
G36*
X709Y8939D02*
X621D01*
Y8711D01*
X981D01*
X979Y8723D01*
X971Y8753D01*
X959Y8782D01*
X944Y8809D01*
X926Y8834D01*
X905Y8858D01*
X882Y8878D01*
X856Y8896D01*
X829Y8912D01*
X800Y8923D01*
X770Y8932D01*
X740Y8937D01*
X709Y8939D01*
D02*
G37*
G36*
X10472Y11124D02*
X9981D01*
Y10748D01*
Y10372D01*
X10472D01*
X10492Y10374D01*
X10511Y10380D01*
X10528Y10389D01*
X10543Y10401D01*
X10544Y10403D01*
X10550Y10399D01*
X10576Y10386D01*
X10603Y10377D01*
X10631Y10371D01*
X10660Y10370D01*
X10689Y10371D01*
X10717Y10377D01*
X10744Y10386D01*
X10770Y10399D01*
X10794Y10415D01*
X10816Y10434D01*
X10835Y10456D01*
X10837Y10460D01*
X11020D01*
X11033Y10461D01*
X11043Y10457D01*
X11071Y10451D01*
X11100Y10450D01*
X11129Y10451D01*
X11157Y10457D01*
X11184Y10466D01*
X11210Y10479D01*
X11234Y10495D01*
X11256Y10514D01*
X11275Y10536D01*
X11291Y10560D01*
X11304Y10586D01*
X11313Y10613D01*
X11319Y10641D01*
X11320Y10670D01*
X11319Y10699D01*
X11313Y10727D01*
X11304Y10754D01*
X11291Y10780D01*
X11275Y10804D01*
X11256Y10826D01*
X11234Y10845D01*
X11210Y10861D01*
X11184Y10874D01*
X11157Y10883D01*
X11129Y10889D01*
X11100Y10890D01*
X11071Y10889D01*
X11043Y10883D01*
X11016Y10874D01*
X10990Y10861D01*
X10966Y10845D01*
X10944Y10826D01*
X10925Y10804D01*
X10909Y10780D01*
X10896Y10754D01*
X10887Y10727D01*
X10886Y10720D01*
X10837D01*
X10835Y10724D01*
X10816Y10746D01*
X10794Y10765D01*
X10770Y10781D01*
X10744Y10794D01*
X10717Y10803D01*
X10689Y10809D01*
X10660Y10810D01*
X10631Y10809D01*
X10623Y10807D01*
X10582Y10833D01*
X10573Y10846D01*
Y11024D01*
X10571Y11043D01*
X10565Y11062D01*
X10556Y11079D01*
X10543Y11095D01*
X10528Y11107D01*
X10511Y11116D01*
X10492Y11122D01*
X10472Y11124D01*
D02*
G37*
G36*
X9881Y10698D02*
X9289D01*
Y10472D01*
X9291Y10453D01*
X9297Y10434D01*
X9306Y10417D01*
X9319Y10401D01*
X9334Y10389D01*
X9351Y10380D01*
X9370Y10374D01*
X9390Y10372D01*
X9881D01*
Y10698D01*
D02*
G37*
G36*
X709Y11537D02*
X621D01*
Y11310D01*
X981D01*
X979Y11322D01*
X971Y11352D01*
X959Y11380D01*
X944Y11408D01*
X926Y11433D01*
X905Y11456D01*
X882Y11477D01*
X856Y11495D01*
X829Y11510D01*
X800Y11522D01*
X770Y11530D01*
X740Y11536D01*
X709Y11537D01*
D02*
G37*
G36*
X8250Y13996D02*
X8005D01*
X7985Y13994D01*
X7966Y13988D01*
X7949Y13979D01*
X7934Y13966D01*
X7921Y13951D01*
X7912Y13934D01*
X7906Y13915D01*
X7904Y13895D01*
Y13650D01*
X8250D01*
Y13996D01*
D02*
G37*
G36*
X2806Y14126D02*
Y13830D01*
X3102D01*
X3100Y13848D01*
X3091Y13881D01*
X3080Y13914D01*
X3065Y13945D01*
X3047Y13974D01*
X3027Y14002D01*
X3004Y14027D01*
X2978Y14050D01*
X2951Y14071D01*
X2921Y14089D01*
X2890Y14103D01*
X2858Y14115D01*
X2824Y14123D01*
X2806Y14126D01*
D02*
G37*
G36*
X8595Y13996D02*
X8350D01*
Y13650D01*
X8696D01*
Y13895D01*
X8694Y13915D01*
X8688Y13934D01*
X8679Y13951D01*
X8666Y13966D01*
X8651Y13979D01*
X8634Y13988D01*
X8615Y13994D01*
X8595Y13996D01*
D02*
G37*
G36*
X5750Y11996D02*
X5505D01*
X5485Y11994D01*
X5466Y11988D01*
X5449Y11979D01*
X5434Y11966D01*
X5421Y11951D01*
X5412Y11934D01*
X5406Y11915D01*
X5404Y11895D01*
Y11650D01*
X5750D01*
Y11996D01*
D02*
G37*
G36*
X11516Y12246D02*
X11477Y12244D01*
X11439Y12239D01*
X11401Y12229D01*
X11364Y12216D01*
X11329Y12199D01*
X11296Y12179D01*
X11265Y12156D01*
X11236Y12130D01*
X11210Y12101D01*
X11187Y12070D01*
X11167Y12037D01*
X11150Y12002D01*
X11137Y11965D01*
X11128Y11928D01*
X11122Y11889D01*
X11120Y11850D01*
X11122Y11812D01*
X11128Y11773D01*
X11137Y11736D01*
X11150Y11699D01*
X11167Y11664D01*
X11187Y11631D01*
X11210Y11599D01*
X11236Y11571D01*
X11265Y11544D01*
X11296Y11521D01*
X11329Y11501D01*
X11364Y11485D01*
X11401Y11472D01*
X11439Y11462D01*
X11477Y11457D01*
X11516Y11455D01*
X11555Y11457D01*
X11593Y11462D01*
X11631Y11472D01*
X11667Y11485D01*
X11702Y11501D01*
X11736Y11521D01*
X11767Y11544D01*
X11796Y11571D01*
X11822Y11599D01*
X11845Y11631D01*
X11865Y11664D01*
X11881Y11699D01*
X11894Y11736D01*
X11904Y11773D01*
X11910Y11812D01*
X11911Y11850D01*
X11910Y11889D01*
X11904Y11928D01*
X11894Y11965D01*
X11881Y12002D01*
X11865Y12037D01*
X11845Y12070D01*
X11822Y12101D01*
X11796Y12130D01*
X11767Y12156D01*
X11736Y12179D01*
X11702Y12199D01*
X11667Y12216D01*
X11631Y12229D01*
X11593Y12239D01*
X11555Y12244D01*
X11516Y12246D01*
D02*
G37*
G36*
X3102Y13730D02*
X2806D01*
Y13433D01*
X2824Y13436D01*
X2858Y13444D01*
X2890Y13456D01*
X2921Y13470D01*
X2951Y13488D01*
X2978Y13509D01*
X3004Y13532D01*
X3027Y13557D01*
X3047Y13585D01*
X3065Y13614D01*
X3080Y13645D01*
X3091Y13678D01*
X3100Y13711D01*
X3102Y13730D01*
D02*
G37*
G36*
X11764Y18060D02*
X11467D01*
Y17764D01*
X11486Y17767D01*
X11519Y17775D01*
X11551Y17786D01*
X11583Y17801D01*
X11612Y17819D01*
X11640Y17839D01*
X11665Y17862D01*
X11688Y17888D01*
X11709Y17916D01*
X11726Y17945D01*
X11741Y17976D01*
X11753Y18009D01*
X11761Y18042D01*
X11764Y18060D01*
D02*
G37*
G36*
X11367D02*
X11071D01*
X11074Y18042D01*
X11082Y18009D01*
X11094Y17976D01*
X11108Y17945D01*
X11126Y17916D01*
X11146Y17888D01*
X11170Y17862D01*
X11195Y17839D01*
X11223Y17819D01*
X11252Y17801D01*
X11283Y17786D01*
X11316Y17775D01*
X11349Y17767D01*
X11367Y17764D01*
Y18060D01*
D02*
G37*
G36*
Y18457D02*
X11349Y18454D01*
X11316Y18446D01*
X11283Y18434D01*
X11252Y18419D01*
X11223Y18402D01*
X11195Y18381D01*
X11170Y18358D01*
X11146Y18333D01*
X11126Y18305D01*
X11108Y18275D01*
X11094Y18244D01*
X11082Y18212D01*
X11074Y18179D01*
X11071Y18160D01*
X11367D01*
Y18457D01*
D02*
G37*
G36*
X13778Y18848D02*
X13436D01*
Y18505D01*
X13463Y18509D01*
X13501Y18519D01*
X13537Y18532D01*
X13572Y18549D01*
X13606Y18569D01*
X13637Y18592D01*
X13666Y18618D01*
X13692Y18647D01*
X13715Y18678D01*
X13735Y18711D01*
X13751Y18746D01*
X13765Y18783D01*
X13774Y18820D01*
X13778Y18848D01*
D02*
G37*
G36*
X13336D02*
X12994D01*
X12998Y18820D01*
X13007Y18783D01*
X13020Y18746D01*
X13037Y18711D01*
X13057Y18678D01*
X13080Y18647D01*
X13106Y18618D01*
X13135Y18592D01*
X13166Y18569D01*
X13199Y18549D01*
X13234Y18532D01*
X13271Y18519D01*
X13309Y18509D01*
X13336Y18505D01*
Y18848D01*
D02*
G37*
G36*
X13436Y19290D02*
Y18948D01*
X13778D01*
X13774Y18975D01*
X13765Y19013D01*
X13751Y19049D01*
X13735Y19084D01*
X13715Y19118D01*
X13692Y19149D01*
X13666Y19177D01*
X13637Y19204D01*
X13606Y19227D01*
X13572Y19247D01*
X13537Y19263D01*
X13501Y19276D01*
X13463Y19286D01*
X13436Y19290D01*
D02*
G37*
G36*
X13336D02*
X13309Y19286D01*
X13271Y19276D01*
X13234Y19263D01*
X13199Y19247D01*
X13166Y19227D01*
X13135Y19204D01*
X13106Y19177D01*
X13080Y19149D01*
X13057Y19118D01*
X13037Y19084D01*
X13020Y19049D01*
X13007Y19013D01*
X12998Y18975D01*
X12994Y18948D01*
X13336D01*
Y19290D01*
D02*
G37*
G36*
X11467Y18457D02*
Y18160D01*
X11764D01*
X11761Y18179D01*
X11753Y18212D01*
X11741Y18244D01*
X11726Y18275D01*
X11709Y18305D01*
X11688Y18333D01*
X11665Y18358D01*
X11640Y18381D01*
X11612Y18402D01*
X11583Y18419D01*
X11551Y18434D01*
X11519Y18446D01*
X11486Y18454D01*
X11467Y18457D01*
D02*
G37*
%LPD*%
D10*
X12693Y1532D02*
G03*
X13526Y699I833J0D01*
G01*
X13543D02*
X16024D01*
X12693Y1532D02*
Y2150D01*
D11*
X19548Y6509D02*
G03*
X19548Y6509I-276J0D01*
G01*
D12*
X8710Y15000D02*
G03*
X8710Y14661I44J-170D01*
G01*
X8850D02*
G03*
X8850Y15000I-44J170D01*
G01*
X5052Y8029D02*
Y8522D01*
X5180Y8650D01*
X5260Y7987D02*
X5851Y7396D01*
X5260Y7987D02*
Y8120D01*
X5052Y8029D02*
X6091Y6990D01*
X5592Y7986D02*
Y8608D01*
Y7986D02*
X5948Y7630D01*
X5590Y8610D02*
X5592Y8608D01*
X10474Y6414D02*
Y7346D01*
X10091Y5957D02*
Y6031D01*
Y5745D02*
Y5957D01*
Y5745D02*
X11009Y4827D01*
X10091Y6031D02*
X10474Y6414D01*
X8632Y8648D02*
X9610Y7670D01*
Y7350D02*
Y7670D01*
X16906Y7762D02*
Y10706D01*
Y7412D02*
Y7762D01*
X16912Y7756D02*
X17402D01*
X16906Y7762D02*
X16912Y7756D01*
X16906Y7412D02*
X17650Y6668D01*
X13455Y14665D02*
X13730Y14940D01*
X13455Y14157D02*
Y14665D01*
Y14157D02*
X16906Y10706D01*
X16788Y7364D02*
X17530Y6621D01*
X16788Y7364D02*
Y10658D01*
X13337Y14108D02*
X16788Y10658D01*
X13337Y14108D02*
Y14746D01*
X12222Y15861D02*
X13337Y14746D01*
X12222Y15861D02*
Y16020D01*
X16670Y7315D02*
X17410Y6575D01*
X11898Y16018D02*
X13219Y14697D01*
X16670Y7315D02*
Y10609D01*
X13219Y14060D02*
X16670Y10609D01*
X13219Y14060D02*
Y14697D01*
X11898Y16018D02*
Y16628D01*
X11600Y7229D02*
Y7350D01*
X12812Y5781D02*
Y6018D01*
X11600Y7229D02*
X12812Y6018D01*
X9480Y8340D02*
X10474Y7346D01*
X8075Y4285D02*
X8794D01*
X9480Y3800D02*
Y3856D01*
X9242Y4094D02*
X9480Y3856D01*
X8985Y4094D02*
X9242D01*
X8794Y4285D02*
X8985Y4094D01*
X8026Y4403D02*
X8843D01*
X9034Y4212D02*
X9418D01*
X8843Y4403D02*
X9034Y4212D01*
X9418D02*
X9440Y4190D01*
X9443Y5226D02*
X9679Y4990D01*
X4274Y5226D02*
X9443D01*
X9394Y5108D02*
X9630Y4872D01*
X4222Y5108D02*
X9394D01*
X9346Y4990D02*
X9581Y4754D01*
X4620Y4990D02*
X9346D01*
X9297Y4872D02*
X9533Y4636D01*
X4882Y4872D02*
X9297D01*
X9248Y4754D02*
X9484Y4519D01*
X6094Y4754D02*
X9248D01*
X9199Y4637D02*
X9435Y4401D01*
X6928Y4637D02*
X9199D01*
X10592Y5411D02*
Y7398D01*
X10709Y5460D02*
Y7450D01*
X10827Y5509D02*
Y7499D01*
Y5509D02*
X11037Y5299D01*
X9854Y4990D02*
X10962Y3882D01*
X9679Y4990D02*
X9854D01*
X9805Y4872D02*
X10948Y3730D01*
X9630Y4872D02*
X9805D01*
X9756Y4754D02*
X10899Y3612D01*
X9581Y4754D02*
X9756D01*
X9708Y4636D02*
X10850Y3494D01*
X9533Y4636D02*
X9708D01*
X9659Y4519D02*
X10801Y3376D01*
X9484Y4519D02*
X9659D01*
X9610Y4401D02*
X10424Y3587D01*
X9435Y4401D02*
X9610D01*
X10709Y5460D02*
X11028Y5142D01*
X10592Y5411D02*
X11018Y4984D01*
X8632Y8648D02*
Y9434D01*
X8352Y9714D02*
Y10258D01*
Y9714D02*
X8632Y9434D01*
X8310Y10300D02*
X8352Y10258D01*
X7350Y7940D02*
Y8093D01*
X5948Y7630D02*
X6290D01*
X6525Y7395D01*
X6193Y7396D02*
X6474Y7115D01*
X5851Y7396D02*
X6193D01*
X6091Y6957D02*
Y6990D01*
X6474Y6798D02*
Y7115D01*
X14081Y4669D02*
X14189D01*
X12184Y8561D02*
X13351D01*
X12233Y8443D02*
X13400D01*
X12281Y8325D02*
X13449D01*
X13351Y8561D02*
X13540Y8750D01*
X13400Y8443D02*
X13658Y8701D01*
X13449Y8325D02*
X13776Y8652D01*
X9380Y6360D02*
Y6667D01*
X9091Y6957D02*
X9380Y6667D01*
X13215Y9662D02*
X13776Y9102D01*
Y8652D02*
Y9102D01*
X13658Y8701D02*
Y9053D01*
X13226Y9484D02*
X13658Y9053D01*
X13219Y9484D02*
X13226D01*
X13540Y8750D02*
Y9004D01*
X13371Y9173D02*
X13540Y9004D01*
X12589Y9173D02*
X13371D01*
X11663Y8040D02*
X12184Y8561D01*
X11709Y7920D02*
X12233Y8443D01*
X11392Y7436D02*
X12281Y8325D01*
X9931Y8700D02*
Y9173D01*
Y8395D02*
Y8700D01*
X10914Y8040D02*
X11663D01*
X10254Y8700D02*
X10914Y8040D01*
X9931Y8700D02*
X10254D01*
X12219Y9544D02*
X13159D01*
X10170Y8323D02*
Y8490D01*
Y8323D02*
X10573Y7920D01*
X11709D01*
X13159Y9544D02*
X13219Y9484D01*
X11274Y7215D02*
X12497Y5992D01*
X11274Y7215D02*
Y7566D01*
X10970Y7353D02*
X12339Y5983D01*
X10970Y7353D02*
Y7710D01*
X9440Y8550D02*
X10592Y7398D01*
X9440Y8550D02*
Y8560D01*
X11392Y7264D02*
X12654Y6002D01*
X11392Y7264D02*
Y7436D01*
X11890Y7106D02*
Y7240D01*
X12170Y6994D02*
X13127Y6037D01*
X12170Y6994D02*
Y7120D01*
X12668Y6829D02*
Y7187D01*
Y6829D02*
X13442Y6055D01*
X12521Y7334D02*
X12668Y7187D01*
X12450Y6880D02*
X13284Y6046D01*
X12450Y6880D02*
Y7010D01*
X11890Y7106D02*
X12969Y6027D01*
Y5781D02*
Y6027D01*
X12654Y5781D02*
Y6002D01*
X12497Y5781D02*
Y5992D01*
X12339Y5781D02*
Y5983D01*
X7812Y15272D02*
X10928D01*
X13127Y5781D02*
Y6037D01*
X13284Y5781D02*
Y6046D01*
X6370Y3820D02*
X6828Y4278D01*
X7496D01*
X7562Y4212D02*
X7835D01*
X7496Y4278D02*
X7562Y4212D01*
X7340Y3600D02*
X7410Y3670D01*
Y4070D01*
X7860D01*
X8075Y4285D01*
X6000Y4660D02*
X6094Y4754D01*
X6000Y3820D02*
X6370D01*
X16339Y4241D02*
X17650Y5553D01*
X16290Y4359D02*
X17530Y5600D01*
X16241Y4477D02*
X17410Y5646D01*
X16192Y4595D02*
X17288Y5691D01*
X16143Y4713D02*
X17170Y5740D01*
X17052Y5922D02*
Y6433D01*
X16890Y5760D02*
X17052Y5922D01*
X17650Y5553D02*
Y6668D01*
X17530Y5600D02*
Y6621D01*
X17410Y5646D02*
Y6575D01*
X17288Y5691D02*
Y6530D01*
X17170Y5740D02*
Y6481D01*
X18453Y7705D02*
X18504Y7756D01*
X18453Y7266D02*
Y7705D01*
X14762Y3818D02*
X16088D01*
X14775Y3398D02*
X15835D01*
X14543Y3630D02*
X14775Y3398D01*
X14449Y3724D02*
X14543Y3630D01*
X14081Y3724D02*
X14449D01*
X14553Y4027D02*
X14762Y3818D01*
X14415Y3882D02*
X14543Y4010D01*
X14428Y4241D02*
X16339D01*
X14379Y4359D02*
X16290D01*
X14330Y4477D02*
X16241D01*
X14282Y4595D02*
X16192D01*
X14233Y4713D02*
X16143D01*
X14189Y4669D02*
X14233Y4713D01*
X14199Y4512D02*
X14282Y4595D01*
X14208Y4354D02*
X14330Y4477D01*
X14217Y4197D02*
X14379Y4359D01*
X14226Y4039D02*
X14428Y4241D01*
X14081Y4512D02*
X14199D01*
X14081Y4354D02*
X14208D01*
X14081Y4197D02*
X14217D01*
X14081Y4039D02*
X14226D01*
X14553Y4027D02*
Y4030D01*
X14273Y2871D02*
X14483D01*
X13962Y3182D02*
X14273Y2871D01*
X13703Y3182D02*
X13962D01*
X13652Y3062D02*
X13850Y3062D01*
X13915D02*
X14171Y2806D01*
X13850Y3062D02*
X13915D01*
X14483Y2871D02*
X14504Y2850D01*
X14483Y2871D02*
X14504D01*
Y2514D02*
Y2850D01*
X14171Y2241D02*
Y2806D01*
Y2241D02*
X14241Y2171D01*
X16620Y7198D02*
X17288Y6530D01*
X16000Y7080D02*
X16571D01*
X17170Y6481D01*
X15951Y6962D02*
X16523D01*
X17052Y6433D01*
X16047Y7200D02*
X16500D01*
X16502Y7198D02*
X16620D01*
X16500Y7200D02*
X16502Y7198D01*
X10217Y3150D02*
X10424Y3356D01*
X10157Y3150D02*
X10217D01*
X9984D02*
X10157D01*
X9777Y3356D02*
X9984Y3150D01*
X10644Y2804D02*
X11189D01*
X10540Y2700D02*
X10644Y2804D01*
X9970Y2700D02*
X10540D01*
X9882Y2788D02*
X9970Y2700D01*
X9338Y2788D02*
X9882D01*
X8976Y3150D02*
X9338Y2788D01*
X8976Y3160D02*
X9480Y3664D01*
Y3800D01*
X8976Y3150D02*
Y3160D01*
X6715Y8635D02*
X6780Y8700D01*
X6950Y8370D02*
X7460D01*
X11018Y4984D02*
X11700D01*
X11028Y5142D02*
X11700D01*
X11037Y5299D02*
X11700D01*
X11009Y4827D02*
X11700D01*
X13340Y6327D02*
Y6898D01*
Y6327D02*
X13599Y6068D01*
X13267Y6971D02*
X13340Y6898D01*
X9931Y8395D02*
X10827Y7499D01*
X9700Y8459D02*
X10709Y7450D01*
X8700Y7680D02*
Y8360D01*
X8420Y8640D02*
X8700Y8360D01*
X7670Y8580D02*
Y9100D01*
X4690Y4680D02*
X4882Y4872D01*
X4370Y4740D02*
X4620Y4990D01*
X3560Y5770D02*
X4222Y5108D01*
X3680Y5820D02*
X4274Y5226D01*
X11650Y2942D02*
X12179D01*
X11462Y3130D02*
X11650Y2942D01*
X10950Y3130D02*
X11462D01*
X11697Y3062D02*
X12129D01*
X11743Y3182D02*
X12078D01*
X11790Y3302D02*
X11992D01*
X12227Y2821D02*
X12654Y3248D01*
Y3400D01*
X11821Y2821D02*
X12227D01*
X12179Y2942D02*
X12279Y3041D01*
X12078Y3182D02*
X12182Y3286D01*
X12129Y3062D02*
X12339Y3272D01*
X2756Y11417D02*
X3130Y11791D01*
X12497Y3260D02*
Y3400D01*
X12339Y3272D02*
Y3400D01*
X18663Y6764D02*
X18741Y6687D01*
X18465D02*
X18543Y6764D01*
X12182Y3286D02*
Y3400D01*
X14425Y2435D02*
X14504Y2514D01*
X14081Y3882D02*
X14415D01*
X13127Y3248D02*
X13571Y2804D01*
X13127Y3248D02*
Y3400D01*
X13604Y2941D02*
X13702Y2941D01*
X13284Y3260D02*
X13604Y2941D01*
X13284Y3260D02*
Y3400D01*
X13442Y3272D02*
X13652Y3062D01*
X13442Y3272D02*
Y3400D01*
X13599Y3286D02*
X13703Y3182D01*
X13599Y3286D02*
Y3400D01*
X13571Y2701D02*
Y2804D01*
X13702Y2941D02*
X13893Y2750D01*
X13442Y5781D02*
Y6055D01*
X13599Y5781D02*
Y6068D01*
X14897Y1471D02*
Y1954D01*
X14241Y2171D02*
X14681D01*
X14897Y1954D01*
X14451Y2461D02*
Y2546D01*
X18453Y7266D02*
X18543Y7176D01*
Y6764D02*
Y7176D01*
X18663Y7177D02*
X18753Y7267D01*
X18663Y6764D02*
Y7177D01*
X18663Y5843D02*
Y6254D01*
Y5843D02*
X18753Y5753D01*
X18663Y6254D02*
X18741Y6332D01*
X18465D02*
X18543Y6254D01*
X12279Y3041D02*
X12497Y3260D01*
X11730Y2730D02*
X11821Y2821D01*
X3110Y7470D02*
X3122D01*
X3560Y7032D01*
Y5770D02*
Y7032D01*
X3680Y5820D02*
Y7197D01*
X2867Y8010D02*
X3680Y7197D01*
X2424Y8010D02*
X2867D01*
X13267Y6981D02*
X13416Y7129D01*
Y7581D01*
X13267Y6971D02*
Y6981D01*
X12767Y7581D02*
X12845D01*
X12521Y7334D02*
X12767Y7581D01*
X13250Y10290D02*
X13430Y10110D01*
X13350Y9870D02*
X13410Y9810D01*
X12450Y9870D02*
X13350D01*
X11820Y10110D02*
X12268Y9662D01*
X11820Y9790D02*
X11973D01*
X12219Y9544D01*
X12268Y9662D02*
X13215D01*
X9700Y8459D02*
Y8710D01*
X9366Y8340D02*
X9480D01*
X9200Y8506D02*
Y8740D01*
Y8506D02*
X9366Y8340D01*
X11992Y3302D02*
X12024Y3334D01*
Y3400D01*
X6780Y8700D02*
Y8840D01*
X8632Y11728D02*
X8780Y11580D01*
X8222Y11728D02*
X8632D01*
X8970Y11690D02*
X9080Y11580D01*
X13410Y9810D02*
X13424D01*
X13784Y10170D01*
X14040D01*
X14320Y9890D01*
X15832Y7415D02*
X16047Y7200D01*
X15714Y7366D02*
Y8013D01*
X16086Y8385D02*
Y8924D01*
X15980Y9030D02*
X16086Y8924D01*
X15714Y7366D02*
X16000Y7080D01*
X15596Y7317D02*
X15951Y6962D01*
X15832Y7415D02*
Y7964D01*
X16204Y8336D01*
X15714Y8013D02*
X15820Y8120D01*
Y8120D01*
X16086Y8385D01*
X15590Y8230D02*
X15596Y8236D01*
X7460Y8370D02*
X7670Y8580D01*
Y9100D02*
X7850Y9280D01*
X10928Y15272D02*
X11033Y15167D01*
X7788Y8888D02*
X7880Y8980D01*
X7788Y8531D02*
Y8888D01*
X7350Y8093D02*
X7788Y8531D01*
X11694Y3730D02*
X11700Y3724D01*
X11480Y3612D02*
X11790Y3302D01*
X11431Y3494D02*
X11743Y3182D01*
X11382Y3376D02*
X11697Y3062D01*
X10899Y3612D02*
X11480D01*
X10850Y3494D02*
X11431D01*
X10801Y3376D02*
X11382D01*
X6829Y4537D02*
X6928Y4637D01*
X7835Y4212D02*
X8026Y4403D01*
X10424Y3356D02*
X10858Y2922D01*
X11238D01*
X10424Y3356D02*
Y3587D01*
X10962Y3882D02*
X11700D01*
X10948Y3730D02*
X11694D01*
X11520Y2130D02*
Y2640D01*
X11238Y2922D02*
X11520Y2640D01*
X11312Y1972D02*
Y2681D01*
X11189Y2804D02*
X11312Y2681D01*
X3232Y3823D02*
X3780D01*
X2756Y3346D02*
X3232Y3823D01*
X2244Y2677D02*
X3144D01*
X1575Y3346D02*
X2244Y2677D01*
X3144D02*
X3734Y3268D01*
X3813D01*
X16204Y8336D02*
Y10416D01*
X12754Y13867D02*
X16204Y10416D01*
X11606Y16920D02*
X11898Y16628D01*
X9560Y16720D02*
X9877Y17037D01*
X11225D02*
X11342Y16920D01*
X11606D01*
X9877Y17037D02*
X11225D01*
X10340Y16790D02*
X10370Y16820D01*
X11090D01*
X12091Y15167D02*
X12754Y14504D01*
X11033Y15167D02*
X12091D01*
X12754Y13867D02*
Y14504D01*
X8076Y11582D02*
X8222Y11728D01*
X8214Y11346D02*
X8260Y11300D01*
X6091Y5957D02*
Y6415D01*
X6474Y6798D01*
X8940Y12408D02*
X8970Y12378D01*
Y11690D02*
Y12378D01*
X7300Y12600D02*
Y12600D01*
X7756Y12826D02*
X7939Y13009D01*
X8718D01*
X9103Y13394D01*
X10012Y14500D02*
X10157Y14646D01*
X7677Y11811D02*
Y11941D01*
X7756Y12020D01*
Y12826D01*
X7780Y15240D02*
X7812Y15272D01*
X9330Y14160D02*
X9552Y14382D01*
X10154D01*
X9103Y13394D02*
Y14227D01*
X9376Y14500D01*
X10012D01*
X15835Y3398D02*
X16587Y4150D01*
X17940D01*
X18320Y3770D01*
X16365Y4095D02*
X16365D01*
X16538Y4268D01*
X17958D01*
X18290Y4600D01*
X16088Y3818D02*
X16365Y4095D01*
X19293Y4920D02*
X19710D01*
X19094Y5118D02*
X19293Y4920D01*
X18543Y5900D02*
Y6254D01*
X18380Y5309D02*
Y5500D01*
X18150Y5079D02*
X18380Y5309D01*
Y5500D02*
Y5737D01*
X18543Y5900D01*
X12580Y10290D02*
X13250D01*
X11020Y10590D02*
X11100Y10670D01*
X10660Y10590D02*
X11020D01*
X15596Y7317D02*
Y8236D01*
X8480Y11520D02*
X8546D01*
X8260Y11300D02*
X8599D01*
X8125Y11464D02*
X8180Y11520D01*
X8480D01*
X10154Y14382D02*
X10205Y14331D01*
X9920Y11801D02*
Y11950D01*
X9466Y11347D02*
X9920Y11801D01*
X8719Y11347D02*
X9466D01*
X8546Y11520D02*
X8719Y11347D01*
X10235Y11950D02*
X10580D01*
X9505Y11220D02*
X10235Y11950D01*
X8679Y11220D02*
X9505D01*
X8599Y11300D02*
X8679Y11220D01*
X2950Y12590D02*
X3130Y12410D01*
Y11791D02*
Y12410D01*
X2018Y12943D02*
Y15797D01*
Y12943D02*
X2756Y12205D01*
X2018Y15797D02*
X2756Y16535D01*
X2140Y15132D02*
X2756Y15748D01*
X2140Y12987D02*
X2537Y12590D01*
X2950D01*
X2140Y12987D02*
Y15132D01*
X7138Y11582D02*
X8076D01*
X7089Y11464D02*
X8125D01*
X7040Y11346D02*
X8214D01*
X5935Y12505D02*
X6049D01*
X7089Y11464D01*
X5900Y12470D02*
X5935Y12505D01*
X5620Y12350D02*
X5708Y12262D01*
X6124D01*
X7040Y11346D01*
X6720Y12000D02*
Y12005D01*
X6392Y12333D02*
X6720Y12005D01*
X6392Y12333D02*
Y13413D01*
X6322Y13483D02*
X6392Y13413D01*
X6720Y12000D02*
X7138Y11582D01*
X6320Y14270D02*
X6322Y14268D01*
Y13483D02*
Y14268D01*
D13*
X18504Y7756D02*
D03*
X17402D02*
D03*
X18150Y5079D02*
D03*
X13386Y18898D02*
D03*
X2756Y3346D02*
D03*
X1575D02*
D03*
X10157Y3150D02*
D03*
X8976D02*
D03*
X18110Y13583D02*
D03*
X16929D02*
D03*
X11929Y13701D02*
D03*
X4331Y13386D02*
D03*
X5512D02*
D03*
Y18898D02*
D03*
X4331D02*
D03*
X9646Y1181D02*
D03*
X8661Y18898D02*
D03*
X9843D02*
D03*
X19094Y5118D02*
D03*
Y4118D02*
D03*
X1091Y6957D02*
D03*
Y5957D02*
D03*
X2091D02*
D03*
Y6957D02*
D03*
X4091D02*
D03*
Y5957D02*
D03*
X5091D02*
D03*
Y6957D02*
D03*
X7091Y5957D02*
D03*
Y6957D02*
D03*
X10091Y5957D02*
D03*
X9091Y6957D02*
D03*
Y5957D02*
D03*
X8091Y6957D02*
D03*
Y5957D02*
D03*
X6091Y6957D02*
D03*
Y5957D02*
D03*
X3091D02*
D03*
Y6957D02*
D03*
X7300Y13600D02*
D03*
X7300Y12600D02*
D03*
X4800Y11600D02*
D03*
X11516Y11850D02*
D03*
X4055Y9843D02*
D03*
X2756Y1378D02*
D03*
D14*
X14937Y3630D02*
D03*
X14543D02*
D03*
X14937Y4010D02*
D03*
X14543D02*
D03*
X14897Y1471D02*
D03*
X14504D02*
D03*
X14504Y2871D02*
D03*
X14897D02*
D03*
X13087Y2941D02*
D03*
X12694D02*
D03*
X14504Y3211D02*
D03*
X14897D02*
D03*
X13267Y6981D02*
D03*
X12874D02*
D03*
X16417Y699D02*
D03*
X16024D02*
D03*
D15*
X19409Y693D02*
D03*
X18071D02*
D03*
D16*
X13631Y6494D02*
D03*
Y6887D02*
D03*
X11281Y5514D02*
D03*
Y5907D02*
D03*
X13571Y2314D02*
D03*
Y2707D02*
D03*
X13921Y2707D02*
D03*
Y2314D02*
D03*
X12521Y7334D02*
D03*
Y7727D02*
D03*
D17*
X14041Y6956D02*
D03*
Y6425D02*
D03*
D18*
X15799Y5429D02*
D03*
X16206Y5771D02*
D03*
D19*
X12691Y2194D02*
D03*
Y2568D02*
D03*
X16791Y1073D02*
D03*
Y699D02*
D03*
D20*
X15108Y5411D02*
D03*
X14577D02*
D03*
D21*
X15519Y5750D02*
D03*
X15806Y5990D02*
D03*
D22*
X17549Y699D02*
D03*
X17175D02*
D03*
D23*
X9931Y10748D02*
D03*
Y9173D02*
D03*
X12589Y10748D02*
D03*
Y9173D02*
D03*
D24*
X13757Y5781D02*
D03*
X13599D02*
D03*
X13442D02*
D03*
X13284D02*
D03*
X13127D02*
D03*
X12969D02*
D03*
X12812D02*
D03*
X12654D02*
D03*
X12497D02*
D03*
X12339D02*
D03*
X12182D02*
D03*
X12024D02*
D03*
Y3400D02*
D03*
X12182D02*
D03*
X12339D02*
D03*
X12497D02*
D03*
X12654D02*
D03*
X12812D02*
D03*
X12969D02*
D03*
X13127D02*
D03*
X13284D02*
D03*
X13442D02*
D03*
X13599D02*
D03*
X13757D02*
D03*
D25*
X11700Y5457D02*
D03*
Y5299D02*
D03*
Y5142D02*
D03*
Y4984D02*
D03*
Y4827D02*
D03*
Y4669D02*
D03*
Y4512D02*
D03*
Y4354D02*
D03*
Y4197D02*
D03*
Y4039D02*
D03*
Y3882D02*
D03*
Y3724D02*
D03*
X14081D02*
D03*
Y3882D02*
D03*
Y4039D02*
D03*
Y4197D02*
D03*
Y4354D02*
D03*
Y4512D02*
D03*
Y4669D02*
D03*
Y4827D02*
D03*
Y4984D02*
D03*
Y5142D02*
D03*
Y5299D02*
D03*
Y5457D02*
D03*
D26*
X12891Y4591D02*
D03*
D27*
X18465Y6332D02*
D03*
Y6687D02*
D03*
X18741D02*
D03*
Y6332D02*
D03*
D28*
X18997Y6509D02*
D03*
X8913Y14830D02*
D03*
X8647D02*
D03*
D29*
X787Y2559D02*
D03*
X19173Y13937D02*
D03*
D30*
X2402Y19291D02*
D03*
D31*
X14474Y2456D02*
D03*
X14927D02*
D03*
Y1885D02*
D03*
X14474D02*
D03*
D32*
X12845Y7581D02*
D03*
X13416D02*
D03*
D33*
X5360Y8410D02*
X5473Y8297D01*
Y7940D02*
Y8297D01*
X4535Y8380D02*
X5705Y7211D01*
X4752Y8000D02*
X5589Y7163D01*
X4544Y8000D02*
X4752D01*
X4775Y7813D02*
X5473Y7115D01*
X4488Y7813D02*
X4775D01*
X3810Y8380D02*
X4535D01*
X5473Y5609D02*
Y7115D01*
X5589Y6830D02*
Y7163D01*
X4182Y8120D02*
X4488Y7813D01*
X3660Y8120D02*
X4182D01*
X5473Y7940D02*
X5900Y7513D01*
X3790Y8390D02*
X3805Y8375D01*
X8840Y8605D02*
Y8750D01*
X10091Y6957D02*
Y7355D01*
X8840Y8605D02*
X10091Y7355D01*
X9704Y6570D02*
X10091Y6957D01*
X9704Y5786D02*
Y6570D01*
X9918Y5572D02*
X10095D01*
X9704Y5786D02*
X9918Y5572D01*
X9588Y5738D02*
X9872Y5455D01*
X9588Y5575D02*
X9824Y5339D01*
X5835Y5575D02*
X9588D01*
X9540Y5459D02*
X9776Y5223D01*
X5787Y5459D02*
X9540D01*
X9492Y5343D02*
X9728Y5107D01*
X5739Y5343D02*
X9492D01*
X9588Y5738D02*
Y7001D01*
X10989Y4512D02*
X11700D01*
X9872Y5455D02*
X10047D01*
X10989Y4512D01*
X10095Y5572D02*
X10999Y4669D01*
X9999Y5339D02*
X10983Y4354D01*
X9824Y5339D02*
X9999D01*
X9951Y5223D02*
X10977Y4197D01*
X9776Y5223D02*
X9951D01*
X9903Y5107D02*
X10970Y4039D01*
X9728Y5107D02*
X9903D01*
X10999Y4669D02*
X11700D01*
X7840Y4520D02*
X9040D01*
X9140Y4420D01*
X9117Y7472D02*
X9588Y7001D01*
X8538Y7472D02*
X9117D01*
X6579Y7339D02*
X7381D01*
X7440Y7280D01*
X7350Y7590D02*
Y7940D01*
X7320Y7560D02*
X7350Y7590D01*
X6590Y7630D02*
X6950Y7990D01*
X6990D01*
X6120Y7870D02*
X6620Y8370D01*
X6010Y7870D02*
X6120D01*
X5850Y8140D02*
X6220D01*
X5800Y8090D02*
X5850Y8140D01*
X6524Y7394D02*
X6579Y7339D01*
X6241Y7513D02*
X6798Y6957D01*
X5900Y7513D02*
X6241D01*
X5705Y5705D02*
Y6650D01*
X5705Y6650D02*
Y7211D01*
Y6650D02*
X5705Y6650D01*
X5589Y5657D02*
Y6830D01*
X5589Y6830D02*
X5589Y6830D01*
X6798Y6957D02*
X7091D01*
X8220Y7790D02*
X8538Y7472D01*
X8069Y15389D02*
X10977D01*
X7710Y15748D02*
X8069Y15389D01*
X7087Y16535D02*
X8117Y15505D01*
X11025D01*
X7087Y15748D02*
X7710D01*
X16253Y7627D02*
X16340Y7540D01*
X16253Y7627D02*
Y8056D01*
X16437Y8240D01*
Y10512D01*
X12986Y13963D02*
X16437Y10512D01*
X12986Y13963D02*
Y14601D01*
X12187Y15400D02*
X12986Y14601D01*
X11130Y15400D02*
X12187D01*
X11025Y15505D02*
X11130Y15400D01*
X10977Y15389D02*
X11082Y15284D01*
X5653Y3367D02*
X6458D01*
X6470Y3355D02*
X6605D01*
X5650Y3370D02*
X5653Y3367D01*
X6458D02*
X6470Y3355D01*
X6605D02*
X6740Y3220D01*
X6620Y8370D02*
X6950D01*
X7087Y5957D02*
X7091D01*
X5648Y5598D02*
X5648D01*
X5589Y5657D02*
X5648Y5598D01*
X16460Y7970D02*
X16553Y8063D01*
X16040Y8007D02*
X16321Y8288D01*
X16040Y7540D02*
Y8007D01*
X11417Y15748D02*
X11649Y15516D01*
X7510Y3220D02*
X7620Y3110D01*
X6740Y3220D02*
X7510D01*
X7740Y4420D02*
X7840Y4520D01*
X10983Y4354D02*
X11700D01*
X10977Y4197D02*
X11700D01*
X10970Y4039D02*
X11700D01*
X5705Y5705D02*
X5835Y5575D01*
X5648Y5598D02*
X5787Y5459D01*
X5473Y5609D02*
X5739Y5343D01*
X16321Y10060D02*
X16321Y10060D01*
X16321Y10060D02*
Y10465D01*
X16321Y8288D02*
Y10060D01*
X16553Y8063D02*
Y10560D01*
X13102Y14011D02*
X16553Y10560D01*
X12871Y13915D02*
X16321Y10465D01*
X12235Y15516D02*
X13102Y14649D01*
X12139Y15284D02*
X12871Y14553D01*
X11082Y15284D02*
X12139D01*
X12871Y13915D02*
Y14553D01*
X11649Y15516D02*
X12235D01*
X13102Y14011D02*
Y14649D01*
X6220Y8140D02*
X6715Y8635D01*
X5340Y12230D02*
Y12363D01*
X6275Y12785D02*
Y13365D01*
X6167Y12677D02*
X6275Y12785D01*
X5654Y12677D02*
X6167D01*
X5340Y12363D02*
X5654Y12677D01*
X6205Y13435D02*
X6275Y13365D01*
X6113Y14184D02*
X6205Y14092D01*
Y13435D02*
Y14092D01*
X6113Y14928D02*
X6245Y15060D01*
X6113Y14184D02*
Y14928D01*
D34*
X2910Y18670D02*
X3079D01*
X3504Y19094D01*
X4134D01*
X4331Y18898D01*
D35*
X10966Y15004D02*
X12024D01*
X10861Y15109D02*
X10966Y15004D01*
X12024D02*
X12591Y14437D01*
X11567Y9214D02*
Y11007D01*
X9099Y15109D02*
X10861D01*
X9441Y14901D02*
X10775D01*
X9310Y14770D02*
X9441Y14901D01*
X12550Y19670D02*
X12690Y19530D01*
X10615Y19670D02*
X12550D01*
X8940Y14950D02*
X9099Y15109D01*
X15525Y9790D02*
X15570D01*
X15833Y10053D01*
X14720Y8110D02*
X16041Y9431D01*
X14720Y7071D02*
Y8110D01*
X3490Y14760D02*
X3839Y14411D01*
X4300Y8960D02*
X4570Y9230D01*
X5530Y9250D02*
X5550Y9230D01*
X4570D02*
X5550D01*
X14338Y6689D02*
X14720Y7071D01*
X10775Y14901D02*
X10880Y14796D01*
X5550Y9230D02*
X6820D01*
X7090Y8960D01*
Y8750D02*
Y8960D01*
X9843Y18898D02*
X10615Y19670D01*
X15833Y10053D02*
Y10254D01*
X16041Y9431D02*
Y10349D01*
X12591Y13799D02*
X16041Y10349D01*
X12383Y13705D02*
X15833Y10254D01*
X11938Y14796D02*
X12383Y14351D01*
X10880Y14796D02*
X11938D01*
X12383Y13705D02*
Y14351D01*
X12591Y13799D02*
Y14437D01*
X5530Y10430D02*
X5560Y10460D01*
X5530Y9250D02*
Y10430D01*
X7872Y13172D02*
X8650D01*
X8940Y13462D01*
X7300Y12600D02*
X7872Y13172D01*
X7300Y12600D02*
X7300Y12600D01*
X8940Y13462D02*
Y14950D01*
X11567Y11007D02*
X11770Y11210D01*
X12370D01*
X3839Y14411D02*
X4779D01*
X5512Y13678D01*
Y13386D02*
Y13678D01*
X3440Y14290D02*
X4331Y13399D01*
Y13386D02*
Y13399D01*
X3260Y8960D02*
X4300D01*
D36*
X14060Y19680D02*
X14120Y19620D01*
X12840Y19680D02*
X14060D01*
X12690Y19530D02*
X12840Y19680D01*
X11330Y8977D02*
X11472Y9118D01*
X11085Y8977D02*
X11330D01*
X10930Y9132D02*
X11085Y8977D01*
X10930Y9132D02*
Y9387D01*
X6610Y2930D02*
X7140D01*
X6380Y3160D02*
X6610Y2930D01*
X5950Y3160D02*
X6380D01*
X14280Y3420D02*
X14338D01*
X14504Y3254D01*
Y3211D02*
Y3254D01*
X13989Y3371D02*
X14200Y3160D01*
X14403D02*
X14464Y3221D01*
X14200Y3160D02*
X14403D01*
X13786Y3371D02*
X13989D01*
X8480Y12780D02*
X8840D01*
X8300Y12600D02*
X8480Y12780D01*
X13910Y18040D02*
X13990D01*
X14440Y17590D01*
Y16570D02*
Y17590D01*
Y16570D02*
X14790Y16220D01*
X15180D01*
X14430Y15870D02*
X14552Y15992D01*
X19004Y15080D02*
X19114Y14970D01*
X16470Y15080D02*
X19004D01*
X15558Y15992D02*
X16470Y15080D01*
X14552Y15992D02*
X15558D01*
X14030Y17740D02*
X14231Y17539D01*
X13860Y17740D02*
X14030D01*
X14231Y16441D02*
Y17539D01*
X11560Y5740D02*
X11800D01*
X12560Y16030D02*
X12860D01*
X13310Y15580D01*
X10390Y890D02*
Y1620D01*
X10560Y1790D02*
Y2110D01*
X10390Y1620D02*
X10560Y1790D01*
X13757Y3400D02*
X13786Y3371D01*
X11334Y5514D02*
X11560Y5740D01*
X11281Y5514D02*
X11334D01*
X8570Y9770D02*
X10547D01*
X10930Y9387D01*
X12874Y6926D02*
Y6981D01*
Y6926D02*
X13090Y6710D01*
X12589Y10748D02*
Y11089D01*
X12770Y11270D01*
Y11340D01*
X11350Y10500D02*
X11368Y10518D01*
X13682Y17946D02*
X13860Y17768D01*
X13682Y17946D02*
Y18134D01*
X14078Y18530D01*
X14180D01*
X11368Y11238D02*
X11430Y11300D01*
X11368Y10518D02*
Y11238D01*
X11281Y5907D02*
X11313Y5940D01*
X11570D01*
X11620Y5990D01*
X14041Y6956D02*
X14236D01*
X14390Y7110D01*
Y7220D01*
X7130Y11790D02*
X7328D01*
X6530Y12390D02*
X7130Y11790D01*
X6530Y12390D02*
Y13600D01*
D37*
X11592Y6543D02*
X12182Y5953D01*
Y5781D02*
Y5953D01*
X12024Y5781D02*
Y5901D01*
X11606Y6320D02*
X12024Y5901D01*
X14088Y5148D02*
X15518D01*
X14081Y5142D02*
X14088Y5148D01*
X14311Y4911D02*
X14481D01*
X14237Y4984D02*
X14311Y4911D01*
X14081Y4984D02*
X14237D01*
X15806Y5436D02*
Y5990D01*
X14094Y5299D02*
X14546D01*
X12971Y3213D02*
Y4347D01*
X13084Y2937D02*
Y3100D01*
X12971Y3213D02*
X13084Y3100D01*
X12690Y2937D02*
Y3091D01*
X12812Y3213D01*
Y3400D01*
X14105Y6423D02*
X14338Y6656D01*
X14072Y5461D02*
Y6390D01*
X13757Y4984D02*
X14081D01*
X11281Y5457D02*
X11700Y5457D01*
X15518Y5148D02*
X15799Y5429D01*
X14072Y6390D02*
X14105Y6423D01*
X11490Y6320D02*
X11606D01*
X11240Y6490D02*
X11293Y6543D01*
X11592D01*
D38*
X17340Y13060D02*
X17588D01*
X18110Y13583D01*
D39*
X16656Y13310D02*
X16929Y13583D01*
X16600Y13310D02*
X16656D01*
D40*
X14140Y10730D02*
X14190Y10680D01*
X14140Y10730D02*
Y11150D01*
D41*
X2510Y10700D02*
X3900D01*
X4800Y11600D01*
X5880Y18890D02*
X6200Y18570D01*
X5500Y18890D02*
X5880D01*
X11856Y14478D02*
X12100Y14234D01*
Y13000D02*
Y14234D01*
Y13000D02*
X12730Y12370D01*
X10520Y14560D02*
X10602Y14478D01*
X11856D01*
X1199Y16059D02*
X1400Y15857D01*
Y10980D02*
X2220Y10160D01*
X1780Y11430D02*
Y16090D01*
Y11430D02*
X2510Y10700D01*
X1400Y10980D02*
Y13970D01*
Y15857D01*
D42*
X3490Y14760D02*
X3660D01*
X3990Y15090D01*
X13638Y6492D02*
X13757Y6374D01*
Y5781D02*
Y6374D01*
X9210Y9330D02*
Y9408D01*
X9349Y9547D01*
X10513D01*
X10670Y9390D01*
Y9060D02*
Y9390D01*
X8647Y14830D02*
X8913D01*
X3990Y15500D02*
X4550Y16060D01*
X5540D01*
X3990Y15090D02*
Y15500D01*
D43*
X16417Y699D02*
X17175D01*
X12692Y2587D02*
Y2941D01*
X9250Y17820D02*
Y18771D01*
X8661Y18898D02*
X9124D01*
X9250Y18771D01*
X4469Y2459D02*
X4855Y2072D01*
X5802D01*
X8332Y14830D02*
X8540D01*
X7500Y14990D02*
X7528Y14962D01*
X8200D01*
X8332Y14830D01*
X7300Y13600D02*
Y14790D01*
X7500Y14990D01*
X2328Y13420D02*
X2756Y12992D01*
X2328Y13420D02*
Y14548D01*
X3164Y15384D01*
Y16915D01*
X2756Y17323D02*
X3164Y16915D01*
X1091Y7741D02*
X2015Y8665D01*
X2895D01*
X1091Y6957D02*
Y7741D01*
X2895Y8665D02*
X3190Y8960D01*
D44*
X17756Y699D02*
X18002D01*
D45*
X15108Y5411D02*
X15180D01*
X15519Y5750D01*
X1940Y7640D02*
X2091Y7489D01*
Y6957D02*
Y7489D01*
X4091Y6957D02*
Y7489D01*
X3940Y7640D02*
X4091Y7489D01*
D46*
X9866Y18898D02*
X9960Y18804D01*
X7930Y17323D02*
X8163Y17090D01*
X7087Y17323D02*
X7930D01*
X10853D02*
X11417D01*
X10780Y17250D02*
X10853Y17323D01*
X9599Y17090D02*
X9759Y17250D01*
X9960Y17451D02*
Y18804D01*
X9759Y17250D02*
X9960Y17451D01*
X8163Y17090D02*
X9590D01*
X9759Y17250D02*
X10780D01*
D47*
X19125Y6992D02*
D03*
X19125Y6027D02*
D03*
D48*
X18357Y6992D02*
D03*
Y6027D02*
D03*
D49*
X19558Y6509D02*
D03*
D50*
X18200D02*
D03*
D51*
X1378Y18543D02*
D03*
Y1378D02*
D03*
X15071Y14685D02*
D03*
D52*
X19272Y6509D02*
D03*
D53*
X10091Y6957D02*
D03*
X8300Y13600D02*
D03*
X8300Y12600D02*
D03*
X5800Y11600D02*
D03*
D54*
X571Y8661D02*
D03*
Y11260D02*
D03*
D55*
X937Y3573D02*
D03*
Y5073D02*
D03*
D56*
X974Y14260D02*
D03*
Y16937D02*
D03*
D57*
X2756Y18110D02*
D03*
Y17323D02*
D03*
Y16535D02*
D03*
X7087Y18110D02*
D03*
Y17323D02*
D03*
Y16535D02*
D03*
X2756Y13780D02*
D03*
Y12992D02*
D03*
Y12205D02*
D03*
X11417Y18110D02*
D03*
Y17323D02*
D03*
Y16535D02*
D03*
D58*
X2756Y15748D02*
D03*
X7087D02*
D03*
X2756Y11417D02*
D03*
X11417Y15748D02*
D03*
D59*
X5260Y8120D02*
D03*
X13890Y14610D02*
D03*
X9610Y7350D02*
D03*
X11600D02*
D03*
X8310Y10300D02*
D03*
X7440Y7280D02*
D03*
X7320Y7560D02*
D03*
X3840Y8700D02*
D03*
X3810Y8380D02*
D03*
X3660Y8120D02*
D03*
X8220Y7790D02*
D03*
X13770Y8260D02*
D03*
X8610Y7050D02*
D03*
X9380Y6340D02*
D03*
X14120Y19620D02*
D03*
X10760Y8730D02*
D03*
X10170Y8490D02*
D03*
X11490Y9100D02*
D03*
X11420Y8700D02*
D03*
X11890Y7240D02*
D03*
X16340Y7540D02*
D03*
X12170Y7120D02*
D03*
X12450Y7010D02*
D03*
X12970Y8090D02*
D03*
X7340Y3600D02*
D03*
X7410Y4070D02*
D03*
X6000Y3820D02*
D03*
X5650Y3370D02*
D03*
X8230Y2840D02*
D03*
X5950Y3160D02*
D03*
X12340Y1200D02*
D03*
X12985Y428D02*
D03*
X12580Y750D02*
D03*
X13170Y1290D02*
D03*
X13100Y1700D02*
D03*
X12300D02*
D03*
X14000Y300D02*
D03*
X14500D02*
D03*
X15500D02*
D03*
X16500D02*
D03*
X17000D02*
D03*
X17100Y1100D02*
D03*
X16500D02*
D03*
X15500D02*
D03*
X14500D02*
D03*
X14000D02*
D03*
X17610Y4950D02*
D03*
X17860Y5480D02*
D03*
X17240Y8400D02*
D03*
X18590Y13420D02*
D03*
X10950Y19410D02*
D03*
X4530Y8790D02*
D03*
X16420Y3540D02*
D03*
X16000Y4030D02*
D03*
X15270D02*
D03*
Y3610D02*
D03*
X14280Y3420D02*
D03*
X12480Y18120D02*
D03*
X11920Y18250D02*
D03*
X12640Y11970D02*
D03*
X12620Y11590D02*
D03*
X9880Y14140D02*
D03*
X7610Y14650D02*
D03*
X7470Y12130D02*
D03*
X7500Y14990D02*
D03*
X8660Y2750D02*
D03*
X6960Y19560D02*
D03*
X3490Y16950D02*
D03*
X3820Y5210D02*
D03*
X15580Y13560D02*
D03*
X15525Y9790D02*
D03*
X19114Y14970D02*
D03*
X5800Y8090D02*
D03*
X6010Y7870D02*
D03*
X6590Y7630D02*
D03*
X7490Y6360D02*
D03*
X9480Y3800D02*
D03*
X9470Y3360D02*
D03*
X9440Y4190D02*
D03*
X11040Y6260D02*
D03*
Y5740D02*
D03*
X11130Y17720D02*
D03*
X10370Y13870D02*
D03*
X9650Y15740D02*
D03*
X7190Y18970D02*
D03*
X11120Y16210D02*
D03*
X17300Y11440D02*
D03*
X12430Y13300D02*
D03*
X15780Y9530D02*
D03*
X15540Y10150D02*
D03*
X17340Y9840D02*
D03*
X14190Y10680D02*
D03*
X14140Y11150D02*
D03*
X12370Y11210D02*
D03*
X12730Y12370D02*
D03*
X10630Y15730D02*
D03*
X13310Y15580D02*
D03*
X16600Y13310D02*
D03*
X17340Y13060D02*
D03*
X10370Y18940D02*
D03*
X8540Y5790D02*
D03*
X6000Y4660D02*
D03*
X9777Y3356D02*
D03*
X6809Y4537D02*
D03*
X6166Y2350D02*
D03*
X6510Y4540D02*
D03*
X6644Y3770D02*
D03*
X7140Y2930D02*
D03*
X6060Y2850D02*
D03*
X1480Y7240D02*
D03*
X10590Y2090D02*
D03*
X10840Y2580D02*
D03*
X10950Y3130D02*
D03*
X10390Y890D02*
D03*
X4690Y4680D02*
D03*
X4370Y4740D02*
D03*
X11190Y9230D02*
D03*
X9860Y10890D02*
D03*
X10560Y10900D02*
D03*
X1199Y16059D02*
D03*
X5930Y9230D02*
D03*
X7460Y8710D02*
D03*
X6870Y12380D02*
D03*
X2220Y10160D02*
D03*
X3490Y14760D02*
D03*
X7720Y16910D02*
D03*
X8100Y17730D02*
D03*
X4420Y16790D02*
D03*
X4800Y16420D02*
D03*
X4750Y18610D02*
D03*
X4810Y19470D02*
D03*
X4410Y17960D02*
D03*
X3750Y18710D02*
D03*
X6200Y18570D02*
D03*
X5540Y16060D02*
D03*
X2910Y18670D02*
D03*
X5530Y15720D02*
D03*
X5550Y15350D02*
D03*
X5540Y14980D02*
D03*
X4420Y14040D02*
D03*
X4840Y13930D02*
D03*
X4130Y16040D02*
D03*
X3620Y15610D02*
D03*
X3540Y15150D02*
D03*
X4540Y15200D02*
D03*
X4530Y15600D02*
D03*
X11490Y6320D02*
D03*
X17972Y7679D02*
D03*
X19500Y8500D02*
D03*
Y7500D02*
D03*
X14451Y5821D02*
D03*
X16381Y6151D02*
D03*
X12300Y2200D02*
D03*
X14171Y1491D02*
D03*
X15301Y2501D02*
D03*
X15231Y2891D02*
D03*
X15231Y3171D02*
D03*
X15811Y4941D02*
D03*
X14338Y6689D02*
D03*
X13721Y7211D02*
D03*
X13571Y2001D02*
D03*
X13901D02*
D03*
X15811Y6721D02*
D03*
X13100Y2200D02*
D03*
X14481Y4921D02*
D03*
X18753Y7267D02*
D03*
X18453Y7266D02*
D03*
X18753Y5753D02*
D03*
X19190Y5750D02*
D03*
X17710Y3900D02*
D03*
X11040Y9670D02*
D03*
X11820Y10110D02*
D03*
Y9790D02*
D03*
X11730Y2730D02*
D03*
X1940Y7640D02*
D03*
X2424Y8010D02*
D03*
X3110Y7470D02*
D03*
X4574Y8020D02*
D03*
X3940Y7640D02*
D03*
X16140Y13700D02*
D03*
X18400Y13970D02*
D03*
X13100Y12170D02*
D03*
X14340Y13750D02*
D03*
X11800Y5740D02*
D03*
X11620Y5990D02*
D03*
X13090Y6710D02*
D03*
X12580Y10290D02*
D03*
X11250Y7590D02*
D03*
X10970Y7710D02*
D03*
X12450Y9870D02*
D03*
X13430Y10110D02*
D03*
X13410Y9810D02*
D03*
X9210Y9310D02*
D03*
X10670Y9060D02*
D03*
X9700Y8710D02*
D03*
X9200Y8740D02*
D03*
X8840Y8750D02*
D03*
X9440Y8560D02*
D03*
X8560Y9800D02*
D03*
X8430Y10840D02*
D03*
X6780Y8840D02*
D03*
X6990Y7990D02*
D03*
X7850Y9280D02*
D03*
X7880Y8980D02*
D03*
X5560Y10460D02*
D03*
X9080Y11580D02*
D03*
X8420Y8640D02*
D03*
X9360Y10800D02*
D03*
X8480Y11520D02*
D03*
X8780Y11580D02*
D03*
X8260Y11300D02*
D03*
X8940Y12408D02*
D03*
X9100Y13050D02*
D03*
X14320Y9890D02*
D03*
X13900Y9960D02*
D03*
X14670Y9740D02*
D03*
X10220Y13060D02*
D03*
X9710Y13420D02*
D03*
X8700Y7680D02*
D03*
X16460Y7970D02*
D03*
X16040Y7540D02*
D03*
X15990Y9000D02*
D03*
X14790Y6640D02*
D03*
X15560Y8540D02*
D03*
X14290Y8590D02*
D03*
X15320Y7210D02*
D03*
X16890Y5760D02*
D03*
X15590Y8230D02*
D03*
X17900Y6720D02*
D03*
X17870Y6270D02*
D03*
X9630Y17670D02*
D03*
X9640Y18360D02*
D03*
X9250Y17820D02*
D03*
X3190Y8960D02*
D03*
X2850Y9030D02*
D03*
X2940Y9850D02*
D03*
X2640Y10180D02*
D03*
X2622Y5310D02*
D03*
X2611Y4320D02*
D03*
X2631Y3860D02*
D03*
X3410Y8440D02*
D03*
X3860Y9220D02*
D03*
X9310Y14770D02*
D03*
X7090Y8750D02*
D03*
X10660Y10590D02*
D03*
X8690Y15780D02*
D03*
X10670Y18480D02*
D03*
X6260Y19430D02*
D03*
X540Y19420D02*
D03*
X550Y17120D02*
D03*
X580Y18120D02*
D03*
X1100Y10700D02*
D03*
X1030Y8170D02*
D03*
X730Y11800D02*
D03*
Y13730D02*
D03*
X3400Y7880D02*
D03*
X3270Y6470D02*
D03*
X3990D02*
D03*
X10310Y450D02*
D03*
X16780Y1410D02*
D03*
X16000Y1100D02*
D03*
X15000D02*
D03*
X16000Y300D02*
D03*
X15000D02*
D03*
X13500D02*
D03*
Y1100D02*
D03*
X19520Y2840D02*
D03*
X18260Y2860D02*
D03*
X16040Y2290D02*
D03*
X17160Y2840D02*
D03*
X17050Y2060D02*
D03*
X16631Y6560D02*
D03*
X17970Y8280D02*
D03*
X13330Y8920D02*
D03*
X18250Y10500D02*
D03*
X19500Y9500D02*
D03*
Y10500D02*
D03*
Y11500D02*
D03*
X17380Y7240D02*
D03*
X18250Y9500D02*
D03*
X18240Y11350D02*
D03*
X18450Y12560D02*
D03*
X16590Y12570D02*
D03*
X19640Y14550D02*
D03*
X16620Y13970D02*
D03*
X14230Y15590D02*
D03*
X6520Y16600D02*
D03*
X5720Y18030D02*
D03*
X6800Y14600D02*
D03*
X6700Y15210D02*
D03*
X5660Y16820D02*
D03*
X6670Y14260D02*
D03*
X5540Y14610D02*
D03*
X3320Y13760D02*
D03*
X2130Y17290D02*
D03*
X4850Y12100D02*
D03*
X3900Y11360D02*
D03*
X4330Y11890D02*
D03*
X4900Y13350D02*
D03*
X410Y7550D02*
D03*
X400Y3500D02*
D03*
X500Y500D02*
D03*
X410Y1500D02*
D03*
X1750Y430D02*
D03*
X3650Y2800D02*
D03*
X8170Y1670D02*
D03*
X7598Y5846D02*
D03*
X8520Y6470D02*
D03*
X8000Y8700D02*
D03*
X5980Y10490D02*
D03*
X9780Y2560D02*
D03*
X9060Y2340D02*
D03*
X10460Y2360D02*
D03*
X7620Y3110D02*
D03*
X9740Y3970D02*
D03*
X9120Y4420D02*
D03*
X7740D02*
D03*
X11520Y2130D02*
D03*
X11290Y1930D02*
D03*
X19646Y13375D02*
D03*
X7150Y1650D02*
D03*
X7120Y2540D02*
D03*
X6010Y1780D02*
D03*
X7047Y827D02*
D03*
X2810Y410D02*
D03*
X3350Y1610D02*
D03*
X4650Y1590D02*
D03*
X4680Y3490D02*
D03*
X5490Y2420D02*
D03*
X5400Y3830D02*
D03*
X9180Y730D02*
D03*
X10060Y1710D02*
D03*
X9190Y1700D02*
D03*
X8790Y310D02*
D03*
X11670Y330D02*
D03*
X12690Y19530D02*
D03*
X14180Y18530D02*
D03*
X12560Y16030D02*
D03*
X15180Y16220D02*
D03*
X13860Y17740D02*
D03*
X13910Y18040D02*
D03*
X13920Y17430D02*
D03*
X13930Y17120D02*
D03*
X14231Y16441D02*
D03*
X14430Y15870D02*
D03*
X17500Y14000D02*
D03*
X7427Y10063D02*
D03*
Y10497D02*
D03*
X6993Y10063D02*
D03*
Y10497D02*
D03*
X14685Y9341D02*
D03*
Y9006D02*
D03*
X8468Y3702D02*
D03*
X8468Y3387D02*
D03*
Y4017D02*
D03*
X8890Y18353D02*
D03*
X11390Y13900D02*
D03*
X11720Y14150D02*
D03*
X3780Y3823D02*
D03*
X3813Y3268D02*
D03*
X2283Y2953D02*
D03*
X3150Y2990D02*
D03*
X1830Y2770D02*
D03*
X12010Y13380D02*
D03*
X12222Y16020D02*
D03*
X13730Y14940D02*
D03*
X11970Y19380D02*
D03*
X12290Y17070D02*
D03*
X12580Y19220D02*
D03*
X10350Y17610D02*
D03*
X9950Y16790D02*
D03*
X9340Y17080D02*
D03*
X9560Y16720D02*
D03*
X11090Y16820D02*
D03*
X10340Y16790D02*
D03*
X10520Y14560D02*
D03*
X5802Y2072D02*
D03*
X4469Y2459D02*
D03*
X11240Y6490D02*
D03*
X6400Y11210D02*
D03*
X6310Y11650D02*
D03*
X5590Y8610D02*
D03*
X5180Y8650D02*
D03*
X5360Y8410D02*
D03*
X7677Y11811D02*
D03*
X10157Y14646D02*
D03*
X7960Y11930D02*
D03*
X7780Y15240D02*
D03*
X8110Y14590D02*
D03*
X9330Y14160D02*
D03*
X10690Y14140D02*
D03*
X18290Y4600D02*
D03*
X18320Y3770D02*
D03*
X19710Y4920D02*
D03*
X18380Y5500D02*
D03*
X11430Y11300D02*
D03*
X11100Y10670D02*
D03*
X3930Y10350D02*
D03*
X18620Y4430D02*
D03*
X19230Y4610D02*
D03*
X17130Y4570D02*
D03*
X14390Y7220D02*
D03*
X7550Y17800D02*
D03*
X9379Y11555D02*
D03*
X10205Y14331D02*
D03*
X9920Y11950D02*
D03*
X10580D02*
D03*
X10390Y12420D02*
D03*
X5340Y12230D02*
D03*
X7328Y11790D02*
D03*
X7160Y13100D02*
D03*
X6770Y12840D02*
D03*
X5430Y14210D02*
D03*
X1780Y16090D02*
D03*
X3440Y14290D02*
D03*
X1400Y13970D02*
D03*
X5900Y12470D02*
D03*
X5620Y12350D02*
D03*
X6530Y13600D02*
D03*
X6320Y14270D02*
D03*
X6245Y15060D02*
D03*
X5980Y13600D02*
D03*
D60*
X13599Y5299D02*
D03*
Y4827D02*
D03*
Y4354D02*
D03*
Y3882D02*
D03*
X13127Y5299D02*
D03*
Y4827D02*
D03*
Y4354D02*
D03*
Y3882D02*
D03*
X12654Y5299D02*
D03*
Y4827D02*
D03*
Y4354D02*
D03*
Y3882D02*
D03*
X12182Y5299D02*
D03*
Y4827D02*
D03*
Y4354D02*
D03*
Y3882D02*
D03*
M02*
